<svg width="1600" height="285" viewBox="0 0 1600 285" fill="none" xmlns="http://www.w3.org/2000/svg">
<rect width="1600" height="285" fill="#322782"/>
<path d="M122.123 77.9499C120.786 79.1201 119.198 79.7052 117.359 79.7052C115.436 79.7052 113.848 79.1201 112.678 77.9499C111.424 76.7796 110.839 75.2751 110.839 73.4362C110.839 71.5973 111.424 70.0927 112.678 68.8389C113.932 67.5851 115.52 67 117.359 67C119.281 67 120.869 67.5851 122.123 68.8389C123.461 70.0927 124.046 71.5973 124.046 73.4362C124.046 75.1915 123.377 76.7796 122.123 77.9499ZM111.34 118.322V84.1353H123.043V118.322H111.34Z" fill="white"/>
<path d="M154.722 93.1624H146.28V118.322H134.577V93.1624H128.894V84.135H134.494V83.132C134.494 78.5347 135.664 74.9405 138.005 72.4329C140.345 69.9253 143.772 68.5879 148.202 68.5879C149.707 68.5879 151.211 68.7551 152.632 69.0058C154.053 69.2566 155.14 69.5073 155.725 69.8417L156.812 70.2596L153.134 78.7019C152.465 78.3675 151.546 78.2004 150.208 78.2004C148.954 78.2004 147.951 78.6183 147.199 79.3706C146.447 80.1228 146.112 81.2095 146.112 82.3797V84.0514H154.555V93.1624H154.722Z" fill="white"/>
<path d="M185.064 107.54L189.076 115.146C188.742 115.481 188.24 115.899 187.571 116.317C186.903 116.818 185.482 117.403 183.141 118.155C180.801 118.908 178.46 119.326 175.786 119.326C170.018 119.326 165.504 117.57 162.077 114.143C158.65 110.716 156.979 106.37 156.979 101.187C156.979 96.005 158.567 91.7421 161.827 88.3986C165.087 84.9715 169.266 83.2998 174.365 83.2998C179.38 83.2998 183.392 84.8044 186.318 87.8971C189.243 90.9062 190.664 95.0855 190.664 100.351L190.58 103.611H168.263C168.848 108.041 171.606 110.215 176.538 110.215C178.042 110.215 179.463 109.964 180.884 109.546C182.305 109.128 183.308 108.71 183.977 108.209L185.064 107.54ZM174.114 91.7421C171.105 91.7421 169.182 93.581 168.514 97.1752H179.463C179.38 95.5035 178.878 94.1661 177.959 93.163C177.039 92.2436 175.786 91.7421 174.114 91.7421Z" fill="white"/>
<path d="M230.117 106.871L236.888 115.898C236.72 116.065 236.47 116.316 236.219 116.567C235.968 116.818 235.299 117.319 234.296 118.072C233.293 118.74 232.207 119.409 231.036 119.91C229.866 120.412 228.278 120.914 226.356 121.331C224.433 121.749 222.343 122 220.254 122C212.647 122 206.546 119.576 201.948 114.645C197.351 109.796 195.094 103.695 195.094 96.4226C195.094 89.2342 197.351 83.1324 201.948 78.2843C206.462 73.4363 212.564 70.9287 220.254 70.9287C223.681 70.9287 226.774 71.4302 229.532 72.4333C232.29 73.4363 234.213 74.4394 235.299 75.4424L236.888 76.9469L230.117 85.9743C229.866 85.7235 229.532 85.3892 229.03 84.9713C228.529 84.5533 227.442 84.0518 225.771 83.3831C224.099 82.7144 222.26 82.3801 220.337 82.3801C216.492 82.3801 213.316 83.7175 210.892 86.3087C208.468 88.8998 207.214 92.3269 207.214 96.5898C207.214 100.853 208.468 104.196 210.892 106.871C213.316 109.462 216.492 110.8 220.337 110.8C222.26 110.8 224.099 110.465 225.687 109.88C227.275 109.295 228.445 108.626 229.114 108.041L230.117 106.871Z" fill="white"/>
<path d="M272.245 99.766V120.83H264.304L262.716 116.651H262.381C260.459 119.994 256.865 121.582 251.682 121.582C247.921 121.582 244.995 120.579 242.739 118.573C240.565 116.567 239.479 113.976 239.479 110.883C239.479 107.289 240.816 104.447 243.407 102.524C245.999 100.602 249.927 99.5988 255.026 99.5988C257.283 99.5988 259.289 99.8496 261.128 100.351V99.2645C261.128 97.6763 260.543 96.5897 259.289 95.921C258.035 95.2523 256.196 94.918 253.772 94.918C252.351 94.918 250.93 95.0852 249.509 95.5031C248.088 95.921 247.002 96.2554 246.333 96.6733L245.163 97.2584L241.568 88.9833C241.986 88.7326 242.488 88.4818 243.24 88.1475C243.992 87.8131 245.581 87.3116 248.088 86.7265C250.596 86.1414 253.271 85.8906 256.196 85.8906C261.211 85.8906 265.223 87.1444 268.065 89.652C270.824 92.1596 272.245 95.5031 272.245 99.766ZM261.044 108.793V106.286C259.707 105.784 258.202 105.533 256.447 105.533C254.524 105.533 253.02 105.951 251.933 106.704C250.847 107.456 250.345 108.543 250.345 109.88C250.345 111.134 250.763 112.137 251.682 112.889C252.602 113.641 253.688 113.976 255.026 113.976C256.698 113.976 258.119 113.474 259.289 112.471C260.459 111.552 261.044 110.298 261.044 108.793Z" fill="white"/>
<path d="M300.497 86.6426V96.5894H298.742C296.568 96.5894 294.813 97.2581 293.559 98.5955C292.222 99.9329 291.637 101.855 291.637 104.279V120.83H279.935V86.6426H287.039L288.878 91.2398H289.38C291.302 88.1471 294.395 86.6426 298.825 86.6426H300.497Z" fill="white"/>
<path d="M327.245 89.736H327.746V71.5977H339.448V120.83H331.842L330.003 116.4H329.501C329.418 116.567 329.334 116.734 329.167 116.985C329 117.236 328.666 117.57 328.081 118.239C327.495 118.824 326.91 119.326 326.158 119.827C325.489 120.329 324.486 120.747 323.232 121.081C321.979 121.415 320.641 121.666 319.22 121.666C314.623 121.666 310.778 120.078 307.853 116.818C304.843 113.558 303.339 109.295 303.339 103.862C303.339 98.5126 304.843 94.2496 307.769 90.9062C310.694 87.5627 314.372 85.891 318.802 85.891C319.973 85.891 321.143 86.0581 322.146 86.3089C323.149 86.5597 323.985 86.894 324.57 87.3119C325.155 87.7299 325.657 88.0642 326.074 88.4822C326.492 88.9001 326.827 89.1508 326.994 89.4852L327.245 89.736ZM326.576 109.713C327.746 108.209 328.331 106.203 328.331 103.611C328.331 101.104 327.746 99.0977 326.576 97.5931C325.406 96.0885 323.734 95.4198 321.728 95.4198C319.722 95.4198 318.134 96.1721 316.963 97.6767C315.793 99.1812 315.208 101.187 315.208 103.611C315.208 106.035 315.793 108.041 317.047 109.63C318.301 111.218 319.889 111.97 321.812 111.97C323.818 111.97 325.406 111.218 326.576 109.713Z" fill="white"/>
<path d="M54 68.9229V80.9593L90.3602 117.152H102.815V105.701L65.7021 68.9229H54Z" fill="white"/>
<path d="M102.814 69.0064V93.9988C102.647 93.9988 102.564 93.9988 102.396 93.9988C95.4587 93.9988 89.8584 88.3985 89.8584 81.4608C89.8584 74.5232 95.4587 68.9229 102.396 68.9229C102.564 69.0064 102.647 69.0064 102.814 69.0064Z" fill="#FACB0A"/>
<path d="M66.6215 106.871C65.6185 112.639 60.6033 117.069 54.5015 117.069C54.3343 117.069 54.2507 117.069 54.0835 117.069V106.871H66.6215Z" fill="#EB1E24"/>
<path d="M66.6215 102.608H54.0835V92.4102C54.2507 92.4102 54.3343 92.4102 54.5015 92.4102C60.5197 92.4937 65.6185 96.8402 66.6215 102.608Z" fill="#EB1E24"/>
<path d="M62.398 140.58C63.9407 140.58 65.2753 140.875 66.402 141.464C67.5287 142.036 68.482 142.885 69.262 144.012L67.39 145.806C66.7313 144.801 65.986 144.081 65.154 143.648C64.3393 143.197 63.3687 142.972 62.242 142.972C61.41 142.972 60.7253 143.085 60.188 143.31C59.6507 143.535 59.252 143.839 58.992 144.22C58.7493 144.584 58.628 145 58.628 145.468C58.628 146.005 58.81 146.473 59.174 146.872C59.5553 147.271 60.2573 147.583 61.28 147.808L64.764 148.588C66.428 148.952 67.6067 149.507 68.3 150.252C68.9933 150.997 69.34 151.942 69.34 153.086C69.34 154.143 69.054 155.062 68.482 155.842C67.91 156.622 67.1127 157.22 66.09 157.636C65.0847 158.052 63.8973 158.26 62.528 158.26C61.3147 158.26 60.2227 158.104 59.252 157.792C58.2813 157.48 57.432 157.055 56.704 156.518C55.976 155.981 55.378 155.365 54.91 154.672L56.834 152.748C57.198 153.355 57.6573 153.901 58.212 154.386C58.7667 154.854 59.408 155.218 60.136 155.478C60.8813 155.738 61.7047 155.868 62.606 155.868C63.4033 155.868 64.088 155.773 64.66 155.582C65.2493 155.391 65.6913 155.114 65.986 154.75C66.298 154.369 66.454 153.918 66.454 153.398C66.454 152.895 66.2807 152.453 65.934 152.072C65.6047 151.691 64.9807 151.396 64.062 151.188L60.292 150.33C59.252 150.105 58.394 149.784 57.718 149.368C57.042 148.952 56.5393 148.449 56.21 147.86C55.8807 147.253 55.716 146.577 55.716 145.832C55.716 144.861 55.976 143.986 56.496 143.206C57.0333 142.409 57.8047 141.776 58.81 141.308C59.8153 140.823 61.0113 140.58 62.398 140.58ZM89.3756 145H92.3916L88.0236 158H84.9816L81.7056 148.354L78.6116 158H75.5696L71.2276 145H74.2176L77.1816 155.27L80.4056 145H83.1876L86.4116 155.27L89.3756 145ZM96.4858 142.816C95.8792 142.816 95.4112 142.669 95.0818 142.374C94.7698 142.062 94.6138 141.629 94.6138 141.074C94.6138 140.519 94.7698 140.095 95.0818 139.8C95.4112 139.505 95.8792 139.358 96.4858 139.358C97.0752 139.358 97.5258 139.505 97.8378 139.8C98.1672 140.095 98.3318 140.519 98.3318 141.074C98.3318 141.629 98.1672 142.062 97.8378 142.374C97.5258 142.669 97.0752 142.816 96.4858 142.816ZM97.8638 145V158H95.0818V145H97.8638ZM102.217 163.46V145H104.687L104.895 148.64L104.531 148.198C104.739 147.522 105.059 146.924 105.493 146.404C105.926 145.884 106.463 145.477 107.105 145.182C107.763 144.887 108.483 144.74 109.263 144.74C110.32 144.74 111.282 145.009 112.149 145.546C113.015 146.083 113.7 146.855 114.203 147.86C114.705 148.848 114.957 150.053 114.957 151.474C114.957 152.895 114.697 154.117 114.177 155.14C113.674 156.145 112.981 156.917 112.097 157.454C111.23 157.991 110.259 158.26 109.185 158.26C108.075 158.26 107.131 157.974 106.351 157.402C105.571 156.813 105.016 156.067 104.687 155.166L104.999 154.724V163.46H102.217ZM108.587 155.998C109.713 155.998 110.589 155.599 111.213 154.802C111.854 154.005 112.175 152.904 112.175 151.5C112.175 150.096 111.863 148.995 111.239 148.198C110.615 147.383 109.748 146.976 108.639 146.976C107.911 146.976 107.269 147.167 106.715 147.548C106.177 147.912 105.753 148.432 105.441 149.108C105.146 149.767 104.999 150.564 104.999 151.5C104.999 152.419 105.146 153.216 105.441 153.892C105.735 154.568 106.151 155.088 106.689 155.452C107.226 155.816 107.859 155.998 108.587 155.998ZM124.237 158.26C122.937 158.26 121.793 157.991 120.805 157.454C119.817 156.917 119.046 156.145 118.491 155.14C117.954 154.117 117.685 152.904 117.685 151.5C117.685 150.096 117.954 148.891 118.491 147.886C119.046 146.863 119.809 146.083 120.779 145.546C121.75 145.009 122.851 144.74 124.081 144.74C125.347 144.74 126.421 145 127.305 145.52C128.189 146.04 128.865 146.751 129.333 147.652C129.801 148.553 130.035 149.576 130.035 150.72C130.035 151.032 130.027 151.327 130.009 151.604C129.992 151.881 129.966 152.124 129.931 152.332H119.479V150.2H128.709L127.331 150.616C127.331 149.437 127.037 148.536 126.447 147.912C125.858 147.271 125.052 146.95 124.029 146.95C123.284 146.95 122.634 147.123 122.079 147.47C121.525 147.817 121.1 148.337 120.805 149.03C120.511 149.706 120.363 150.538 120.363 151.526C120.363 152.497 120.519 153.32 120.831 153.996C121.143 154.672 121.585 155.183 122.157 155.53C122.729 155.877 123.405 156.05 124.185 156.05C125.052 156.05 125.754 155.885 126.291 155.556C126.829 155.227 127.253 154.767 127.565 154.178L129.775 155.218C129.463 155.842 129.039 156.388 128.501 156.856C127.981 157.307 127.357 157.653 126.629 157.896C125.901 158.139 125.104 158.26 124.237 158.26ZM152.885 145L147.191 159.534C146.809 160.539 146.393 161.337 145.943 161.926C145.509 162.515 145.007 162.94 144.435 163.2C143.863 163.46 143.195 163.59 142.433 163.59C141.809 163.59 141.228 163.503 140.691 163.33C140.171 163.174 139.711 162.957 139.312 162.68L139.989 160.522C140.318 160.799 140.665 161.007 141.028 161.146C141.41 161.285 141.817 161.354 142.251 161.354C142.719 161.354 143.135 161.224 143.499 160.964C143.88 160.721 144.218 160.227 144.513 159.482L145.085 158.078L143.707 154.854L139.651 145H142.771L145.657 153.164L146.411 155.608L147.269 152.93L149.999 145H152.885ZM160.823 144.74C162.089 144.74 163.207 145.009 164.177 145.546C165.148 146.083 165.902 146.863 166.439 147.886C166.994 148.891 167.271 150.096 167.271 151.5C167.271 152.904 166.994 154.117 166.439 155.14C165.902 156.145 165.148 156.917 164.177 157.454C163.207 157.991 162.089 158.26 160.823 158.26C159.558 158.26 158.44 157.991 157.469 157.454C156.499 156.917 155.736 156.145 155.181 155.14C154.627 154.117 154.349 152.904 154.349 151.5C154.349 150.096 154.627 148.891 155.181 147.886C155.736 146.863 156.499 146.083 157.469 145.546C158.44 145.009 159.558 144.74 160.823 144.74ZM160.823 146.924C160.043 146.924 159.376 147.106 158.821 147.47C158.284 147.817 157.868 148.328 157.573 149.004C157.279 149.68 157.131 150.512 157.131 151.5C157.131 152.471 157.279 153.303 157.573 153.996C157.868 154.672 158.284 155.192 158.821 155.556C159.376 155.903 160.043 156.076 160.823 156.076C161.603 156.076 162.262 155.903 162.799 155.556C163.337 155.192 163.753 154.672 164.047 153.996C164.342 153.303 164.489 152.471 164.489 151.5C164.489 150.512 164.342 149.68 164.047 149.004C163.753 148.328 163.337 147.817 162.799 147.47C162.262 147.106 161.603 146.924 160.823 146.924ZM175.399 158.26C174.55 158.26 173.761 158.104 173.033 157.792C172.323 157.48 171.751 156.977 171.317 156.284C170.884 155.591 170.667 154.689 170.667 153.58V145H173.449V152.878C173.449 154.057 173.701 154.871 174.203 155.322C174.706 155.755 175.408 155.972 176.309 155.972C176.743 155.972 177.159 155.903 177.557 155.764C177.973 155.608 178.346 155.374 178.675 155.062C179.005 154.733 179.256 154.317 179.429 153.814C179.62 153.311 179.715 152.722 179.715 152.046V145H182.497V158H180.053L179.923 155.894C179.473 156.709 178.866 157.307 178.103 157.688C177.341 158.069 176.439 158.26 175.399 158.26ZM186.844 158V145H189.21L189.47 147.34C189.816 146.491 190.328 145.849 191.004 145.416C191.697 144.965 192.546 144.74 193.552 144.74C193.812 144.74 194.072 144.766 194.332 144.818C194.592 144.853 194.808 144.913 194.982 145L194.592 147.444C194.401 147.375 194.184 147.323 193.942 147.288C193.716 147.236 193.404 147.21 193.006 147.21C192.468 147.21 191.94 147.357 191.42 147.652C190.9 147.929 190.466 148.354 190.12 148.926C189.79 149.498 189.626 150.226 189.626 151.11V158H186.844ZM221.458 145H224.474L220.106 158H217.064L213.788 148.354L210.694 158H207.652L203.31 145H206.3L209.264 155.27L212.488 145H215.27L218.494 155.27L221.458 145ZM234.424 149.654C234.424 148.787 234.181 148.12 233.696 147.652C233.228 147.167 232.578 146.924 231.746 146.924C230.966 146.924 230.299 147.106 229.744 147.47C229.189 147.834 228.782 148.423 228.522 149.238L226.182 148.25C226.511 147.193 227.153 146.343 228.106 145.702C229.077 145.061 230.325 144.74 231.85 144.74C232.89 144.74 233.809 144.913 234.606 145.26C235.403 145.589 236.027 146.092 236.478 146.768C236.946 147.444 237.18 148.311 237.18 149.368V155.166C237.18 155.807 237.501 156.128 238.142 156.128C238.454 156.128 238.757 156.085 239.052 155.998L238.896 157.922C238.497 158.113 237.995 158.208 237.388 158.208C236.833 158.208 236.331 158.113 235.88 157.922C235.447 157.714 235.1 157.411 234.84 157.012C234.597 156.596 234.476 156.085 234.476 155.478V155.296L235.048 155.27C234.892 155.946 234.571 156.509 234.086 156.96C233.601 157.393 233.037 157.723 232.396 157.948C231.755 158.156 231.105 158.26 230.446 158.26C229.631 158.26 228.895 158.13 228.236 157.87C227.595 157.61 227.083 157.22 226.702 156.7C226.338 156.163 226.156 155.504 226.156 154.724C226.156 153.753 226.468 152.956 227.092 152.332C227.733 151.708 228.635 151.283 229.796 151.058L234.84 150.07L234.814 152.02L231.148 152.774C230.42 152.913 229.874 153.112 229.51 153.372C229.146 153.632 228.964 154.013 228.964 154.516C228.964 155.001 229.146 155.391 229.51 155.686C229.891 155.963 230.394 156.102 231.018 156.102C231.451 156.102 231.867 156.05 232.266 155.946C232.682 155.842 233.055 155.677 233.384 155.452C233.713 155.209 233.965 154.906 234.138 154.542C234.329 154.161 234.424 153.71 234.424 153.19V149.654ZM252.365 145L246.671 159.534C246.29 160.539 245.874 161.337 245.423 161.926C244.99 162.515 244.487 162.94 243.915 163.2C243.343 163.46 242.676 163.59 241.913 163.59C241.289 163.59 240.708 163.503 240.171 163.33C239.651 163.174 239.192 162.957 238.793 162.68L239.469 160.522C239.798 160.799 240.145 161.007 240.509 161.146C240.89 161.285 241.298 161.354 241.731 161.354C242.199 161.354 242.615 161.224 242.979 160.964C243.36 160.721 243.698 160.227 243.993 159.482L244.565 158.078L243.187 154.854L239.131 145H242.251L245.137 153.164L245.891 155.608L246.749 152.93L249.479 145H252.365ZM265.948 141.178V154.1C265.948 154.741 266.113 155.209 266.442 155.504C266.789 155.799 267.248 155.946 267.82 155.946C268.288 155.946 268.695 155.877 269.042 155.738C269.389 155.582 269.709 155.374 270.004 155.114L270.628 157.142C270.229 157.489 269.735 157.766 269.146 157.974C268.574 158.165 267.933 158.26 267.222 158.26C266.477 158.26 265.792 158.139 265.168 157.896C264.544 157.653 264.059 157.263 263.712 156.726C263.365 156.171 263.183 155.452 263.166 154.568V141.958L265.948 141.178ZM270.42 145V147.184H260.67V145H270.42ZM278.814 144.74C280.079 144.74 281.197 145.009 282.168 145.546C283.138 146.083 283.892 146.863 284.43 147.886C284.984 148.891 285.262 150.096 285.262 151.5C285.262 152.904 284.984 154.117 284.43 155.14C283.892 156.145 283.138 156.917 282.168 157.454C281.197 157.991 280.079 158.26 278.814 158.26C277.548 158.26 276.43 157.991 275.46 157.454C274.489 156.917 273.726 156.145 273.172 155.14C272.617 154.117 272.34 152.904 272.34 151.5C272.34 150.096 272.617 148.891 273.172 147.886C273.726 146.863 274.489 146.083 275.46 145.546C276.43 145.009 277.548 144.74 278.814 144.74ZM278.814 146.924C278.034 146.924 277.366 147.106 276.812 147.47C276.274 147.817 275.858 148.328 275.564 149.004C275.269 149.68 275.122 150.512 275.122 151.5C275.122 152.471 275.269 153.303 275.564 153.996C275.858 154.672 276.274 155.192 276.812 155.556C277.366 155.903 278.034 156.076 278.814 156.076C279.594 156.076 280.252 155.903 280.79 155.556C281.327 155.192 281.743 154.672 282.038 153.996C282.332 153.303 282.48 152.471 282.48 151.5C282.48 150.512 282.332 149.68 282.038 149.004C281.743 148.328 281.327 147.817 280.79 147.47C280.252 147.106 279.594 146.924 278.814 146.924ZM311.673 140.84V158H308.865V140.84H311.673ZM300.389 140.84V158H297.607V140.84H300.389ZM310.269 148.12V150.512H299.011V148.12H310.269ZM321.903 158.26C320.603 158.26 319.459 157.991 318.471 157.454C317.483 156.917 316.712 156.145 316.157 155.14C315.62 154.117 315.351 152.904 315.351 151.5C315.351 150.096 315.62 148.891 316.157 147.886C316.712 146.863 317.475 146.083 318.445 145.546C319.416 145.009 320.517 144.74 321.747 144.74C323.013 144.74 324.087 145 324.971 145.52C325.855 146.04 326.531 146.751 326.999 147.652C327.467 148.553 327.701 149.576 327.701 150.72C327.701 151.032 327.693 151.327 327.675 151.604C327.658 151.881 327.632 152.124 327.597 152.332H317.145V150.2H326.375L324.997 150.616C324.997 149.437 324.703 148.536 324.113 147.912C323.524 147.271 322.718 146.95 321.695 146.95C320.95 146.95 320.3 147.123 319.745 147.47C319.191 147.817 318.766 148.337 318.471 149.03C318.177 149.706 318.029 150.538 318.029 151.526C318.029 152.497 318.185 153.32 318.497 153.996C318.809 154.672 319.251 155.183 319.823 155.53C320.395 155.877 321.071 156.05 321.851 156.05C322.718 156.05 323.42 155.885 323.957 155.556C324.495 155.227 324.919 154.767 325.231 154.178L327.441 155.218C327.129 155.842 326.705 156.388 326.167 156.856C325.647 157.307 325.023 157.653 324.295 157.896C323.567 158.139 322.77 158.26 321.903 158.26ZM338.729 149.654C338.729 148.787 338.486 148.12 338.001 147.652C337.533 147.167 336.883 146.924 336.051 146.924C335.271 146.924 334.603 147.106 334.049 147.47C333.494 147.834 333.087 148.423 332.827 149.238L330.487 148.25C330.816 147.193 331.457 146.343 332.411 145.702C333.381 145.061 334.629 144.74 336.155 144.74C337.195 144.74 338.113 144.913 338.911 145.26C339.708 145.589 340.332 146.092 340.783 146.768C341.251 147.444 341.485 148.311 341.485 149.368V155.166C341.485 155.807 341.805 156.128 342.447 156.128C342.759 156.128 343.062 156.085 343.357 155.998L343.201 157.922C342.802 158.113 342.299 158.208 341.693 158.208C341.138 158.208 340.635 158.113 340.185 157.922C339.751 157.714 339.405 157.411 339.145 157.012C338.902 156.596 338.781 156.085 338.781 155.478V155.296L339.353 155.27C339.197 155.946 338.876 156.509 338.391 156.96C337.905 157.393 337.342 157.723 336.701 157.948C336.059 158.156 335.409 158.26 334.751 158.26C333.936 158.26 333.199 158.13 332.541 157.87C331.899 157.61 331.388 157.22 331.007 156.7C330.643 156.163 330.461 155.504 330.461 154.724C330.461 153.753 330.773 152.956 331.397 152.332C332.038 151.708 332.939 151.283 334.101 151.058L339.145 150.07L339.119 152.02L335.453 152.774C334.725 152.913 334.179 153.112 333.815 153.372C333.451 153.632 333.269 154.013 333.269 154.516C333.269 155.001 333.451 155.391 333.815 155.686C334.196 155.963 334.699 156.102 335.323 156.102C335.756 156.102 336.172 156.05 336.571 155.946C336.987 155.842 337.359 155.677 337.689 155.452C338.018 155.209 338.269 154.906 338.443 154.542C338.633 154.161 338.729 153.71 338.729 153.19V149.654ZM348.747 139.15V154.36C348.747 155.001 348.859 155.443 349.085 155.686C349.31 155.929 349.683 156.05 350.203 156.05C350.515 156.05 350.775 156.033 350.983 155.998C351.208 155.946 351.485 155.859 351.815 155.738L351.503 157.818C351.208 157.957 350.87 158.061 350.489 158.13C350.107 158.217 349.726 158.26 349.345 158.26C348.183 158.26 347.325 157.965 346.771 157.376C346.233 156.769 345.965 155.842 345.965 154.594V139.15H348.747ZM357.456 141.178V154.1C357.456 154.741 357.621 155.209 357.95 155.504C358.297 155.799 358.756 155.946 359.328 155.946C359.796 155.946 360.203 155.877 360.55 155.738C360.897 155.582 361.217 155.374 361.512 155.114L362.136 157.142C361.737 157.489 361.243 157.766 360.654 157.974C360.082 158.165 359.441 158.26 358.73 158.26C357.985 158.26 357.3 158.139 356.676 157.896C356.052 157.653 355.567 157.263 355.22 156.726C354.873 156.171 354.691 155.452 354.674 154.568V141.958L357.456 141.178ZM361.928 145V147.184H352.178V145H361.928ZM364.781 158V139.15H367.563V147.08C367.996 146.265 368.577 145.676 369.305 145.312C370.05 144.931 370.874 144.74 371.775 144.74C372.694 144.74 373.517 144.922 374.245 145.286C374.99 145.633 375.58 146.161 376.013 146.872C376.446 147.583 376.663 148.484 376.663 149.576V158H373.881V150.46C373.881 149.177 373.612 148.285 373.075 147.782C372.555 147.279 371.896 147.028 371.099 147.028C370.544 147.028 369.99 147.167 369.435 147.444C368.898 147.704 368.447 148.137 368.083 148.744C367.736 149.333 367.563 150.131 367.563 151.136V158H364.781ZM393.884 158.26C392.722 158.26 391.717 158.069 390.868 157.688C390.036 157.289 389.386 156.743 388.918 156.05C388.467 155.357 388.242 154.542 388.242 153.606C388.242 153.069 388.311 152.557 388.45 152.072C388.606 151.569 388.848 151.093 389.178 150.642C389.524 150.174 389.992 149.749 390.582 149.368C391.171 148.969 391.908 148.623 392.792 148.328L393.806 147.886C394.499 147.487 395.054 147.123 395.47 146.794C395.903 146.465 396.215 146.118 396.406 145.754C396.614 145.39 396.718 144.965 396.718 144.48C396.718 143.908 396.544 143.466 396.198 143.154C395.851 142.842 395.392 142.686 394.82 142.686C394.144 142.686 393.632 142.877 393.286 143.258C392.956 143.622 392.792 144.064 392.792 144.584C392.792 144.896 392.835 145.199 392.922 145.494C393.026 145.789 393.216 146.153 393.494 146.586C393.788 147.019 394.213 147.591 394.768 148.302C395.322 148.995 396.076 149.914 397.03 151.058C397.966 152.185 398.746 153.103 399.37 153.814C400.011 154.507 400.557 155.036 401.008 155.4C401.458 155.747 401.874 155.981 402.256 156.102C402.654 156.206 403.096 156.249 403.582 156.232L403.114 158.26C402.559 158.26 402.039 158.199 401.554 158.078C401.086 157.974 400.574 157.731 400.02 157.35C399.482 156.969 398.841 156.397 398.096 155.634C397.368 154.871 396.466 153.857 395.392 152.592C394.386 151.413 393.546 150.425 392.87 149.628C392.211 148.813 391.691 148.129 391.31 147.574C390.946 147.002 390.686 146.491 390.53 146.04C390.374 145.572 390.296 145.078 390.296 144.558C390.296 143.917 390.46 143.293 390.79 142.686C391.119 142.062 391.613 141.559 392.272 141.178C392.948 140.779 393.823 140.58 394.898 140.58C395.764 140.58 396.501 140.736 397.108 141.048C397.714 141.36 398.182 141.793 398.512 142.348C398.841 142.885 399.006 143.509 399.006 144.22C399.006 144.879 398.884 145.494 398.642 146.066C398.399 146.638 397.966 147.184 397.342 147.704C396.735 148.224 395.868 148.735 394.742 149.238L393.884 149.602C393.086 150.001 392.462 150.382 392.012 150.746C391.561 151.11 391.24 151.5 391.05 151.916C390.859 152.315 390.764 152.8 390.764 153.372C390.764 153.961 390.911 154.473 391.206 154.906C391.518 155.322 391.934 155.643 392.454 155.868C392.974 156.093 393.554 156.206 394.196 156.206C395.114 156.206 395.894 156.05 396.536 155.738C397.177 155.409 397.775 154.958 398.33 154.386L398.694 153.996C399.11 153.337 399.43 152.592 399.656 151.76C399.898 150.928 399.976 149.983 399.89 148.926L402.048 149.056C402.082 150.165 401.935 151.24 401.606 152.28C401.294 153.32 400.808 154.256 400.15 155.088L399.63 155.66C399.006 156.457 398.217 157.09 397.264 157.558C396.31 158.026 395.184 158.26 393.884 158.26ZM417.196 158L412.152 140.84H415.09L418.938 155.582L422.682 140.84H425.542L429.312 155.608L433.134 140.84H435.968L430.95 158H427.674L424.944 147.704L424.086 143.752H424.06L423.202 147.704L420.498 158H417.196ZM443.524 158.26C442.224 158.26 441.08 157.991 440.092 157.454C439.104 156.917 438.333 156.145 437.778 155.14C437.241 154.117 436.972 152.904 436.972 151.5C436.972 150.096 437.241 148.891 437.778 147.886C438.333 146.863 439.096 146.083 440.066 145.546C441.037 145.009 442.138 144.74 443.368 144.74C444.634 144.74 445.708 145 446.592 145.52C447.476 146.04 448.152 146.751 448.62 147.652C449.088 148.553 449.322 149.576 449.322 150.72C449.322 151.032 449.314 151.327 449.296 151.604C449.279 151.881 449.253 152.124 449.218 152.332H438.766V150.2H447.996L446.618 150.616C446.618 149.437 446.324 148.536 445.734 147.912C445.145 147.271 444.339 146.95 443.316 146.95C442.571 146.95 441.921 147.123 441.366 147.47C440.812 147.817 440.387 148.337 440.092 149.03C439.798 149.706 439.65 150.538 439.65 151.526C439.65 152.497 439.806 153.32 440.118 153.996C440.43 154.672 440.872 155.183 441.444 155.53C442.016 155.877 442.692 156.05 443.472 156.05C444.339 156.05 445.041 155.885 445.578 155.556C446.116 155.227 446.54 154.767 446.852 154.178L449.062 155.218C448.75 155.842 448.326 156.388 447.788 156.856C447.268 157.307 446.644 157.653 445.916 157.896C445.188 158.139 444.391 158.26 443.524 158.26ZM460.35 149.654C460.35 148.787 460.107 148.12 459.622 147.652C459.154 147.167 458.504 146.924 457.672 146.924C456.892 146.924 456.224 147.106 455.67 147.47C455.115 147.834 454.708 148.423 454.448 149.238L452.108 148.25C452.437 147.193 453.078 146.343 454.032 145.702C455.002 145.061 456.25 144.74 457.776 144.74C458.816 144.74 459.734 144.913 460.532 145.26C461.329 145.589 461.953 146.092 462.404 146.768C462.872 147.444 463.106 148.311 463.106 149.368V155.166C463.106 155.807 463.426 156.128 464.068 156.128C464.38 156.128 464.683 156.085 464.978 155.998L464.822 157.922C464.423 158.113 463.92 158.208 463.314 158.208C462.759 158.208 462.256 158.113 461.806 157.922C461.372 157.714 461.026 157.411 460.766 157.012C460.523 156.596 460.402 156.085 460.402 155.478V155.296L460.974 155.27C460.818 155.946 460.497 156.509 460.012 156.96C459.526 157.393 458.963 157.723 458.322 157.948C457.68 158.156 457.03 158.26 456.372 158.26C455.557 158.26 454.82 158.13 454.162 157.87C453.52 157.61 453.009 157.22 452.628 156.7C452.264 156.163 452.082 155.504 452.082 154.724C452.082 153.753 452.394 152.956 453.018 152.332C453.659 151.708 454.56 151.283 455.722 151.058L460.766 150.07L460.74 152.02L457.074 152.774C456.346 152.913 455.8 153.112 455.436 153.372C455.072 153.632 454.89 154.013 454.89 154.516C454.89 155.001 455.072 155.391 455.436 155.686C455.817 155.963 456.32 156.102 456.944 156.102C457.377 156.102 457.793 156.05 458.192 155.946C458.608 155.842 458.98 155.677 459.31 155.452C459.639 155.209 459.89 154.906 460.064 154.542C460.254 154.161 460.35 153.71 460.35 153.19V149.654ZM470.368 139.15V154.36C470.368 155.001 470.481 155.443 470.706 155.686C470.931 155.929 471.304 156.05 471.824 156.05C472.136 156.05 472.396 156.033 472.604 155.998C472.829 155.946 473.107 155.859 473.436 155.738L473.124 157.818C472.829 157.957 472.491 158.061 472.11 158.13C471.729 158.217 471.347 158.26 470.966 158.26C469.805 158.26 468.947 157.965 468.392 157.376C467.855 156.769 467.586 155.842 467.586 154.594V139.15H470.368ZM479.077 141.178V154.1C479.077 154.741 479.242 155.209 479.571 155.504C479.918 155.799 480.377 155.946 480.949 155.946C481.417 155.946 481.824 155.877 482.171 155.738C482.518 155.582 482.838 155.374 483.133 155.114L483.757 157.142C483.358 157.489 482.864 157.766 482.275 157.974C481.703 158.165 481.062 158.26 480.351 158.26C479.606 158.26 478.921 158.139 478.297 157.896C477.673 157.653 477.188 157.263 476.841 156.726C476.494 156.171 476.312 155.452 476.295 154.568V141.958L479.077 141.178ZM483.549 145V147.184H473.799V145H483.549ZM486.402 158V139.15H489.184V147.08C489.617 146.265 490.198 145.676 490.926 145.312C491.671 144.931 492.495 144.74 493.396 144.74C494.315 144.74 495.138 144.922 495.866 145.286C496.611 145.633 497.201 146.161 497.634 146.872C498.067 147.583 498.284 148.484 498.284 149.576V158H495.502V150.46C495.502 149.177 495.233 148.285 494.696 147.782C494.176 147.279 493.517 147.028 492.72 147.028C492.165 147.028 491.611 147.167 491.056 147.444C490.519 147.704 490.068 148.137 489.704 148.744C489.357 149.333 489.184 150.131 489.184 151.136V158H486.402Z" fill="white"/>
<path d="M62.2 233.2C60.84 233.2 59.6467 232.9 58.62 232.3C57.5933 231.7 56.7933 230.887 56.22 229.86C55.6467 228.833 55.36 227.68 55.36 226.4C55.36 225.107 55.6467 223.953 56.22 222.94C56.7933 221.913 57.5933 221.1 58.62 220.5C59.6467 219.9 60.84 219.6 62.2 219.6C63.56 219.6 64.7533 219.9 65.78 220.5C66.8067 221.1 67.6067 221.913 68.18 222.94C68.7533 223.953 69.04 225.107 69.04 226.4C69.04 227.68 68.7533 228.833 68.18 229.86C67.6067 230.887 66.8067 231.7 65.78 232.3C64.7533 232.9 63.56 233.2 62.2 233.2ZM62.2 231.9C63.28 231.9 64.2267 231.66 65.04 231.18C65.8533 230.687 66.4867 230.027 66.94 229.2C67.3933 228.36 67.62 227.427 67.62 226.4C67.62 225.373 67.3933 224.447 66.94 223.62C66.4867 222.78 65.8533 222.12 65.04 221.64C64.2267 221.147 63.28 220.9 62.2 220.9C61.1333 220.9 60.1867 221.147 59.36 221.64C58.5467 222.12 57.9133 222.78 57.46 223.62C57.0067 224.447 56.78 225.373 56.78 226.4C56.78 227.427 57.0067 228.36 57.46 229.2C57.9133 230.027 58.5467 230.687 59.36 231.18C60.1867 231.66 61.1333 231.9 62.2 231.9ZM62.34 230.14C61.2067 230.14 60.3133 229.813 59.66 229.16C59.02 228.493 58.7 227.587 58.7 226.44C58.7 225.293 59.02 224.393 59.66 223.74C60.3133 223.073 61.2067 222.74 62.34 222.74C63.1267 222.74 63.78 222.913 64.3 223.26C64.82 223.593 65.2067 224.053 65.46 224.64L64.3 225.22C64.1267 224.793 63.88 224.473 63.56 224.26C63.24 224.047 62.8267 223.94 62.32 223.94C61.6133 223.94 61.0533 224.16 60.64 224.6C60.24 225.04 60.04 225.653 60.04 226.44C60.04 227.227 60.24 227.84 60.64 228.28C61.0533 228.72 61.6133 228.94 62.32 228.94C62.8533 228.94 63.2933 228.833 63.64 228.62C64 228.393 64.2667 228.053 64.44 227.6L65.54 228.04C65.2867 228.693 64.8933 229.207 64.36 229.58C63.8267 229.953 63.1533 230.14 62.34 230.14ZM89.7427 219.8V233H87.7627L82.2427 224.16L80.8427 221.68H80.8227L80.9027 223.68V233H79.3827V219.8H81.3627L86.8627 228.6L88.2827 231.14H88.3027L88.2227 229.12V219.8H89.7427ZM94.5702 221.08C94.2102 221.08 93.9168 220.973 93.6902 220.76C93.4768 220.533 93.3702 220.24 93.3702 219.88C93.3702 219.52 93.4768 219.233 93.6902 219.02C93.9168 218.793 94.2102 218.68 94.5702 218.68C94.9302 218.68 95.2168 218.793 95.4302 219.02C95.6568 219.233 95.7702 219.52 95.7702 219.88C95.7702 220.24 95.6568 220.533 95.4302 220.76C95.2168 220.973 94.9302 221.08 94.5702 221.08ZM95.3702 223V233H93.7702V223H95.3702ZM103.143 218.3C103.489 218.3 103.816 218.34 104.123 218.42C104.429 218.5 104.669 218.613 104.843 218.76L104.423 220.06C104.263 219.953 104.089 219.88 103.903 219.84C103.716 219.787 103.509 219.76 103.283 219.76C102.709 219.76 102.263 219.9 101.943 220.18C101.623 220.447 101.463 220.88 101.463 221.48V223V223.52V233H99.8627V221.32C99.8627 220.88 99.9293 220.473 100.063 220.1C100.196 219.727 100.396 219.407 100.663 219.14C100.943 218.873 101.289 218.667 101.703 218.52C102.116 218.373 102.596 218.3 103.143 218.3ZM104.803 223V224.38H97.8627V223H104.803ZM110.841 233.2C109.894 233.2 109.047 232.993 108.301 232.58C107.567 232.167 106.994 231.573 106.581 230.8C106.167 230.013 105.961 229.08 105.961 228C105.961 226.92 106.167 225.993 106.581 225.22C106.994 224.433 107.561 223.833 108.281 223.42C109.001 223.007 109.821 222.8 110.741 222.8C111.674 222.8 112.467 223 113.121 223.4C113.787 223.8 114.294 224.347 114.641 225.04C114.987 225.72 115.161 226.487 115.161 227.34C115.161 227.567 115.154 227.773 115.141 227.96C115.127 228.147 115.107 228.313 115.081 228.46H107.001V227.04H114.381L113.561 227.2C113.561 226.24 113.294 225.5 112.761 224.98C112.241 224.46 111.554 224.2 110.701 224.2C110.047 224.2 109.481 224.353 109.001 224.66C108.534 224.953 108.167 225.387 107.901 225.96C107.647 226.52 107.521 227.2 107.521 228C107.521 228.787 107.654 229.467 107.921 230.04C108.187 230.613 108.561 231.053 109.041 231.36C109.534 231.653 110.121 231.8 110.801 231.8C111.534 231.8 112.127 231.66 112.581 231.38C113.047 231.1 113.421 230.72 113.701 230.24L114.961 230.98C114.707 231.433 114.381 231.827 113.981 232.16C113.594 232.493 113.134 232.753 112.601 232.94C112.081 233.113 111.494 233.2 110.841 233.2ZM135.68 219.8V233H134.08V219.8H135.68ZM126.92 219.8V233H125.32V219.8H126.92ZM134.82 225.56V227.06H126.16V225.56H134.82ZM143.731 233.2C142.785 233.2 141.938 232.993 141.191 232.58C140.458 232.167 139.885 231.573 139.471 230.8C139.058 230.013 138.851 229.08 138.851 228C138.851 226.92 139.058 225.993 139.471 225.22C139.885 224.433 140.451 223.833 141.171 223.42C141.891 223.007 142.711 222.8 143.631 222.8C144.565 222.8 145.358 223 146.011 223.4C146.678 223.8 147.185 224.347 147.531 225.04C147.878 225.72 148.051 226.487 148.051 227.34C148.051 227.567 148.045 227.773 148.031 227.96C148.018 228.147 147.998 228.313 147.971 228.46H139.891V227.04H147.271L146.451 227.2C146.451 226.24 146.185 225.5 145.651 224.98C145.131 224.46 144.445 224.2 143.591 224.2C142.938 224.2 142.371 224.353 141.891 224.66C141.425 224.953 141.058 225.387 140.791 225.96C140.538 226.52 140.411 227.2 140.411 228C140.411 228.787 140.545 229.467 140.811 230.04C141.078 230.613 141.451 231.053 141.931 231.36C142.425 231.653 143.011 231.8 143.691 231.8C144.425 231.8 145.018 231.66 145.471 231.38C145.938 231.1 146.311 230.72 146.591 230.24L147.851 230.98C147.598 231.433 147.271 231.827 146.871 232.16C146.485 232.493 146.025 232.753 145.491 232.94C144.971 233.113 144.385 233.2 143.731 233.2ZM156.934 226.54C156.934 225.793 156.734 225.22 156.334 224.82C155.934 224.407 155.368 224.2 154.634 224.2C153.941 224.2 153.354 224.353 152.874 224.66C152.394 224.953 152.041 225.433 151.814 226.1L150.514 225.3C150.781 224.553 151.274 223.953 151.994 223.5C152.714 223.033 153.608 222.8 154.674 222.8C155.394 222.8 156.048 222.927 156.634 223.18C157.221 223.42 157.681 223.793 158.014 224.3C158.361 224.793 158.534 225.433 158.534 226.22V231.06C158.534 231.54 158.788 231.78 159.294 231.78C159.548 231.78 159.794 231.747 160.034 231.68L159.954 232.94C159.688 233.073 159.341 233.14 158.914 233.14C158.528 233.14 158.181 233.067 157.874 232.92C157.568 232.773 157.328 232.553 157.154 232.26C156.981 231.953 156.894 231.573 156.894 231.12V230.92L157.294 230.98C157.134 231.5 156.861 231.927 156.474 232.26C156.088 232.58 155.654 232.82 155.174 232.98C154.694 233.127 154.221 233.2 153.754 233.2C153.168 233.2 152.621 233.1 152.114 232.9C151.608 232.7 151.201 232.4 150.894 232C150.601 231.587 150.454 231.08 150.454 230.48C150.454 229.733 150.701 229.12 151.194 228.64C151.701 228.147 152.401 227.813 153.294 227.64L157.254 226.86V228.18L154.034 228.84C153.381 228.973 152.894 229.16 152.574 229.4C152.254 229.64 152.094 229.973 152.094 230.4C152.094 230.813 152.254 231.153 152.574 231.42C152.908 231.673 153.374 231.8 153.974 231.8C154.361 231.8 154.728 231.753 155.074 231.66C155.434 231.553 155.754 231.4 156.034 231.2C156.314 230.987 156.534 230.727 156.694 230.42C156.854 230.1 156.934 229.727 156.934 229.3V226.54ZM163.943 218.4V230.46C163.943 230.967 164.036 231.32 164.223 231.52C164.409 231.707 164.709 231.8 165.123 231.8C165.389 231.8 165.609 231.78 165.783 231.74C165.956 231.7 166.189 231.627 166.483 231.52L166.223 232.92C166.009 233.013 165.776 233.08 165.523 233.12C165.269 233.173 165.009 233.2 164.743 233.2C163.929 233.2 163.323 232.98 162.923 232.54C162.536 232.1 162.343 231.427 162.343 230.52V218.4H163.943ZM170.505 220.16V230.24C170.505 230.733 170.645 231.1 170.925 231.34C171.205 231.58 171.565 231.7 172.005 231.7C172.392 231.7 172.725 231.633 173.005 231.5C173.285 231.367 173.538 231.187 173.765 230.96L174.325 232.3C174.018 232.58 173.652 232.8 173.225 232.96C172.812 233.12 172.332 233.2 171.785 233.2C171.278 233.2 170.805 233.113 170.365 232.94C169.925 232.753 169.572 232.467 169.305 232.08C169.052 231.68 168.918 231.16 168.905 230.52V220.6L170.505 220.16ZM174.145 223V224.38H166.905V223H174.145ZM176.524 233V218.4H178.124V224.5C178.471 223.9 178.931 223.467 179.504 223.2C180.077 222.933 180.704 222.8 181.384 222.8C182.104 222.8 182.757 222.94 183.344 223.22C183.931 223.487 184.397 223.9 184.744 224.46C185.104 225.02 185.284 225.733 185.284 226.6V233H183.684V227.16C183.684 226.053 183.444 225.287 182.964 224.86C182.497 224.42 181.917 224.2 181.224 224.2C180.744 224.2 180.264 224.313 179.784 224.54C179.304 224.767 178.904 225.14 178.584 225.66C178.277 226.167 178.124 226.847 178.124 227.7V233H176.524ZM193.047 222.8C193.74 222.8 194.347 222.907 194.867 223.12C195.4 223.333 195.86 223.64 196.247 224.04C196.634 224.44 196.947 224.913 197.187 225.46L195.667 226.18C195.454 225.54 195.127 225.053 194.687 224.72C194.26 224.373 193.7 224.2 193.007 224.2C192.34 224.2 191.767 224.353 191.287 224.66C190.807 224.953 190.44 225.387 190.187 225.96C189.934 226.52 189.807 227.2 189.807 228C189.807 228.787 189.934 229.467 190.187 230.04C190.44 230.613 190.807 231.053 191.287 231.36C191.767 231.653 192.34 231.8 193.007 231.8C193.527 231.8 193.974 231.72 194.347 231.56C194.734 231.4 195.047 231.167 195.287 230.86C195.54 230.553 195.714 230.18 195.807 229.74L197.287 230.26C197.06 230.873 196.747 231.4 196.347 231.84C195.96 232.28 195.487 232.62 194.927 232.86C194.38 233.087 193.754 233.2 193.047 233.2C192.114 233.2 191.28 232.993 190.547 232.58C189.814 232.167 189.24 231.573 188.827 230.8C188.414 230.013 188.207 229.08 188.207 228C188.207 226.92 188.414 225.993 188.827 225.22C189.24 224.433 189.814 223.833 190.547 223.42C191.28 223.007 192.114 222.8 193.047 222.8ZM205.938 226.54C205.938 225.793 205.738 225.22 205.338 224.82C204.938 224.407 204.372 224.2 203.638 224.2C202.945 224.2 202.358 224.353 201.878 224.66C201.398 224.953 201.045 225.433 200.818 226.1L199.518 225.3C199.785 224.553 200.278 223.953 200.998 223.5C201.718 223.033 202.612 222.8 203.678 222.8C204.398 222.8 205.052 222.927 205.638 223.18C206.225 223.42 206.685 223.793 207.018 224.3C207.365 224.793 207.538 225.433 207.538 226.22V231.06C207.538 231.54 207.792 231.78 208.298 231.78C208.552 231.78 208.798 231.747 209.038 231.68L208.958 232.94C208.692 233.073 208.345 233.14 207.918 233.14C207.532 233.14 207.185 233.067 206.878 232.92C206.572 232.773 206.332 232.553 206.158 232.26C205.985 231.953 205.898 231.573 205.898 231.12V230.92L206.298 230.98C206.138 231.5 205.865 231.927 205.478 232.26C205.092 232.58 204.658 232.82 204.178 232.98C203.698 233.127 203.225 233.2 202.758 233.2C202.172 233.2 201.625 233.1 201.118 232.9C200.612 232.7 200.205 232.4 199.898 232C199.605 231.587 199.458 231.08 199.458 230.48C199.458 229.733 199.705 229.12 200.198 228.64C200.705 228.147 201.405 227.813 202.298 227.64L206.258 226.86V228.18L203.038 228.84C202.385 228.973 201.898 229.16 201.578 229.4C201.258 229.64 201.098 229.973 201.098 230.4C201.098 230.813 201.258 231.153 201.578 231.42C201.912 231.673 202.378 231.8 202.978 231.8C203.365 231.8 203.732 231.753 204.078 231.66C204.438 231.553 204.758 231.4 205.038 231.2C205.318 230.987 205.538 230.727 205.698 230.42C205.858 230.1 205.938 229.727 205.938 229.3V226.54ZM211.426 233V223H212.726L212.946 224.64C213.226 224.027 213.633 223.567 214.166 223.26C214.713 222.953 215.373 222.8 216.146 222.8C216.32 222.8 216.506 222.813 216.706 222.84C216.92 222.867 217.1 222.92 217.246 223L216.966 224.46C216.82 224.407 216.66 224.367 216.486 224.34C216.313 224.313 216.066 224.3 215.746 224.3C215.333 224.3 214.913 224.42 214.486 224.66C214.073 224.9 213.726 225.267 213.446 225.76C213.166 226.24 213.026 226.853 213.026 227.6V233H211.426ZM223.458 233.2C222.511 233.2 221.665 232.993 220.918 232.58C220.185 232.167 219.611 231.573 219.198 230.8C218.785 230.013 218.578 229.08 218.578 228C218.578 226.92 218.785 225.993 219.198 225.22C219.611 224.433 220.178 223.833 220.898 223.42C221.618 223.007 222.438 222.8 223.358 222.8C224.291 222.8 225.085 223 225.738 223.4C226.405 223.8 226.911 224.347 227.258 225.04C227.605 225.72 227.778 226.487 227.778 227.34C227.778 227.567 227.771 227.773 227.758 227.96C227.745 228.147 227.725 228.313 227.698 228.46H219.618V227.04H226.998L226.178 227.2C226.178 226.24 225.911 225.5 225.378 224.98C224.858 224.46 224.171 224.2 223.318 224.2C222.665 224.2 222.098 224.353 221.618 224.66C221.151 224.953 220.785 225.387 220.518 225.96C220.265 226.52 220.138 227.2 220.138 228C220.138 228.787 220.271 229.467 220.538 230.04C220.805 230.613 221.178 231.053 221.658 231.36C222.151 231.653 222.738 231.8 223.418 231.8C224.151 231.8 224.745 231.66 225.198 231.38C225.665 231.1 226.038 230.72 226.318 230.24L227.578 230.98C227.325 231.433 226.998 231.827 226.598 232.16C226.211 232.493 225.751 232.753 225.218 232.94C224.698 233.113 224.111 233.2 223.458 233.2ZM242.597 219.8C243.491 219.8 244.264 219.967 244.917 220.3C245.584 220.62 246.104 221.08 246.477 221.68C246.851 222.28 247.037 222.993 247.037 223.82C247.037 224.647 246.851 225.36 246.477 225.96C246.104 226.56 245.584 227.027 244.917 227.36C244.264 227.68 243.491 227.84 242.597 227.84H239.537V233H237.937V219.8H242.597ZM242.357 226.34C243.397 226.34 244.157 226.127 244.637 225.7C245.117 225.26 245.357 224.633 245.357 223.82C245.357 222.993 245.117 222.367 244.637 221.94C244.157 221.513 243.397 221.3 242.357 221.3H239.537V226.34H242.357ZM256.464 223H258.144L253.984 233H252.384L248.224 223H250.044L253.204 231.38L256.464 223ZM262.595 220.16V230.24C262.595 230.733 262.735 231.1 263.015 231.34C263.295 231.58 263.655 231.7 264.095 231.7C264.482 231.7 264.815 231.633 265.095 231.5C265.375 231.367 265.628 231.187 265.855 230.96L266.415 232.3C266.108 232.58 265.742 232.8 265.315 232.96C264.902 233.12 264.422 233.2 263.875 233.2C263.368 233.2 262.895 233.113 262.455 232.94C262.015 232.753 261.662 232.467 261.395 232.08C261.142 231.68 261.008 231.16 260.995 230.52V220.6L262.595 220.16ZM266.235 223V224.38H258.995V223H266.235ZM277.33 231.5H284.89V233H275.73V219.8H277.33V231.5ZM288.865 220.16V230.24C288.865 230.733 289.005 231.1 289.285 231.34C289.565 231.58 289.925 231.7 290.365 231.7C290.751 231.7 291.085 231.633 291.365 231.5C291.645 231.367 291.898 231.187 292.125 230.96L292.685 232.3C292.378 232.58 292.011 232.8 291.585 232.96C291.171 233.12 290.691 233.2 290.145 233.2C289.638 233.2 289.165 233.113 288.725 232.94C288.285 232.753 287.931 232.467 287.665 232.08C287.411 231.68 287.278 231.16 287.265 230.52V220.6L288.865 220.16ZM292.505 223V224.38H285.265V223H292.505ZM298.783 233.2C297.957 233.2 297.197 232.993 296.503 232.58C295.81 232.167 295.257 231.573 294.843 230.8C294.43 230.013 294.223 229.08 294.223 228C294.223 226.893 294.443 225.953 294.883 225.18C295.323 224.407 295.903 223.82 296.623 223.42C297.343 223.007 298.117 222.8 298.943 222.8C299.77 222.8 300.483 223.013 301.083 223.44C301.697 223.867 302.103 224.433 302.303 225.14L302.103 225.28V218.4H303.703V233H302.303L302.163 230.58L302.383 230.46C302.29 231.047 302.063 231.547 301.703 231.96C301.357 232.36 300.923 232.667 300.403 232.88C299.897 233.093 299.357 233.2 298.783 233.2ZM298.943 231.8C299.583 231.8 300.137 231.64 300.603 231.32C301.083 231 301.45 230.547 301.703 229.96C301.97 229.36 302.103 228.66 302.103 227.86C302.103 227.1 301.97 226.447 301.703 225.9C301.45 225.353 301.09 224.933 300.623 224.64C300.17 224.347 299.637 224.2 299.023 224.2C298.01 224.2 297.223 224.547 296.663 225.24C296.103 225.933 295.823 226.853 295.823 228C295.823 229.147 296.097 230.067 296.643 230.76C297.19 231.453 297.957 231.8 298.943 231.8ZM308.223 230.6C308.609 230.6 308.923 230.72 309.163 230.96C309.403 231.2 309.523 231.513 309.523 231.9C309.523 232.287 309.403 232.6 309.163 232.84C308.923 233.08 308.609 233.2 308.223 233.2C307.836 233.2 307.523 233.08 307.283 232.84C307.043 232.6 306.923 232.287 306.923 231.9C306.923 231.513 307.043 231.2 307.283 230.96C307.523 230.72 307.836 230.6 308.223 230.6Z" fill="white"/>
<path d="M1041 82.28H1026.2V89.96H1037.8V93.64H1026.2V105H1021.92V78.6H1041V82.28ZM1052.34 84.6C1054.29 84.6 1056.01 85.0133 1057.5 85.84C1059 86.6667 1060.16 87.8667 1060.98 89.44C1061.84 90.9867 1062.26 92.84 1062.26 95C1062.26 97.16 1061.84 99.0267 1060.98 100.6C1060.16 102.147 1059 103.333 1057.5 104.16C1056.01 104.987 1054.29 105.4 1052.34 105.4C1050.4 105.4 1048.68 104.987 1047.18 104.16C1045.69 103.333 1044.52 102.147 1043.66 100.6C1042.81 99.0267 1042.38 97.16 1042.38 95C1042.38 92.84 1042.81 90.9867 1043.66 89.44C1044.52 87.8667 1045.69 86.6667 1047.18 85.84C1048.68 85.0133 1050.4 84.6 1052.34 84.6ZM1052.34 87.96C1051.14 87.96 1050.12 88.24 1049.26 88.8C1048.44 89.3333 1047.8 90.12 1047.34 91.16C1046.89 92.2 1046.66 93.48 1046.66 95C1046.66 96.4933 1046.89 97.7733 1047.34 98.84C1047.8 99.88 1048.44 100.68 1049.26 101.24C1050.12 101.773 1051.14 102.04 1052.34 102.04C1053.54 102.04 1054.56 101.773 1055.38 101.24C1056.21 100.68 1056.85 99.88 1057.3 98.84C1057.76 97.7733 1057.98 96.4933 1057.98 95C1057.98 93.48 1057.76 92.2 1057.3 91.16C1056.85 90.12 1056.21 89.3333 1055.38 88.8C1054.56 88.24 1053.54 87.96 1052.34 87.96ZM1067.65 105V85H1071.29L1071.69 88.6C1072.22 87.2933 1073.01 86.3067 1074.05 85.64C1075.11 84.9467 1076.42 84.6 1077.97 84.6C1078.37 84.6 1078.77 84.64 1079.17 84.72C1079.57 84.7733 1079.9 84.8667 1080.17 85L1079.57 88.76C1079.27 88.6533 1078.94 88.5733 1078.57 88.52C1078.22 88.44 1077.74 88.4 1077.13 88.4C1076.3 88.4 1075.49 88.6267 1074.69 89.08C1073.89 89.5067 1073.22 90.16 1072.69 91.04C1072.18 91.92 1071.93 93.04 1071.93 94.4V105H1067.65ZM1110.52 113.4V99.16L1111.12 99.72C1110.93 100.893 1110.49 101.907 1109.8 102.76C1109.13 103.613 1108.29 104.267 1107.28 104.72C1106.29 105.173 1105.21 105.4 1104.04 105.4C1102.39 105.4 1100.89 104.987 1099.56 104.16C1098.23 103.333 1097.16 102.147 1096.36 100.6C1095.59 99.0267 1095.2 97.1467 1095.2 94.96C1095.2 92.7733 1095.61 90.9067 1096.44 89.36C1097.27 87.8133 1098.37 86.64 1099.76 85.84C1101.15 85.0133 1102.67 84.6 1104.32 84.6C1105.49 84.6 1106.56 84.84 1107.52 85.32C1108.51 85.7733 1109.32 86.4267 1109.96 87.28C1110.63 88.1067 1111.07 89.0933 1111.28 90.24L1110.68 90.44L1111 85H1114.8V113.4H1110.52ZM1104.96 101.92C1106.08 101.92 1107.05 101.64 1107.88 101.08C1108.71 100.52 1109.35 99.72 1109.8 98.68C1110.28 97.6133 1110.52 96.36 1110.52 94.92C1110.52 93.4267 1110.29 92.1733 1109.84 91.16C1109.39 90.1467 1108.75 89.3733 1107.92 88.84C1107.09 88.3067 1106.13 88.04 1105.04 88.04C1103.31 88.04 1101.95 88.6667 1100.96 89.92C1099.97 91.1467 1099.48 92.84 1099.48 95C1099.48 97.16 1099.96 98.8533 1100.92 100.08C1101.88 101.307 1103.23 101.92 1104.96 101.92ZM1128.56 105.4C1127.25 105.4 1126.04 105.16 1124.92 104.68C1123.82 104.2 1122.94 103.427 1122.28 102.36C1121.61 101.293 1121.28 99.9067 1121.28 98.2V85H1125.56V97.12C1125.56 98.9333 1125.94 100.187 1126.72 100.88C1127.49 101.547 1128.57 101.88 1129.96 101.88C1130.62 101.88 1131.26 101.773 1131.88 101.56C1132.52 101.32 1133.09 100.96 1133.6 100.48C1134.1 99.9733 1134.49 99.3333 1134.76 98.56C1135.05 97.7867 1135.2 96.88 1135.2 95.84V85H1139.48V105H1135.72L1135.52 101.76C1134.82 103.013 1133.89 103.933 1132.72 104.52C1131.54 105.107 1130.16 105.4 1128.56 105.4ZM1154.96 105.4C1152.96 105.4 1151.2 104.987 1149.68 104.16C1148.16 103.333 1146.98 102.147 1146.12 100.6C1145.3 99.0267 1144.88 97.16 1144.88 95C1144.88 92.84 1145.3 90.9867 1146.12 89.44C1146.98 87.8667 1148.15 86.6667 1149.64 85.84C1151.14 85.0133 1152.83 84.6 1154.72 84.6C1156.67 84.6 1158.32 85 1159.68 85.8C1161.04 86.6 1162.08 87.6933 1162.8 89.08C1163.52 90.4667 1163.88 92.04 1163.88 93.8C1163.88 94.28 1163.87 94.7333 1163.84 95.16C1163.82 95.5867 1163.78 95.96 1163.72 96.28H1147.64V93H1161.84L1159.72 93.64C1159.72 91.8267 1159.27 90.44 1158.36 89.48C1157.46 88.4933 1156.22 88 1154.64 88C1153.5 88 1152.5 88.2667 1151.64 88.8C1150.79 89.3333 1150.14 90.1333 1149.68 91.2C1149.23 92.24 1149 93.52 1149 95.04C1149 96.5333 1149.24 97.8 1149.72 98.84C1150.2 99.88 1150.88 100.667 1151.76 101.2C1152.64 101.733 1153.68 102 1154.88 102C1156.22 102 1157.3 101.747 1158.12 101.24C1158.95 100.733 1159.6 100.027 1160.08 99.12L1163.48 100.72C1163 101.68 1162.35 102.52 1161.52 103.24C1160.72 103.933 1159.76 104.467 1158.64 104.84C1157.52 105.213 1156.3 105.4 1154.96 105.4ZM1176.89 105.4C1174.89 105.4 1173.06 105.013 1171.41 104.24C1169.76 103.467 1168.45 102.373 1167.49 100.96L1170.45 98.4C1171.04 99.4933 1171.88 100.373 1172.97 101.04C1174.09 101.68 1175.42 102 1176.97 102C1178.2 102 1179.17 101.787 1179.89 101.36C1180.61 100.933 1180.97 100.333 1180.97 99.56C1180.97 99.0533 1180.8 98.6133 1180.45 98.24C1180.13 97.84 1179.5 97.5333 1178.57 97.32L1174.37 96.44C1172.24 96.0133 1170.72 95.3333 1169.81 94.4C1168.9 93.44 1168.45 92.2267 1168.45 90.76C1168.45 89.6667 1168.77 88.6533 1169.41 87.72C1170.05 86.7867 1170.98 86.04 1172.21 85.48C1173.46 84.8933 1174.96 84.6 1176.69 84.6C1178.69 84.6 1180.4 84.96 1181.81 85.68C1183.22 86.3733 1184.3 87.3733 1185.05 88.68L1182.09 91.16C1181.58 90.0933 1180.84 89.3067 1179.85 88.8C1178.86 88.2667 1177.84 88 1176.77 88C1175.92 88 1175.18 88.1067 1174.57 88.32C1173.96 88.5333 1173.49 88.8267 1173.17 89.2C1172.85 89.5733 1172.69 90.0133 1172.69 90.52C1172.69 91.0533 1172.89 91.52 1173.29 91.92C1173.69 92.32 1174.41 92.6267 1175.45 92.84L1180.01 93.8C1181.93 94.1733 1183.28 94.8133 1184.05 95.72C1184.85 96.6 1185.25 97.68 1185.25 98.96C1185.25 100.24 1184.92 101.373 1184.25 102.36C1183.58 103.32 1182.62 104.067 1181.37 104.6C1180.12 105.133 1178.62 105.4 1176.89 105.4ZM1196.3 79.12V99C1196.3 99.9867 1196.55 100.707 1197.06 101.16C1197.59 101.613 1198.3 101.84 1199.18 101.84C1199.9 101.84 1200.53 101.733 1201.06 101.52C1201.59 101.28 1202.09 100.96 1202.54 100.56L1203.5 103.68C1202.89 104.213 1202.13 104.64 1201.22 104.96C1200.34 105.253 1199.35 105.4 1198.26 105.4C1197.11 105.4 1196.06 105.213 1195.1 104.84C1194.14 104.467 1193.39 103.867 1192.86 103.04C1192.33 102.187 1192.05 101.08 1192.02 99.72V80.32L1196.3 79.12ZM1203.18 85V88.36H1188.18V85H1203.18ZM1209.57 81.64C1208.64 81.64 1207.92 81.4133 1207.41 80.96C1206.93 80.48 1206.69 79.8133 1206.69 78.96C1206.69 78.1067 1206.93 77.4533 1207.41 77C1207.92 76.5467 1208.64 76.32 1209.57 76.32C1210.48 76.32 1211.17 76.5467 1211.65 77C1212.16 77.4533 1212.41 78.1067 1212.41 78.96C1212.41 79.8133 1212.16 80.48 1211.65 80.96C1211.17 81.4133 1210.48 81.64 1209.57 81.64ZM1211.69 85V105H1207.41V85H1211.69ZM1227.07 84.6C1229.02 84.6 1230.74 85.0133 1232.23 85.84C1233.72 86.6667 1234.88 87.8667 1235.71 89.44C1236.56 90.9867 1236.99 92.84 1236.99 95C1236.99 97.16 1236.56 99.0267 1235.71 100.6C1234.88 102.147 1233.72 103.333 1232.23 104.16C1230.74 104.987 1229.02 105.4 1227.07 105.4C1225.12 105.4 1223.4 104.987 1221.91 104.16C1220.42 103.333 1219.24 102.147 1218.39 100.6C1217.54 99.0267 1217.11 97.16 1217.11 95C1217.11 92.84 1217.54 90.9867 1218.39 89.44C1219.24 87.8667 1220.42 86.6667 1221.91 85.84C1223.4 85.0133 1225.12 84.6 1227.07 84.6ZM1227.07 87.96C1225.87 87.96 1224.84 88.24 1223.99 88.8C1223.16 89.3333 1222.52 90.12 1222.07 91.16C1221.62 92.2 1221.39 93.48 1221.39 95C1221.39 96.4933 1221.62 97.7733 1222.07 98.84C1222.52 99.88 1223.16 100.68 1223.99 101.24C1224.84 101.773 1225.87 102.04 1227.07 102.04C1228.27 102.04 1229.28 101.773 1230.11 101.24C1230.94 100.68 1231.58 99.88 1232.03 98.84C1232.48 97.7733 1232.71 96.4933 1232.71 95C1232.71 93.48 1232.48 92.2 1232.03 91.16C1231.58 90.12 1230.94 89.3333 1230.11 88.8C1229.28 88.24 1228.27 87.96 1227.07 87.96ZM1242.37 105V85H1246.17L1246.45 90.2L1245.89 89.64C1246.27 88.4933 1246.8 87.5467 1247.49 86.8C1248.21 86.0267 1249.05 85.4667 1250.01 85.12C1251 84.7733 1252.04 84.6 1253.13 84.6C1254.55 84.6 1255.81 84.88 1256.93 85.44C1258.08 85.9733 1258.99 86.7867 1259.65 87.88C1260.32 88.9733 1260.65 90.36 1260.65 92.04V105H1256.37V93.36C1256.37 91.3867 1255.96 90.0267 1255.13 89.28C1254.33 88.5067 1253.32 88.12 1252.09 88.12C1251.21 88.12 1250.36 88.3333 1249.53 88.76C1248.71 89.16 1248.01 89.8133 1247.45 90.72C1246.92 91.6267 1246.65 92.84 1246.65 94.36V105H1242.37ZM1274.74 105.4C1272.74 105.4 1270.91 105.013 1269.26 104.24C1267.61 103.467 1266.3 102.373 1265.34 100.96L1268.3 98.4C1268.89 99.4933 1269.73 100.373 1270.82 101.04C1271.94 101.68 1273.27 102 1274.82 102C1276.05 102 1277.02 101.787 1277.74 101.36C1278.46 100.933 1278.82 100.333 1278.82 99.56C1278.82 99.0533 1278.65 98.6133 1278.3 98.24C1277.98 97.84 1277.35 97.5333 1276.42 97.32L1272.22 96.44C1270.09 96.0133 1268.57 95.3333 1267.66 94.4C1266.75 93.44 1266.3 92.2267 1266.3 90.76C1266.3 89.6667 1266.62 88.6533 1267.26 87.72C1267.9 86.7867 1268.83 86.04 1270.06 85.48C1271.31 84.8933 1272.81 84.6 1274.54 84.6C1276.54 84.6 1278.25 84.96 1279.66 85.68C1281.07 86.3733 1282.15 87.3733 1282.9 88.68L1279.94 91.16C1279.43 90.0933 1278.69 89.3067 1277.7 88.8C1276.71 88.2667 1275.69 88 1274.62 88C1273.77 88 1273.03 88.1067 1272.42 88.32C1271.81 88.5333 1271.34 88.8267 1271.02 89.2C1270.7 89.5733 1270.54 90.0133 1270.54 90.52C1270.54 91.0533 1270.74 91.52 1271.14 91.92C1271.54 92.32 1272.26 92.6267 1273.3 92.84L1277.86 93.8C1279.78 94.1733 1281.13 94.8133 1281.9 95.72C1282.7 96.6 1283.1 97.68 1283.1 98.96C1283.1 100.24 1282.77 101.373 1282.1 102.36C1281.43 103.32 1280.47 104.067 1279.22 104.6C1277.97 105.133 1276.47 105.4 1274.74 105.4ZM1290.43 99.6C1291.18 99.6 1291.79 99.7867 1292.27 100.16C1292.78 100.507 1293.17 101 1293.43 101.64C1293.7 102.253 1293.83 102.96 1293.83 103.76C1293.83 104.747 1293.65 105.693 1293.27 106.6C1292.9 107.533 1292.35 108.373 1291.63 109.12C1290.94 109.893 1290.1 110.52 1289.11 111L1287.11 109.28C1287.83 109.013 1288.47 108.667 1289.03 108.24C1289.59 107.813 1290.06 107.333 1290.43 106.8C1290.83 106.267 1291.11 105.72 1291.27 105.16L1291.11 105.08C1290.98 105.16 1290.82 105.227 1290.63 105.28C1290.47 105.333 1290.23 105.36 1289.91 105.36C1289.54 105.36 1289.15 105.253 1288.75 105.04C1288.38 104.853 1288.06 104.56 1287.79 104.16C1287.53 103.76 1287.39 103.24 1287.39 102.6C1287.39 102.013 1287.53 101.493 1287.79 101.04C1288.09 100.587 1288.46 100.24 1288.91 100C1289.37 99.7333 1289.87 99.6 1290.43 99.6ZM1312.26 105V85H1315.9L1316.3 88.6C1316.83 87.2933 1317.62 86.3067 1318.66 85.64C1319.72 84.9467 1321.03 84.6 1322.58 84.6C1322.98 84.6 1323.38 84.64 1323.78 84.72C1324.18 84.7733 1324.51 84.8667 1324.78 85L1324.18 88.76C1323.88 88.6533 1323.55 88.5733 1323.18 88.52C1322.83 88.44 1322.35 88.4 1321.74 88.4C1320.91 88.4 1320.1 88.6267 1319.3 89.08C1318.5 89.5067 1317.83 90.16 1317.3 91.04C1316.79 91.92 1316.54 93.04 1316.54 94.4V105H1312.26ZM1337.11 105.4C1335.11 105.4 1333.35 104.987 1331.83 104.16C1330.31 103.333 1329.13 102.147 1328.27 100.6C1327.45 99.0267 1327.03 97.16 1327.03 95C1327.03 92.84 1327.45 90.9867 1328.27 89.44C1329.13 87.8667 1330.3 86.6667 1331.79 85.84C1333.29 85.0133 1334.98 84.6 1336.87 84.6C1338.82 84.6 1340.47 85 1341.83 85.8C1343.19 86.6 1344.23 87.6933 1344.95 89.08C1345.67 90.4667 1346.03 92.04 1346.03 93.8C1346.03 94.28 1346.02 94.7333 1345.99 95.16C1345.97 95.5867 1345.93 95.96 1345.87 96.28H1329.79V93H1343.99L1341.87 93.64C1341.87 91.8267 1341.42 90.44 1340.51 89.48C1339.61 88.4933 1338.37 88 1336.79 88C1335.65 88 1334.65 88.2667 1333.79 88.8C1332.94 89.3333 1332.29 90.1333 1331.83 91.2C1331.38 92.24 1331.15 93.52 1331.15 95.04C1331.15 96.5333 1331.39 97.8 1331.87 98.84C1332.35 99.88 1333.03 100.667 1333.91 101.2C1334.79 101.733 1335.83 102 1337.03 102C1338.37 102 1339.45 101.747 1340.27 101.24C1341.1 100.733 1341.75 100.027 1342.23 99.12L1345.63 100.72C1345.15 101.68 1344.5 102.52 1343.67 103.24C1342.87 103.933 1341.91 104.467 1340.79 104.84C1339.67 105.213 1338.45 105.4 1337.11 105.4ZM1363 92.16C1363 90.8267 1362.62 89.8 1361.88 89.08C1361.16 88.3333 1360.16 87.96 1358.88 87.96C1357.68 87.96 1356.65 88.24 1355.8 88.8C1354.94 89.36 1354.32 90.2667 1353.92 91.52L1350.32 90C1350.82 88.3733 1351.81 87.0667 1353.28 86.08C1354.77 85.0933 1356.69 84.6 1359.04 84.6C1360.64 84.6 1362.05 84.8667 1363.28 85.4C1364.5 85.9067 1365.46 86.68 1366.16 87.72C1366.88 88.76 1367.24 90.0933 1367.24 91.72V100.64C1367.24 101.627 1367.73 102.12 1368.72 102.12C1369.2 102.12 1369.66 102.053 1370.12 101.92L1369.88 104.88C1369.26 105.173 1368.49 105.32 1367.56 105.32C1366.7 105.32 1365.93 105.173 1365.24 104.88C1364.57 104.56 1364.04 104.093 1363.64 103.48C1363.26 102.84 1363.08 102.053 1363.08 101.12V100.84L1363.96 100.8C1363.72 101.84 1363.22 102.707 1362.48 103.4C1361.73 104.067 1360.86 104.573 1359.88 104.92C1358.89 105.24 1357.89 105.4 1356.88 105.4C1355.62 105.4 1354.49 105.2 1353.48 104.8C1352.49 104.4 1351.7 103.8 1351.12 103C1350.56 102.173 1350.28 101.16 1350.28 99.96C1350.28 98.4667 1350.76 97.24 1351.72 96.28C1352.7 95.32 1354.09 94.6667 1355.88 94.32L1363.64 92.8L1363.6 95.8L1357.96 96.96C1356.84 97.1733 1356 97.48 1355.44 97.88C1354.88 98.28 1354.6 98.8667 1354.6 99.64C1354.6 100.387 1354.88 100.987 1355.44 101.44C1356.02 101.867 1356.8 102.08 1357.76 102.08C1358.42 102.08 1359.06 102 1359.68 101.84C1360.32 101.68 1360.89 101.427 1361.4 101.08C1361.9 100.707 1362.29 100.24 1362.56 99.68C1362.85 99.0933 1363 98.4 1363 97.6V92.16ZM1382.85 84.6C1384.45 84.6 1385.81 84.84 1386.93 85.32C1388.08 85.7733 1389.04 86.4267 1389.81 87.28C1390.58 88.1333 1391.17 89.1067 1391.57 90.2L1387.53 91.8C1387.18 90.5733 1386.62 89.64 1385.85 89C1385.1 88.3333 1384.12 88 1382.89 88C1381.69 88 1380.66 88.28 1379.81 88.84C1378.96 89.3733 1378.3 90.16 1377.85 91.2C1377.42 92.24 1377.21 93.52 1377.21 95.04C1377.21 96.5333 1377.44 97.8 1377.89 98.84C1378.34 99.88 1379 100.667 1379.85 101.2C1380.7 101.733 1381.72 102 1382.89 102C1383.8 102 1384.58 101.853 1385.25 101.56C1385.92 101.24 1386.46 100.8 1386.89 100.24C1387.34 99.6533 1387.65 98.9467 1387.81 98.12L1391.69 99.44C1391.32 100.64 1390.73 101.693 1389.93 102.6C1389.16 103.48 1388.18 104.173 1387.01 104.68C1385.84 105.16 1384.49 105.4 1382.97 105.4C1381 105.4 1379.25 104.987 1377.73 104.16C1376.21 103.333 1375.02 102.147 1374.17 100.6C1373.34 99.0267 1372.93 97.16 1372.93 95C1372.93 92.84 1373.34 90.9867 1374.17 89.44C1375.02 87.8667 1376.2 86.6667 1377.69 85.84C1379.21 85.0133 1380.93 84.6 1382.85 84.6ZM1396.67 105V76H1400.95V88.2C1401.62 86.9467 1402.51 86.04 1403.63 85.48C1404.78 84.8933 1406.04 84.6 1407.43 84.6C1408.84 84.6 1410.11 84.88 1411.23 85.44C1412.38 85.9733 1413.28 86.7867 1413.95 87.88C1414.62 88.9733 1414.95 90.36 1414.95 92.04V105H1410.67V93.4C1410.67 91.4267 1410.26 90.0533 1409.43 89.28C1408.63 88.5067 1407.62 88.12 1406.39 88.12C1405.54 88.12 1404.68 88.3333 1403.83 88.76C1403 89.16 1402.31 89.8267 1401.75 90.76C1401.22 91.6667 1400.95 92.8933 1400.95 94.44V105H1396.67ZM1443.13 84.6C1445.07 84.6 1446.79 85.0133 1448.29 85.84C1449.78 86.6667 1450.94 87.8667 1451.77 89.44C1452.62 90.9867 1453.05 92.84 1453.05 95C1453.05 97.16 1452.62 99.0267 1451.77 100.6C1450.94 102.147 1449.78 103.333 1448.29 104.16C1446.79 104.987 1445.07 105.4 1443.13 105.4C1441.18 105.4 1439.46 104.987 1437.97 104.16C1436.47 103.333 1435.3 102.147 1434.45 100.6C1433.59 99.0267 1433.17 97.16 1433.17 95C1433.17 92.84 1433.59 90.9867 1434.45 89.44C1435.3 87.8667 1436.47 86.6667 1437.97 85.84C1439.46 85.0133 1441.18 84.6 1443.13 84.6ZM1443.13 87.96C1441.93 87.96 1440.9 88.24 1440.05 88.8C1439.22 89.3333 1438.58 90.12 1438.13 91.16C1437.67 92.2 1437.45 93.48 1437.45 95C1437.45 96.4933 1437.67 97.7733 1438.13 98.84C1438.58 99.88 1439.22 100.68 1440.05 101.24C1440.9 101.773 1441.93 102.04 1443.13 102.04C1444.33 102.04 1445.34 101.773 1446.17 101.24C1446.99 100.68 1447.63 99.88 1448.09 98.84C1448.54 97.7733 1448.77 96.4933 1448.77 95C1448.77 93.48 1448.54 92.2 1448.09 91.16C1447.63 90.12 1446.99 89.3333 1446.17 88.8C1445.34 88.24 1444.33 87.96 1443.13 87.96ZM1465.55 105.4C1464.24 105.4 1463.03 105.16 1461.91 104.68C1460.82 104.2 1459.94 103.427 1459.27 102.36C1458.6 101.293 1458.27 99.9067 1458.27 98.2V85H1462.55V97.12C1462.55 98.9333 1462.94 100.187 1463.71 100.88C1464.48 101.547 1465.56 101.88 1466.95 101.88C1467.62 101.88 1468.26 101.773 1468.87 101.56C1469.51 101.32 1470.08 100.96 1470.59 100.48C1471.1 99.9733 1471.48 99.3333 1471.75 98.56C1472.04 97.7867 1472.19 96.88 1472.19 95.84V85H1476.47V105H1472.71L1472.51 101.76C1471.82 103.013 1470.88 103.933 1469.71 104.52C1468.54 105.107 1467.15 105.4 1465.55 105.4ZM1489 79.12V99C1489 99.9867 1489.25 100.707 1489.76 101.16C1490.29 101.613 1491 101.84 1491.88 101.84C1492.6 101.84 1493.22 101.733 1493.76 101.52C1494.29 101.28 1494.78 100.96 1495.24 100.56L1496.2 103.68C1495.58 104.213 1494.82 104.64 1493.92 104.96C1493.04 105.253 1492.05 105.4 1490.96 105.4C1489.81 105.4 1488.76 105.213 1487.8 104.84C1486.84 104.467 1486.09 103.867 1485.56 103.04C1485.02 102.187 1484.74 101.08 1484.72 99.72V80.32L1489 79.12ZM1495.88 85V88.36H1480.88V85H1495.88ZM1518.33 79.12V99C1518.33 99.9867 1518.59 100.707 1519.09 101.16C1519.63 101.613 1520.33 101.84 1521.21 101.84C1521.93 101.84 1522.56 101.733 1523.09 101.52C1523.63 101.28 1524.12 100.96 1524.57 100.56L1525.53 103.68C1524.92 104.213 1524.16 104.64 1523.25 104.96C1522.37 105.253 1521.39 105.4 1520.29 105.4C1519.15 105.4 1518.09 105.213 1517.13 104.84C1516.17 104.467 1515.43 103.867 1514.89 103.04C1514.36 102.187 1514.08 101.08 1514.05 99.72V80.32L1518.33 79.12ZM1525.21 85V88.36H1510.21V85H1525.21ZM1538.13 84.6C1540.07 84.6 1541.79 85.0133 1543.29 85.84C1544.78 86.6667 1545.94 87.8667 1546.77 89.44C1547.62 90.9867 1548.05 92.84 1548.05 95C1548.05 97.16 1547.62 99.0267 1546.77 100.6C1545.94 102.147 1544.78 103.333 1543.29 104.16C1541.79 104.987 1540.07 105.4 1538.13 105.4C1536.18 105.4 1534.46 104.987 1532.97 104.16C1531.47 103.333 1530.3 102.147 1529.45 100.6C1528.59 99.0267 1528.17 97.16 1528.17 95C1528.17 92.84 1528.59 90.9867 1529.45 89.44C1530.3 87.8667 1531.47 86.6667 1532.97 85.84C1534.46 85.0133 1536.18 84.6 1538.13 84.6ZM1538.13 87.96C1536.93 87.96 1535.9 88.24 1535.05 88.8C1534.22 89.3333 1533.58 90.12 1533.13 91.16C1532.67 92.2 1532.45 93.48 1532.45 95C1532.45 96.4933 1532.67 97.7733 1533.13 98.84C1533.58 99.88 1534.22 100.68 1535.05 101.24C1535.9 101.773 1536.93 102.04 1538.13 102.04C1539.33 102.04 1540.34 101.773 1541.17 101.24C1541.99 100.68 1542.63 99.88 1543.09 98.84C1543.54 97.7733 1543.77 96.4933 1543.77 95C1543.77 93.48 1543.54 92.2 1543.09 91.16C1542.63 90.12 1541.99 89.3333 1541.17 88.8C1540.34 88.24 1539.33 87.96 1538.13 87.96Z" fill="#EF5B26"/>
<path d="M1247.64 149.28C1246.28 149.28 1245.02 148.991 1243.86 148.412C1242.73 147.833 1241.85 147.012 1241.23 145.948L1243.14 144.576C1243.55 145.435 1244.14 146.107 1244.93 146.592C1245.73 147.077 1246.69 147.32 1247.81 147.32C1248.8 147.32 1249.58 147.133 1250.14 146.76C1250.7 146.368 1250.98 145.864 1250.98 145.248C1250.98 144.856 1250.85 144.501 1250.58 144.184C1250.34 143.848 1249.87 143.605 1249.16 143.456L1245.8 142.756C1244.43 142.476 1243.45 142.009 1242.86 141.356C1242.28 140.703 1241.99 139.891 1241.99 138.92C1241.99 138.155 1242.2 137.455 1242.63 136.82C1243.08 136.185 1243.71 135.681 1244.51 135.308C1245.33 134.916 1246.29 134.72 1247.39 134.72C1248.77 134.72 1249.94 134.991 1250.89 135.532C1251.84 136.073 1252.55 136.839 1253.02 137.828L1251.14 139.06C1250.83 138.239 1250.31 137.641 1249.6 137.268C1248.89 136.876 1248.16 136.68 1247.39 136.68C1246.72 136.68 1246.14 136.773 1245.66 136.96C1245.19 137.147 1244.83 137.408 1244.56 137.744C1244.32 138.061 1244.2 138.425 1244.2 138.836C1244.2 139.247 1244.34 139.629 1244.62 139.984C1244.9 140.32 1245.42 140.563 1246.19 140.712L1249.69 141.44C1250.99 141.701 1251.91 142.131 1252.43 142.728C1252.95 143.325 1253.22 144.053 1253.22 144.912C1253.22 145.789 1252.98 146.564 1252.52 147.236C1252.05 147.889 1251.4 148.393 1250.56 148.748C1249.72 149.103 1248.75 149.28 1247.64 149.28ZM1262.44 149.28C1261.54 149.28 1260.69 149.112 1259.89 148.776C1259.11 148.44 1258.46 147.899 1257.96 147.152C1257.47 146.387 1257.23 145.397 1257.23 144.184V135H1259.47V143.596C1259.47 145.015 1259.78 145.995 1260.39 146.536C1261.01 147.059 1261.88 147.32 1263 147.32C1263.52 147.32 1264.03 147.236 1264.54 147.068C1265.04 146.881 1265.49 146.601 1265.88 146.228C1266.29 145.836 1266.61 145.341 1266.83 144.744C1267.08 144.147 1267.2 143.437 1267.2 142.616V135H1269.44V149H1267.48L1267.34 146.872C1266.85 147.712 1266.19 148.328 1265.35 148.72C1264.53 149.093 1263.56 149.28 1262.44 149.28ZM1274.65 154.88V135H1276.61L1276.81 138.416L1276.5 138.024C1276.74 137.371 1277.11 136.801 1277.59 136.316C1278.08 135.812 1278.66 135.42 1279.35 135.14C1280.05 134.86 1280.79 134.72 1281.59 134.72C1282.73 134.72 1283.78 135.009 1284.73 135.588C1285.7 136.167 1286.48 136.997 1287.05 138.08C1287.63 139.163 1287.92 140.469 1287.92 142C1287.92 143.512 1287.62 144.819 1287.03 145.92C1286.45 147.003 1285.67 147.833 1284.7 148.412C1283.73 148.991 1282.67 149.28 1281.51 149.28C1280.35 149.28 1279.34 149 1278.46 148.44C1277.6 147.861 1276.98 147.133 1276.61 146.256L1276.89 145.836V154.88H1274.65ZM1281.29 147.32C1282.67 147.32 1283.74 146.835 1284.51 145.864C1285.29 144.893 1285.68 143.605 1285.68 142C1285.68 140.395 1285.3 139.107 1284.53 138.136C1283.79 137.165 1282.73 136.68 1281.37 136.68C1280.47 136.68 1279.69 136.904 1279.02 137.352C1278.35 137.781 1277.82 138.397 1277.45 139.2C1277.08 139.984 1276.89 140.917 1276.89 142C1276.89 143.064 1277.07 143.997 1277.42 144.8C1277.8 145.603 1278.31 146.228 1278.96 146.676C1279.63 147.105 1280.41 147.32 1281.29 147.32ZM1292.21 154.88V135H1294.17L1294.36 138.416L1294.05 138.024C1294.3 137.371 1294.66 136.801 1295.15 136.316C1295.63 135.812 1296.22 135.42 1296.91 135.14C1297.6 134.86 1298.35 134.72 1299.15 134.72C1300.29 134.72 1301.33 135.009 1302.29 135.588C1303.26 136.167 1304.03 136.997 1304.61 138.08C1305.19 139.163 1305.48 140.469 1305.48 142C1305.48 143.512 1305.18 144.819 1304.58 145.92C1304 147.003 1303.23 147.833 1302.26 148.412C1301.29 148.991 1300.22 149.28 1299.07 149.28C1297.91 149.28 1296.89 149 1296.01 148.44C1295.15 147.861 1294.54 147.133 1294.17 146.256L1294.45 145.836V154.88H1292.21ZM1298.84 147.32C1300.22 147.32 1301.3 146.835 1302.06 145.864C1302.85 144.893 1303.24 143.605 1303.24 142C1303.24 140.395 1302.85 139.107 1302.09 138.136C1301.34 137.165 1300.29 136.68 1298.93 136.68C1298.03 136.68 1297.25 136.904 1296.57 137.352C1295.9 137.781 1295.38 138.397 1295.01 139.2C1294.63 139.984 1294.45 140.917 1294.45 142C1294.45 143.064 1294.62 143.997 1294.98 144.8C1295.35 145.603 1295.86 146.228 1296.52 146.676C1297.19 147.105 1297.96 147.32 1298.84 147.32ZM1315.56 134.72C1316.88 134.72 1318.05 135.009 1319.06 135.588C1320.08 136.167 1320.89 137.007 1321.46 138.108C1322.04 139.191 1322.33 140.488 1322.33 142C1322.33 143.512 1322.04 144.819 1321.46 145.92C1320.89 147.003 1320.08 147.833 1319.06 148.412C1318.05 148.991 1316.88 149.28 1315.56 149.28C1314.25 149.28 1313.08 148.991 1312.06 148.412C1311.03 147.833 1310.23 147.003 1309.65 145.92C1309.07 144.819 1308.78 143.512 1308.78 142C1308.78 140.488 1309.07 139.191 1309.65 138.108C1310.23 137.007 1311.03 136.167 1312.06 135.588C1313.08 135.009 1314.25 134.72 1315.56 134.72ZM1315.56 136.652C1314.6 136.652 1313.79 136.867 1313.12 137.296C1312.45 137.725 1311.93 138.341 1311.55 139.144C1311.2 139.928 1311.02 140.88 1311.02 142C1311.02 143.101 1311.2 144.053 1311.55 144.856C1311.93 145.659 1312.45 146.275 1313.12 146.704C1313.79 147.133 1314.6 147.348 1315.56 147.348C1316.51 147.348 1317.32 147.133 1317.99 146.704C1318.66 146.275 1319.18 145.659 1319.53 144.856C1319.91 144.053 1320.09 143.101 1320.09 142C1320.09 140.88 1319.91 139.928 1319.53 139.144C1319.18 138.341 1318.66 137.725 1317.99 137.296C1317.32 136.867 1316.51 136.652 1315.56 136.652ZM1326.55 149V135H1328.37L1328.68 137.296C1329.07 136.437 1329.64 135.793 1330.39 135.364C1331.15 134.935 1332.07 134.72 1333.16 134.72C1333.4 134.72 1333.66 134.739 1333.94 134.776C1334.24 134.813 1334.49 134.888 1334.7 135L1334.31 137.044C1334.1 136.969 1333.88 136.913 1333.63 136.876C1333.39 136.839 1333.05 136.82 1332.6 136.82C1332.02 136.82 1331.43 136.988 1330.83 137.324C1330.25 137.66 1329.77 138.173 1329.38 138.864C1328.99 139.536 1328.79 140.395 1328.79 141.44V149H1326.55ZM1340.44 131.024V145.136C1340.44 145.827 1340.63 146.34 1341.02 146.676C1341.42 147.012 1341.92 147.18 1342.54 147.18C1343.08 147.18 1343.54 147.087 1343.94 146.9C1344.33 146.713 1344.68 146.461 1345 146.144L1345.78 148.02C1345.35 148.412 1344.84 148.72 1344.24 148.944C1343.66 149.168 1342.99 149.28 1342.23 149.28C1341.52 149.28 1340.86 149.159 1340.24 148.916C1339.62 148.655 1339.13 148.253 1338.76 147.712C1338.4 147.152 1338.21 146.424 1338.2 145.528V131.64L1340.44 131.024ZM1345.53 135V136.932H1335.4V135H1345.53ZM1359.81 154.46C1358.06 154.46 1356.46 154.18 1355.02 153.62C1353.58 153.06 1352.35 152.267 1351.33 151.24C1350.3 150.213 1349.51 148.981 1348.95 147.544C1348.39 146.107 1348.11 144.511 1348.11 142.756C1348.11 140.945 1348.4 139.293 1349 137.8C1349.62 136.307 1350.48 135.019 1351.58 133.936C1352.68 132.835 1353.98 131.995 1355.47 131.416C1356.96 130.819 1358.61 130.52 1360.4 130.52C1362.15 130.52 1363.71 130.809 1365.07 131.388C1366.44 131.948 1367.58 132.732 1368.52 133.74C1369.47 134.748 1370.19 135.905 1370.67 137.212C1371.16 138.519 1371.4 139.9 1371.4 141.356C1371.4 142.569 1371.24 143.661 1370.93 144.632C1370.63 145.603 1370.21 146.433 1369.67 147.124C1369.12 147.796 1368.51 148.319 1367.82 148.692C1367.15 149.047 1366.45 149.224 1365.72 149.224C1364.71 149.224 1363.96 148.963 1363.48 148.44C1363.01 147.917 1362.82 147.255 1362.89 146.452C1362.48 147.236 1361.86 147.861 1361.04 148.328C1360.22 148.795 1359.37 149.028 1358.49 149.028C1357.52 149.028 1356.66 148.795 1355.92 148.328C1355.19 147.861 1354.62 147.217 1354.21 146.396C1353.8 145.556 1353.59 144.595 1353.59 143.512C1353.59 142.467 1353.75 141.496 1354.07 140.6C1354.39 139.685 1354.83 138.892 1355.39 138.22C1355.96 137.529 1356.65 136.997 1357.43 136.624C1358.21 136.232 1359.06 136.036 1359.98 136.036C1360.71 136.036 1361.36 136.167 1361.94 136.428C1362.52 136.671 1363 137.025 1363.39 137.492C1363.79 137.94 1364.06 138.481 1364.21 139.116L1364.88 136.288H1366.87L1364.74 145.416C1364.7 145.603 1364.66 145.78 1364.63 145.948C1364.61 146.097 1364.6 146.247 1364.6 146.396C1364.6 146.919 1364.73 147.264 1364.99 147.432C1365.27 147.581 1365.58 147.656 1365.91 147.656C1366.59 147.656 1367.21 147.423 1367.79 146.956C1368.37 146.489 1368.84 145.789 1369.19 144.856C1369.56 143.904 1369.75 142.737 1369.75 141.356C1369.75 140.049 1369.54 138.836 1369.11 137.716C1368.68 136.596 1368.05 135.625 1367.23 134.804C1366.43 133.964 1365.46 133.32 1364.32 132.872C1363.18 132.405 1361.9 132.172 1360.48 132.172C1358.93 132.172 1357.51 132.424 1356.23 132.928C1354.96 133.413 1353.86 134.123 1352.92 135.056C1351.99 135.971 1351.26 137.081 1350.74 138.388C1350.23 139.695 1349.98 141.151 1349.98 142.756C1349.98 144.324 1350.22 145.724 1350.71 146.956C1351.21 148.188 1351.91 149.243 1352.81 150.12C1353.71 150.997 1354.75 151.66 1355.95 152.108C1357.14 152.575 1358.43 152.808 1359.81 152.808C1361.4 152.808 1362.65 152.603 1363.56 152.192C1364.48 151.8 1365.24 151.371 1365.86 150.904L1366.84 152.276C1366.33 152.668 1365.76 153.023 1365.13 153.34C1364.51 153.676 1363.78 153.947 1362.92 154.152C1362.06 154.357 1361.02 154.46 1359.81 154.46ZM1359.14 147.32C1359.92 147.32 1360.64 147.068 1361.29 146.564C1361.95 146.041 1362.46 145.341 1362.83 144.464C1363.23 143.568 1363.42 142.569 1363.42 141.468C1363.42 140.721 1363.28 140.077 1363 139.536C1362.74 138.976 1362.36 138.547 1361.85 138.248C1361.37 137.931 1360.79 137.772 1360.12 137.772C1359.45 137.772 1358.83 137.921 1358.27 138.22C1357.73 138.5 1357.25 138.901 1356.84 139.424C1356.45 139.947 1356.14 140.553 1355.92 141.244C1355.69 141.935 1355.58 142.681 1355.58 143.484C1355.58 144.305 1355.72 145.005 1356 145.584C1356.28 146.144 1356.68 146.573 1357.21 146.872C1357.75 147.171 1358.39 147.32 1359.14 147.32ZM1375.69 149V135H1377.65L1377.84 138.136L1377.48 137.828C1377.78 137.081 1378.18 136.484 1378.68 136.036C1379.19 135.569 1379.76 135.233 1380.42 135.028C1381.09 134.823 1381.78 134.72 1382.49 134.72C1383.5 134.72 1384.41 134.916 1385.23 135.308C1386.06 135.681 1386.71 136.26 1387.19 137.044C1387.7 137.828 1387.95 138.827 1387.95 140.04V149H1385.71V140.824C1385.71 139.275 1385.37 138.201 1384.7 137.604C1384.05 136.988 1383.24 136.68 1382.27 136.68C1381.59 136.68 1380.92 136.839 1380.25 137.156C1379.58 137.473 1379.02 137.987 1378.57 138.696C1378.14 139.405 1377.93 140.357 1377.93 141.552V149H1375.69ZM1394.14 132.312C1393.64 132.312 1393.23 132.163 1392.91 131.864C1392.61 131.547 1392.46 131.136 1392.46 130.632C1392.46 130.128 1392.61 129.727 1392.91 129.428C1393.23 129.111 1393.64 128.952 1394.14 128.952C1394.65 128.952 1395.05 129.111 1395.35 129.428C1395.66 129.727 1395.82 130.128 1395.82 130.632C1395.82 131.136 1395.66 131.547 1395.35 131.864C1395.05 132.163 1394.65 132.312 1394.14 132.312ZM1395.26 135V149H1393.02V135H1395.26ZM1406.14 128.42C1406.63 128.42 1407.09 128.476 1407.52 128.588C1407.94 128.7 1408.28 128.859 1408.52 129.064L1407.94 130.884C1407.71 130.735 1407.47 130.632 1407.21 130.576C1406.95 130.501 1406.66 130.464 1406.34 130.464C1405.54 130.464 1404.91 130.66 1404.46 131.052C1404.02 131.425 1403.79 132.032 1403.79 132.872V135V135.728V149H1401.55V132.648C1401.55 132.032 1401.64 131.463 1401.83 130.94C1402.02 130.417 1402.3 129.969 1402.67 129.596C1403.06 129.223 1403.55 128.933 1404.13 128.728C1404.71 128.523 1405.38 128.42 1406.14 128.42ZM1408.47 135V136.932H1398.75V135H1408.47ZM1416.92 149.28C1415.6 149.28 1414.41 148.991 1413.36 148.412C1412.34 147.833 1411.54 147.003 1410.96 145.92C1410.38 144.819 1410.09 143.512 1410.09 142C1410.09 140.488 1410.38 139.191 1410.96 138.108C1411.54 137.007 1412.33 136.167 1413.34 135.588C1414.34 135.009 1415.49 134.72 1416.78 134.72C1418.09 134.72 1419.2 135 1420.11 135.56C1421.05 136.12 1421.76 136.885 1422.24 137.856C1422.73 138.808 1422.97 139.881 1422.97 141.076C1422.97 141.393 1422.96 141.683 1422.94 141.944C1422.92 142.205 1422.89 142.439 1422.86 142.644H1411.54V140.656H1421.88L1420.73 140.88C1420.73 139.536 1420.36 138.5 1419.61 137.772C1418.88 137.044 1417.92 136.68 1416.72 136.68C1415.81 136.68 1415.02 136.895 1414.34 137.324C1413.69 137.735 1413.18 138.341 1412.8 139.144C1412.45 139.928 1412.27 140.88 1412.27 142C1412.27 143.101 1412.46 144.053 1412.83 144.856C1413.21 145.659 1413.73 146.275 1414.4 146.704C1415.09 147.115 1415.91 147.32 1416.86 147.32C1417.89 147.32 1418.72 147.124 1419.36 146.732C1420.01 146.34 1420.53 145.808 1420.92 145.136L1422.69 146.172C1422.33 146.807 1421.88 147.357 1421.32 147.824C1420.78 148.291 1420.13 148.655 1419.38 148.916C1418.66 149.159 1417.84 149.28 1416.92 149.28ZM1433.03 134.72C1434 134.72 1434.85 134.869 1435.57 135.168C1436.32 135.467 1436.96 135.896 1437.51 136.456C1438.05 137.016 1438.49 137.679 1438.82 138.444L1436.69 139.452C1436.39 138.556 1435.94 137.875 1435.32 137.408C1434.72 136.923 1433.94 136.68 1432.97 136.68C1432.04 136.68 1431.23 136.895 1430.56 137.324C1429.89 137.735 1429.38 138.341 1429.02 139.144C1428.67 139.928 1428.49 140.88 1428.49 142C1428.49 143.101 1428.67 144.053 1429.02 144.856C1429.38 145.659 1429.89 146.275 1430.56 146.704C1431.23 147.115 1432.04 147.32 1432.97 147.32C1433.7 147.32 1434.32 147.208 1434.85 146.984C1435.39 146.76 1435.83 146.433 1436.16 146.004C1436.52 145.575 1436.76 145.052 1436.89 144.436L1438.96 145.164C1438.64 146.023 1438.21 146.76 1437.65 147.376C1437.1 147.992 1436.44 148.468 1435.66 148.804C1434.89 149.121 1434.01 149.28 1433.03 149.28C1431.72 149.28 1430.55 148.991 1429.53 148.412C1428.5 147.833 1427.7 147.003 1427.12 145.92C1426.54 144.819 1426.25 143.512 1426.25 142C1426.25 140.488 1426.54 139.191 1427.12 138.108C1427.7 137.007 1428.5 136.167 1429.53 135.588C1430.55 135.009 1431.72 134.72 1433.03 134.72ZM1451.07 139.956C1451.07 138.911 1450.79 138.108 1450.23 137.548C1449.67 136.969 1448.88 136.68 1447.85 136.68C1446.88 136.68 1446.06 136.895 1445.39 137.324C1444.72 137.735 1444.22 138.407 1443.9 139.34L1442.08 138.22C1442.46 137.175 1443.15 136.335 1444.16 135.7C1445.16 135.047 1446.42 134.72 1447.91 134.72C1448.92 134.72 1449.83 134.897 1450.65 135.252C1451.47 135.588 1452.12 136.111 1452.58 136.82C1453.07 137.511 1453.31 138.407 1453.31 139.508V146.284C1453.31 146.956 1453.67 147.292 1454.38 147.292C1454.73 147.292 1455.08 147.245 1455.41 147.152L1455.3 148.916C1454.93 149.103 1454.44 149.196 1453.84 149.196C1453.3 149.196 1452.82 149.093 1452.39 148.888C1451.96 148.683 1451.62 148.375 1451.38 147.964C1451.14 147.535 1451.02 147.003 1451.02 146.368V146.088L1451.58 146.172C1451.35 146.9 1450.97 147.497 1450.43 147.964C1449.89 148.412 1449.28 148.748 1448.61 148.972C1447.94 149.177 1447.27 149.28 1446.62 149.28C1445.8 149.28 1445.03 149.14 1444.32 148.86C1443.62 148.58 1443.05 148.16 1442.62 147.6C1442.21 147.021 1442 146.312 1442 145.472C1442 144.427 1442.35 143.568 1443.04 142.896C1443.75 142.205 1444.73 141.739 1445.98 141.496L1451.52 140.404V142.252L1447.01 143.176C1446.1 143.363 1445.42 143.624 1444.97 143.96C1444.52 144.296 1444.3 144.763 1444.3 145.36C1444.3 145.939 1444.52 146.415 1444.97 146.788C1445.44 147.143 1446.09 147.32 1446.93 147.32C1447.47 147.32 1447.98 147.255 1448.47 147.124C1448.97 146.975 1449.42 146.76 1449.81 146.48C1450.2 146.181 1450.51 145.817 1450.74 145.388C1450.96 144.94 1451.07 144.417 1451.07 143.82V139.956ZM1458.76 149V135H1460.58L1460.88 137.296C1461.28 136.437 1461.85 135.793 1462.59 135.364C1463.36 134.935 1464.28 134.72 1465.36 134.72C1465.61 134.72 1465.87 134.739 1466.15 134.776C1466.45 134.813 1466.7 134.888 1466.9 135L1466.51 137.044C1466.31 136.969 1466.08 136.913 1465.84 136.876C1465.6 136.839 1465.25 136.82 1464.8 136.82C1464.23 136.82 1463.64 136.988 1463.04 137.324C1462.46 137.66 1461.98 138.173 1461.58 138.864C1461.19 139.536 1461 140.395 1461 141.44V149H1458.76ZM1475.21 149.28C1474.05 149.28 1472.99 148.991 1472.02 148.412C1471.05 147.833 1470.27 147.003 1469.69 145.92C1469.11 144.819 1468.82 143.512 1468.82 142C1468.82 140.451 1469.13 139.135 1469.75 138.052C1470.36 136.969 1471.18 136.148 1472.18 135.588C1473.19 135.009 1474.28 134.72 1475.43 134.72C1476.59 134.72 1477.59 135.019 1478.43 135.616C1479.29 136.213 1479.86 137.007 1480.14 137.996L1479.86 138.192V128.56H1482.1V149H1480.14L1479.94 145.612L1480.25 145.444C1480.12 146.265 1479.8 146.965 1479.3 147.544C1478.81 148.104 1478.2 148.533 1477.48 148.832C1476.77 149.131 1476.01 149.28 1475.21 149.28ZM1475.43 147.32C1476.33 147.32 1477.1 147.096 1477.76 146.648C1478.43 146.2 1478.94 145.565 1479.3 144.744C1479.67 143.904 1479.86 142.924 1479.86 141.804C1479.86 140.74 1479.67 139.825 1479.3 139.06C1478.94 138.295 1478.44 137.707 1477.78 137.296C1477.15 136.885 1476.4 136.68 1475.54 136.68C1474.13 136.68 1473.02 137.165 1472.24 138.136C1471.46 139.107 1471.06 140.395 1471.06 142C1471.06 143.605 1471.45 144.893 1472.21 145.864C1472.98 146.835 1474.05 147.32 1475.43 147.32ZM1488.42 145.64C1488.96 145.64 1489.4 145.808 1489.74 146.144C1490.08 146.48 1490.24 146.919 1490.24 147.46C1490.24 148.001 1490.08 148.44 1489.74 148.776C1489.4 149.112 1488.96 149.28 1488.42 149.28C1487.88 149.28 1487.44 149.112 1487.11 148.776C1486.77 148.44 1486.6 148.001 1486.6 147.46C1486.6 146.919 1486.77 146.48 1487.11 146.144C1487.44 145.808 1487.88 145.64 1488.42 145.64ZM1499.99 134.72C1500.96 134.72 1501.81 134.869 1502.54 135.168C1503.28 135.467 1503.93 135.896 1504.47 136.456C1505.01 137.016 1505.45 137.679 1505.79 138.444L1503.66 139.452C1503.36 138.556 1502.9 137.875 1502.29 137.408C1501.69 136.923 1500.9 136.68 1499.93 136.68C1499 136.68 1498.2 136.895 1497.53 137.324C1496.85 137.735 1496.34 138.341 1495.99 139.144C1495.63 139.928 1495.45 140.88 1495.45 142C1495.45 143.101 1495.63 144.053 1495.99 144.856C1496.34 145.659 1496.85 146.275 1497.53 146.704C1498.2 147.115 1499 147.32 1499.93 147.32C1500.66 147.32 1501.29 147.208 1501.81 146.984C1502.35 146.76 1502.79 146.433 1503.13 146.004C1503.48 145.575 1503.72 145.052 1503.85 144.436L1505.93 145.164C1505.61 146.023 1505.17 146.76 1504.61 147.376C1504.07 147.992 1503.41 148.468 1502.62 148.804C1501.86 149.121 1500.98 149.28 1499.99 149.28C1498.68 149.28 1497.52 148.991 1496.49 148.412C1495.46 147.833 1494.66 147.003 1494.08 145.92C1493.5 144.819 1493.21 143.512 1493.21 142C1493.21 140.488 1493.5 139.191 1494.08 138.108C1494.66 137.007 1495.46 136.167 1496.49 135.588C1497.52 135.009 1498.68 134.72 1499.99 134.72ZM1515.66 134.72C1516.98 134.72 1518.15 135.009 1519.16 135.588C1520.18 136.167 1520.99 137.007 1521.57 138.108C1522.14 139.191 1522.43 140.488 1522.43 142C1522.43 143.512 1522.14 144.819 1521.57 145.92C1520.99 147.003 1520.18 147.833 1519.16 148.412C1518.15 148.991 1516.98 149.28 1515.66 149.28C1514.35 149.28 1513.18 148.991 1512.16 148.412C1511.13 147.833 1510.33 147.003 1509.75 145.92C1509.17 144.819 1508.88 143.512 1508.88 142C1508.88 140.488 1509.17 139.191 1509.75 138.108C1510.33 137.007 1511.13 136.167 1512.16 135.588C1513.18 135.009 1514.35 134.72 1515.66 134.72ZM1515.66 136.652C1514.71 136.652 1513.89 136.867 1513.22 137.296C1512.55 137.725 1512.03 138.341 1511.65 139.144C1511.3 139.928 1511.12 140.88 1511.12 142C1511.12 143.101 1511.3 144.053 1511.65 144.856C1512.03 145.659 1512.55 146.275 1513.22 146.704C1513.89 147.133 1514.71 147.348 1515.66 147.348C1516.61 147.348 1517.42 147.133 1518.09 146.704C1518.77 146.275 1519.28 145.659 1519.63 144.856C1520.01 144.053 1520.19 143.101 1520.19 142C1520.19 140.88 1520.01 139.928 1519.63 139.144C1519.28 138.341 1518.77 137.725 1518.09 137.296C1517.42 136.867 1516.61 136.652 1515.66 136.652ZM1526.65 149V135H1528.61L1528.75 137.184C1529.25 136.325 1529.91 135.7 1530.71 135.308C1531.53 134.916 1532.37 134.72 1533.23 134.72C1534.22 134.72 1535.15 134.944 1536.03 135.392C1536.91 135.84 1537.58 136.531 1538.05 137.464C1538.35 136.829 1538.77 136.316 1539.31 135.924C1539.85 135.513 1540.44 135.215 1541.07 135.028C1541.72 134.823 1542.34 134.72 1542.92 134.72C1543.81 134.72 1544.66 134.907 1545.47 135.28C1546.29 135.653 1546.96 136.232 1547.48 137.016C1548.01 137.8 1548.27 138.808 1548.27 140.04V149H1546.03V140.264C1546.03 138.995 1545.71 138.08 1545.07 137.52C1544.44 136.96 1543.66 136.68 1542.72 136.68C1541.99 136.68 1541.31 136.857 1540.68 137.212C1540.04 137.567 1539.53 138.089 1539.14 138.78C1538.77 139.471 1538.58 140.32 1538.58 141.328V149H1536.34V140.264C1536.34 138.995 1536.02 138.08 1535.39 137.52C1534.75 136.96 1533.97 136.68 1533.03 136.68C1532.42 136.68 1531.78 136.848 1531.13 137.184C1530.5 137.501 1529.96 138.015 1529.53 138.724C1529.11 139.433 1528.89 140.367 1528.89 141.524V149H1526.65Z" fill="white"/>
</svg>
