<svg width="280" height="279" viewBox="0 0 280 279" fill="none" xmlns="http://www.w3.org/2000/svg">
<path d="M213.062 245.466C192.075 259.983 167.256 267.952 141.741 268.365C116.226 268.777 91.1623 261.615 69.7179 247.783C48.2735 233.952 31.4119 214.072 21.2651 190.658C11.1183 167.244 8.14203 141.347 12.7126 116.242C17.2831 91.1363 29.1952 67.9498 46.9426 49.614C64.6901 31.2783 87.4759 18.6167 112.419 13.2301C137.362 7.84364 163.342 9.97414 187.075 19.3523C210.807 28.7304 231.226 44.935 245.749 65.9171C255.394 79.8519 262.2 95.5504 265.777 112.116C269.355 128.681 269.633 145.789 266.598 162.462C263.563 179.136 257.272 195.048 248.086 209.29C238.901 223.531 226.999 235.824 213.062 245.466Z" fill="url(#paint0_radial_132_9205)"/>
<path d="M213.062 245.466C192.075 259.983 167.256 267.952 141.741 268.365C116.226 268.777 91.1623 261.615 69.7179 247.783C48.2735 233.952 31.4119 214.072 21.2651 190.658C11.1183 167.244 8.14203 141.347 12.7126 116.242C17.2831 91.1363 29.1952 67.9498 46.9426 49.614C64.6901 31.2783 87.4759 18.6167 112.419 13.2301C137.362 7.84364 163.342 9.97414 187.075 19.3523C210.807 28.7304 231.226 44.935 245.749 65.9171C255.394 79.8519 262.2 95.5504 265.777 112.116C269.355 128.681 269.633 145.789 266.598 162.462C263.563 179.136 257.272 195.048 248.086 209.29C238.901 223.531 226.999 235.824 213.062 245.466Z" fill="url(#paint1_radial_132_9205)"/>
<path d="M139.653 0.860195C171.727 0.8926 202.799 12.0441 227.574 32.4151C252.349 52.7861 269.295 81.1165 275.526 112.58C281.757 144.044 276.887 176.695 261.745 204.97C246.603 233.246 222.127 255.398 192.486 267.652C162.844 279.906 129.871 281.504 99.1828 272.175C68.4949 262.846 41.9906 243.165 24.1848 216.487C6.37911 189.809 -1.6266 157.782 1.53144 125.863C4.68948 93.9443 18.8159 64.1076 41.5044 41.4356C54.3743 28.5264 69.6738 18.2943 86.5197 11.33C103.366 4.36581 121.424 0.807383 139.653 0.860195ZM139.653 0C62.5275 0 0 62.4158 0 139.403C0 216.391 62.5275 278.806 139.653 278.806C216.778 278.806 279.314 216.399 279.314 139.403C279.314 62.4072 216.786 0 139.653 0Z" fill="white"/>
<path d="M144.022 122.018C148.037 122.018 151.291 118.779 151.291 114.784C151.291 110.789 148.037 107.55 144.022 107.55C140.008 107.55 136.754 110.789 136.754 114.784C136.754 118.779 140.008 122.018 144.022 122.018Z" stroke="#FF4E4A" stroke-width="4.30098" stroke-linecap="round" stroke-linejoin="round"/>
<path d="M152.512 132.642V181.725" stroke="#FF4E4A" stroke-width="4.30098" stroke-linecap="round" stroke-linejoin="round"/>
<path d="M135.653 181.725V132.642" stroke="#FF4E4A" stroke-width="4.30098" stroke-linecap="round" stroke-linejoin="round"/>
<path d="M116.358 166.043V132.642" stroke="#FF4E4A" stroke-width="4.30098" stroke-linecap="round" stroke-linejoin="round"/>
<path d="M144.022 181.699V149.76" stroke="#FF4E4A" stroke-width="4.30098" stroke-linecap="round" stroke-linejoin="round"/>
<circle cx="152.512" cy="149.76" r="2.15049" fill="#FF4E4A"/>
<path d="M144.1 122.018H140.478C135.489 122.018 129.623 123.902 129.623 134.241V146.181C129.625 146.812 129.751 147.436 129.995 148.018C130.239 148.601 130.595 149.129 131.044 149.573C131.492 150.017 132.023 150.369 132.607 150.607C133.192 150.846 133.817 150.967 134.448 150.964H135.653" stroke="#FF4E4A" stroke-width="4.30098" stroke-linecap="round" stroke-linejoin="round"/>
<path d="M124.728 122.018C128.742 122.018 131.997 118.779 131.997 114.784C131.997 110.789 128.742 107.55 124.728 107.55C120.714 107.55 117.459 110.789 117.459 114.784C117.459 118.779 120.714 122.018 124.728 122.018Z" stroke="#FF4E4A" stroke-width="4.30098" stroke-linecap="round" stroke-linejoin="round"/>
<path d="M124.797 122.018H121.184C116.195 122.018 110.328 123.902 110.328 134.241V146.181C110.331 146.812 110.457 147.436 110.701 148.018C110.945 148.601 111.301 149.129 111.749 149.573C112.198 150.017 112.729 150.369 113.313 150.607C113.898 150.846 114.523 150.967 115.154 150.964H116.358" stroke="#FF4E4A" stroke-width="4.30098" stroke-linecap="round" stroke-linejoin="round"/>
<path d="M171.833 160.555V132.642" stroke="#FF4E4A" stroke-width="4.30098" stroke-linecap="round" stroke-linejoin="round"/>
<path d="M163.463 122.018C167.477 122.018 170.731 118.779 170.731 114.784C170.731 110.789 167.477 107.55 163.463 107.55C159.448 107.55 156.194 110.789 156.194 114.784C156.194 118.779 159.448 122.018 163.463 122.018Z" stroke="#FF4E4A" stroke-width="4.30098" stroke-linecap="round" stroke-linejoin="round"/>
<path d="M163.394 122.018H167.015C171.996 122.018 177.862 123.902 177.862 134.241V146.181C177.86 146.811 177.734 147.435 177.491 148.016C177.247 148.598 176.892 149.126 176.445 149.57C175.997 150.014 175.467 150.366 174.884 150.605C174.3 150.844 173.676 150.966 173.045 150.964H171.833" stroke="#FF4E4A" stroke-width="4.30098" stroke-linecap="round" stroke-linejoin="round"/>
<path d="M144.1 122.018H147.713C152.702 122.018 158.568 123.902 158.568 134.241V146.181C158.566 146.812 158.439 147.436 158.196 148.018C157.952 148.601 157.595 149.129 157.147 149.573C156.699 150.017 156.168 150.369 155.583 150.607C154.999 150.846 154.374 150.967 153.743 150.964H152.538" stroke="#FF4E4A" stroke-width="4.30098" stroke-linecap="round" stroke-linejoin="round"/>
<path d="M143.085 207.712C151.729 202.756 160.039 197.239 167.962 191.196C176.447 184.638 183.316 176.223 188.042 166.595C192.768 156.968 195.224 146.386 195.221 135.662V99.2155C170.129 95.1295 143.085 79.0869 143.085 79.0869C143.085 79.0869 116.032 95.1295 90.9482 99.2155V135.662C90.9442 146.386 93.3986 156.968 98.1227 166.595C102.847 176.222 109.715 184.638 118.199 191.196C126.123 197.241 134.436 202.758 143.085 207.712Z" stroke="#FF4E4A" stroke-width="4.30098" stroke-linecap="round" stroke-linejoin="round"/>
<defs>
<radialGradient id="paint0_radial_132_9205" cx="0" cy="0" r="1" gradientUnits="userSpaceOnUse" gradientTransform="translate(206.128 217.26) scale(368.301 368.301)">
<stop stop-color="#4256FD" stop-opacity="0"/>
<stop offset="0.1" stop-color="#3B36CB" stop-opacity="0.38"/>
<stop offset="0.23" stop-color="#320F8F" stop-opacity="0.82"/>
<stop offset="0.29" stop-color="#2F0078"/>
<stop offset="0.34" stop-color="#320279"/>
<stop offset="0.38" stop-color="#3D0A7A"/>
<stop offset="0.41" stop-color="#4E167D"/>
<stop offset="0.45" stop-color="#662880"/>
<stop offset="0.48" stop-color="#863E85"/>
<stop offset="0.51" stop-color="#AC5A8B"/>
<stop offset="0.55" stop-color="#DF7E93"/>
</radialGradient>
<radialGradient id="paint1_radial_132_9205" cx="0" cy="0" r="1" gradientUnits="userSpaceOnUse" gradientTransform="translate(117.717 111.783) scale(164.607 164.607)">
<stop offset="0.42" stop-color="#390C66" stop-opacity="0.03"/>
<stop offset="0.49" stop-color="#340D61" stop-opacity="0.38"/>
<stop offset="0.57" stop-color="#310E5E" stop-opacity="0.65"/>
<stop offset="0.65" stop-color="#2E0F5B" stop-opacity="0.85"/>
<stop offset="0.74" stop-color="#2C0F59" stop-opacity="0.96"/>
<stop offset="0.84" stop-color="#2C0F59"/>
<stop offset="0.87" stop-color="#2F1059"/>
<stop offset="0.89" stop-color="#3A1558"/>
<stop offset="0.91" stop-color="#4C1D56"/>
<stop offset="0.93" stop-color="#652854"/>
<stop offset="0.95" stop-color="#863650"/>
<stop offset="0.97" stop-color="#AE474D"/>
<stop offset="0.99" stop-color="#DC5B48"/>
<stop offset="1" stop-color="#FE6A45"/>
</radialGradient>
</defs>
</svg>
