<svg width="280" height="279" viewBox="0 0 280 279" fill="none" xmlns="http://www.w3.org/2000/svg">
<path d="M213.07 245.466C192.084 259.983 167.265 267.952 141.75 268.365C116.235 268.777 91.1713 261.615 69.7269 247.783C48.2825 233.952 31.421 214.072 21.2742 190.658C11.1274 167.244 8.15105 141.347 12.7216 116.242C17.2921 91.1363 29.2043 67.9498 46.9517 49.614C64.6992 31.2783 87.485 18.6167 112.428 13.2301C137.371 7.84364 163.351 9.97414 187.084 19.3523C210.816 28.7304 231.235 44.935 245.758 65.9171C255.403 79.8519 262.209 95.5504 265.786 112.116C269.364 128.681 269.643 145.789 266.607 162.462C263.572 179.136 257.281 195.048 248.095 209.29C238.909 223.531 227.008 235.824 213.07 245.466Z" fill="url(#paint0_radial_132_9177)"/>
<path d="M213.07 245.466C192.084 259.983 167.265 267.952 141.75 268.365C116.235 268.777 91.1713 261.615 69.7269 247.783C48.2825 233.952 31.421 214.072 21.2742 190.658C11.1274 167.244 8.15105 141.347 12.7216 116.242C17.2921 91.1363 29.2043 67.9498 46.9517 49.614C64.6992 31.2783 87.485 18.6167 112.428 13.2301C137.371 7.84364 163.351 9.97414 187.084 19.3523C210.816 28.7304 231.235 44.935 245.758 65.9171C255.403 79.8519 262.209 95.5504 265.786 112.116C269.364 128.681 269.643 145.789 266.607 162.462C263.572 179.136 257.281 195.048 248.095 209.29C238.909 223.531 227.008 235.824 213.07 245.466Z" fill="url(#paint1_radial_132_9177)"/>
<path d="M139.661 0.860195C171.738 0.893765 202.811 12.0471 227.587 32.4202C252.363 52.7932 269.309 81.1259 275.539 112.592C281.769 144.057 276.897 176.71 261.754 204.987C246.611 233.264 222.132 255.416 192.488 267.67C162.845 279.924 129.869 281.521 99.18 272.191C68.4905 262.86 41.9852 243.178 24.1791 216.497C6.37308 189.816 -1.63222 157.788 1.52687 125.867C4.68596 93.9465 18.814 64.1084 41.5044 41.4356C54.3754 28.5253 69.6763 18.2927 86.5238 11.3284C103.371 4.36412 121.431 0.806246 139.661 0.860195ZM139.661 0C62.5276 0 0 62.4158 0 139.403C0 216.391 62.5276 278.806 139.661 278.806C216.795 278.806 279.323 216.399 279.323 139.403C279.323 62.4072 216.795 0 139.661 0Z" fill="white"/>
<path d="M86.1313 184.27C85.5784 184.27 85.0481 184.051 84.6563 183.661C84.2646 183.271 84.0433 182.742 84.041 182.189V133.829C84.041 133.274 84.2613 132.743 84.6533 132.351C85.0453 131.959 85.577 131.738 86.1313 131.738C86.6857 131.738 87.2174 131.959 87.6094 132.351C88.0014 132.743 88.2217 133.274 88.2217 133.829V182.189C88.2194 182.742 87.9981 183.271 87.6063 183.661C87.2146 184.051 86.6842 184.27 86.1313 184.27Z" fill="#F85638"/>
<path d="M165.545 184.27C164.992 184.27 164.461 184.051 164.07 183.661C163.678 183.271 163.457 182.741 163.454 182.189V133.957C163.454 133.403 163.675 132.871 164.067 132.479C164.459 132.087 164.99 131.867 165.545 131.867C166.099 131.867 166.631 132.087 167.023 132.479C167.415 132.871 167.635 133.403 167.635 133.957V182.189C167.635 182.463 167.581 182.734 167.476 182.987C167.37 183.24 167.216 183.47 167.022 183.664C166.828 183.857 166.597 184.01 166.344 184.114C166.09 184.218 165.819 184.271 165.545 184.27Z" fill="#F85638"/>
<path d="M173.906 184.27H77.7704C77.4864 184.289 77.2016 184.248 76.9336 184.152C76.6657 184.056 76.4204 183.906 76.2128 183.712C76.0052 183.517 75.8396 183.282 75.7265 183.02C75.6134 182.759 75.5549 182.478 75.5549 182.193C75.5549 181.908 75.6134 181.627 75.7265 181.366C75.8396 181.104 76.0052 180.869 76.2128 180.674C76.4204 180.48 76.6657 180.33 76.9336 180.234C77.2016 180.138 77.4864 180.097 77.7704 180.116H173.906C174.19 180.097 174.475 180.138 174.743 180.234C175.01 180.33 175.256 180.48 175.463 180.674C175.671 180.869 175.837 181.104 175.95 181.366C176.063 181.627 176.121 181.908 176.121 182.193C176.121 182.478 176.063 182.759 175.95 183.02C175.837 183.282 175.671 183.517 175.463 183.712C175.256 183.906 175.01 184.056 174.743 184.152C174.475 184.248 174.19 184.289 173.906 184.27Z" fill="#F85638"/>
<path d="M173.906 113.201C173.612 113.203 173.321 113.142 173.052 113.021C172.783 112.901 172.544 112.725 172.349 112.505L156.246 94.518H95.4301L79.3531 112.505C78.9834 112.917 78.4659 113.166 77.9133 113.198C77.3607 113.23 76.8177 113.043 76.4026 112.677C76.1982 112.496 76.0316 112.276 75.9122 112.031C75.7929 111.785 75.7231 111.518 75.7072 111.246C75.6912 110.973 75.7293 110.7 75.8191 110.442C75.9089 110.185 76.0487 109.947 76.2306 109.743L92.9442 91.06C93.1425 90.8416 93.3841 90.6668 93.6537 90.5468C93.9232 90.4269 94.2147 90.3644 94.5098 90.3633H157.209C157.503 90.3645 157.793 90.4271 158.062 90.5471C158.33 90.6671 158.57 90.8418 158.766 91.06L175.489 109.743C175.67 109.947 175.81 110.185 175.9 110.442C175.99 110.7 176.028 110.973 176.012 111.246C175.996 111.518 175.926 111.785 175.807 112.031C175.688 112.276 175.521 112.496 175.317 112.677C174.927 113.02 174.425 113.207 173.906 113.201Z" fill="#F85638"/>
<path d="M77.7704 113.201C77.3719 113.201 76.9819 113.086 76.6471 112.87C76.3123 112.654 76.0469 112.346 75.8826 111.983C75.7184 111.62 75.6622 111.217 75.7208 110.823C75.7795 110.429 75.9505 110.06 76.2134 109.761L92.927 91.0773C93.298 90.6673 93.8152 90.4195 94.3671 90.3874C94.919 90.3552 95.4614 90.5412 95.8775 90.9052C96.0835 91.0849 96.2518 91.3038 96.3726 91.5491C96.4933 91.7944 96.5642 92.0612 96.581 92.3341C96.5978 92.607 96.5603 92.8805 96.4705 93.1387C96.3808 93.397 96.2406 93.6348 96.0582 93.8385L79.3531 112.505C79.1547 112.727 78.9106 112.905 78.6375 113.025C78.3645 113.145 78.0688 113.206 77.7704 113.201Z" fill="#F85638"/>
<path d="M96.9957 113.201C96.6543 113.2 96.3181 113.118 96.0151 112.96C95.5283 112.701 95.1644 112.259 95.0031 111.732C94.8418 111.204 94.8964 110.635 95.1549 110.147L105.159 91.464C105.288 91.2216 105.464 91.007 105.676 90.8325C105.888 90.6581 106.133 90.5272 106.396 90.4473C106.659 90.3674 106.934 90.3401 107.208 90.3669C107.481 90.3938 107.747 90.4743 107.989 90.6038C108.231 90.7305 108.445 90.9038 108.619 91.1137C108.793 91.3235 108.924 91.5659 109.004 91.8266C109.084 92.0873 109.111 92.3613 109.085 92.6328C109.058 92.9042 108.978 93.1677 108.849 93.408L98.8193 112.091C98.6431 112.423 98.3807 112.701 98.0598 112.897C97.7389 113.092 97.3713 113.197 96.9957 113.201Z" fill="#F85638"/>
<path d="M116.23 113.202C116.107 113.214 115.983 113.214 115.86 113.202C115.588 113.158 115.328 113.061 115.094 112.915C114.86 112.77 114.657 112.58 114.497 112.356C114.337 112.132 114.223 111.879 114.162 111.611C114.1 111.342 114.093 111.064 114.14 110.793L117.486 92.1096C117.583 91.5632 117.893 91.0777 118.348 90.7599C118.803 90.4421 119.365 90.318 119.912 90.415C120.458 90.512 120.943 90.822 121.261 91.2769C121.579 91.7318 121.703 92.2944 121.606 92.8408L118.26 111.524C118.165 111.994 117.912 112.417 117.542 112.723C117.173 113.028 116.709 113.197 116.23 113.202Z" fill="#F85638"/>
<path d="M135.455 113.202C134.964 113.205 134.488 113.034 134.112 112.719C133.735 112.404 133.483 111.965 133.399 111.481L130.053 92.798C129.983 92.2646 130.121 91.7248 130.439 91.2908C130.757 90.8568 131.23 90.562 131.759 90.4678C132.289 90.3737 132.835 90.4873 133.283 90.7851C133.731 91.0829 134.047 91.542 134.165 92.0668L137.511 110.75C137.558 111.022 137.55 111.299 137.489 111.568C137.427 111.836 137.313 112.09 137.153 112.314C136.993 112.538 136.791 112.728 136.557 112.873C136.323 113.018 136.062 113.115 135.79 113.159C135.68 113.184 135.568 113.199 135.455 113.202Z" fill="#F85638"/>
<path d="M154.68 113.202C154.302 113.204 153.93 113.103 153.606 112.909C153.281 112.715 153.016 112.435 152.839 112.101L142.801 93.4172C142.672 93.1768 142.592 92.9134 142.565 92.6419C142.539 92.3705 142.566 92.0965 142.646 91.8357C142.726 91.575 142.857 91.3327 143.031 91.1228C143.206 90.9129 143.42 90.7396 143.661 90.6129C144.15 90.3541 144.721 90.2993 145.249 90.4605C145.778 90.6217 146.222 90.9858 146.483 91.4731L156.512 110.157C156.643 110.397 156.724 110.662 156.751 110.934C156.778 111.206 156.751 111.481 156.671 111.743C156.591 112.005 156.46 112.248 156.285 112.459C156.11 112.669 155.895 112.843 155.652 112.969C155.352 113.124 155.018 113.204 154.68 113.202Z" fill="#F85638"/>
<path d="M173.906 113.202C173.612 113.203 173.32 113.142 173.052 113.022C172.783 112.901 172.544 112.725 172.349 112.505L155.627 93.8214C155.445 93.6178 155.305 93.3803 155.215 93.1225C155.125 92.8646 155.087 92.5916 155.103 92.3191C155.119 92.0465 155.189 91.7798 155.308 91.5343C155.427 91.2887 155.594 91.0691 155.799 90.8882C156.214 90.522 156.757 90.3346 157.309 90.3668C157.862 90.3991 158.379 90.6483 158.749 91.0602L175.471 109.744C175.653 109.947 175.793 110.185 175.883 110.443C175.973 110.7 176.011 110.973 175.995 111.246C175.979 111.519 175.909 111.785 175.79 112.031C175.67 112.276 175.504 112.496 175.299 112.677C174.915 113.016 174.419 113.203 173.906 113.202Z" fill="#F85638"/>
<path d="M163.454 129.812C161.672 129.801 159.913 129.412 158.292 128.671C156.671 127.929 155.226 126.852 154.053 125.512C152.88 126.852 151.435 127.926 149.813 128.662C148.192 129.399 146.431 129.779 144.651 129.779C142.87 129.779 141.11 129.399 139.488 128.662C137.866 127.926 136.421 126.852 135.249 125.512C134.076 126.852 132.629 127.927 131.007 128.663C129.385 129.399 127.624 129.78 125.842 129.78C124.061 129.78 122.3 129.399 120.678 128.663C119.055 127.927 117.609 126.852 116.436 125.512C115.263 126.852 113.817 127.927 112.195 128.663C110.572 129.399 108.812 129.78 107.03 129.78C105.249 129.78 103.488 129.399 101.865 128.663C100.243 127.927 98.7969 126.852 97.6237 125.512C96.4513 126.854 95.0066 127.932 93.3856 128.674C91.7646 129.415 90.0044 129.803 88.2219 129.812C87.3548 129.822 86.4894 129.735 85.6413 129.554C82.8258 128.981 80.2938 127.455 78.4717 125.233C76.6496 123.012 75.6486 120.23 75.6372 117.357V111.129C75.6372 110.855 75.6912 110.584 75.7964 110.33C75.9015 110.077 76.0557 109.847 76.2499 109.654C76.4441 109.461 76.6746 109.307 76.9281 109.203C77.1817 109.099 77.4533 109.046 77.7274 109.047H173.863C174.137 109.046 174.409 109.099 174.662 109.203C174.916 109.307 175.146 109.461 175.34 109.654C175.535 109.847 175.689 110.077 175.794 110.33C175.899 110.584 175.953 110.855 175.953 111.129V117.357C175.942 120.236 174.937 123.024 173.108 125.248C171.279 127.472 168.738 128.996 165.915 129.563C165.106 129.732 164.281 129.816 163.454 129.812ZM154.053 119.722C154.448 119.72 154.836 119.83 155.171 120.041C155.507 120.251 155.775 120.552 155.945 120.909C156.615 122.334 157.677 123.537 159.008 124.378C160.338 125.219 161.881 125.663 163.454 125.658C164.007 125.665 164.558 125.611 165.097 125.494C166.985 125.123 168.685 124.109 169.91 122.626C171.135 121.142 171.808 119.281 171.816 117.357V113.202H79.8607V117.357C79.8669 119.275 80.5357 121.131 81.7537 122.613C82.9717 124.094 84.664 125.109 86.5444 125.486C87.1093 125.61 87.6866 125.667 88.2648 125.658C89.8399 125.664 91.3841 125.22 92.7158 124.379C94.0476 123.538 95.1116 122.334 95.7829 120.909C95.955 120.555 96.2233 120.256 96.5572 120.047C96.8911 119.838 97.2771 119.727 97.6711 119.727C98.065 119.727 98.451 119.838 98.7849 120.047C99.1188 120.256 99.3871 120.555 99.5592 120.909C100.234 122.331 101.298 123.531 102.628 124.372C103.958 125.213 105.5 125.659 107.073 125.659C108.646 125.659 110.188 125.213 111.518 124.372C112.848 123.531 113.912 122.331 114.587 120.909C114.758 120.553 115.026 120.252 115.361 120.041C115.696 119.83 116.084 119.718 116.479 119.718C116.875 119.718 117.262 119.83 117.597 120.041C117.932 120.252 118.201 120.553 118.372 120.909C119.047 122.331 120.111 123.531 121.441 124.372C122.771 125.213 124.312 125.659 125.885 125.659C127.459 125.659 129 125.213 130.33 124.372C131.66 123.531 132.724 122.331 133.399 120.909C133.571 120.555 133.84 120.256 134.174 120.047C134.507 119.838 134.893 119.727 135.287 119.727C135.681 119.727 136.067 119.838 136.401 120.047C136.735 120.256 137.003 120.555 137.175 120.909C137.85 122.331 138.915 123.531 140.245 124.372C141.575 125.213 143.116 125.659 144.689 125.659C146.263 125.659 147.804 125.213 149.134 124.372C150.464 123.531 151.528 122.331 152.203 120.909C152.371 120.559 152.633 120.263 152.959 120.053C153.286 119.844 153.664 119.729 154.053 119.722Z" fill="#F85638"/>
<path d="M157.192 158.163H94.4926C94.2192 158.164 93.9483 158.112 93.6953 158.008C93.4423 157.905 93.2122 157.752 93.0181 157.56C92.824 157.367 92.6697 157.138 92.5641 156.886C92.4584 156.634 92.4035 156.364 92.4023 156.09V135.213C92.4023 134.659 92.6225 134.127 93.0145 133.735C93.4065 133.343 93.9382 133.123 94.4926 133.123C95.0469 133.123 95.5786 133.343 95.9706 133.735C96.3626 134.127 96.5829 134.659 96.5829 135.213V153.974H155.076V135.213C155.076 134.659 155.296 134.127 155.688 133.735C156.08 133.343 156.612 133.123 157.166 133.123C157.721 133.123 158.252 133.343 158.644 133.735C159.036 134.127 159.257 134.659 159.257 135.213V156.09C159.254 156.638 159.037 157.163 158.65 157.551C158.264 157.939 157.74 158.159 157.192 158.163Z" fill="#F85638"/>
<path d="M142.466 179.781C140.263 179.779 138.115 179.097 136.315 177.828L135.799 178.224C135.345 178.579 134.825 178.841 134.269 178.995C133.713 179.149 133.133 179.192 132.56 179.121C131.988 179.05 131.436 178.866 130.934 178.581C130.433 178.295 129.993 177.914 129.64 177.458L123.361 169.338C122.651 168.416 122.336 167.251 122.482 166.097C122.629 164.943 123.226 163.894 124.143 163.179L124.384 162.998C123.1 160.772 122.666 158.156 123.161 155.634C123.656 153.112 125.047 150.854 127.077 149.278L141.7 137.958C141.7 137.958 166.241 96.7375 167.841 95.6192C169.195 94.678 170.812 94.1873 172.461 94.2171C175.712 94.2171 179.592 95.9375 183.987 99.2664C189.381 103.361 195.17 109.675 200.382 117.029C205.595 124.384 209.526 131.997 211.565 138.457C214.782 148.607 212.245 152.994 209.552 154.887C208.808 155.409 207.979 155.796 207.101 156.031C206.398 156.211 205.675 156.3 204.95 156.297C203.987 156.297 163.446 166.336 163.446 166.336L148.951 177.561C147.097 179.003 144.814 179.784 142.466 179.781Z" fill="#2C0F59"/>
<path d="M200.408 82.914L192.039 93.6406L194.008 94.7503L189.458 103.516L197.871 92.789L195.866 91.7482L200.4 82.9398C200.4 82.9398 200.417 82.9054 200.408 82.914Z" fill="#F85638"/>
<path d="M224.098 90.561L207.754 100.023L209.879 102.38L199.686 111.266L216.072 101.804L213.965 99.4469L224.141 90.5696L224.098 90.561Z" fill="#F85638"/>
<path d="M240.691 135.051L221.767 134.32L222.3 137.442L208.941 139.524L227.866 140.255L227.332 137.141L240.683 135.068C240.683 135.068 240.7 135.051 240.691 135.051Z" fill="#F85638"/>
<path d="M132.005 160.606L129.124 162.834C128.942 162.973 128.79 163.146 128.675 163.344C128.561 163.541 128.487 163.76 128.459 163.987C128.43 164.213 128.446 164.443 128.507 164.663C128.568 164.884 128.673 165.089 128.814 165.269L134.577 172.709C134.716 172.89 134.888 173.041 135.085 173.155C135.282 173.268 135.5 173.341 135.726 173.37C135.951 173.399 136.18 173.383 136.4 173.323C136.619 173.262 136.824 173.159 137.003 173.019L139.885 170.791L132.005 160.606Z" fill="#F85638"/>
<path d="M168.598 104.333L145.244 139.782L162.448 161.906L201.088 151.007L168.598 104.333Z" fill="#3A0F6B" stroke="#F85638" stroke-width="3.44078" stroke-miterlimit="10"/>
<path d="M204.027 150.413C208.246 147.443 204.063 134.234 194.684 120.908C185.305 107.583 174.282 99.1882 170.063 102.158C165.844 105.127 170.027 118.337 179.406 131.662C188.785 144.987 199.808 153.382 204.027 150.413Z" fill="#3D1268"/>
<path d="M192.675 129.795L185.329 137.253L176.83 125.812L184.701 120.135L192.675 129.795Z" fill="#F85638"/>
<path d="M189.905 123.756C192.047 126.337 193.423 128.917 192.675 129.777C191.927 130.638 189.381 128.668 187.239 126.07C185.097 123.472 183.755 120.608 184.658 120.117C185.794 119.567 187.738 121.158 189.905 123.756Z" fill="#F85638"/>
<path opacity="0.1" d="M182.336 130.113C173.802 117.984 168.813 105.847 171.308 101.546C170.845 101.63 170.405 101.812 170.018 102.079C165.794 105.047 170.018 118.251 179.359 131.575C188.701 144.9 199.763 153.295 203.978 150.328C204.361 150.053 204.678 149.698 204.907 149.287C200.021 150.181 190.877 142.242 182.336 130.113Z" fill="black"/>
<path d="M203.307 152.255C200.727 152.934 197.071 151.575 192.71 148.255C187.944 144.625 182.774 139.016 178.155 132.453C173.536 125.89 169.992 119.129 168.185 113.417C166.181 107.094 166.517 102.759 169.166 100.901C171.815 99.043 176.005 100.178 181.278 104.196C186.043 107.826 191.213 113.443 195.832 120.006C200.451 126.569 203.995 133.33 205.802 139.016C207.806 145.339 207.471 149.665 204.821 151.524C204.366 151.858 203.852 152.106 203.307 152.255ZM171.394 103.034C171.197 103.084 171.011 103.169 170.843 103.284C169.742 104.058 169.192 106.888 170.972 112.496C172.693 117.933 176.134 124.41 180.546 130.733C184.959 137.055 189.948 142.44 194.482 145.889C199.161 149.459 202.008 149.898 203.084 149.124C205.776 147.231 203.385 135.877 193.389 121.675C188.933 115.352 183.987 109.967 179.454 106.509C175.445 103.43 172.77 102.682 171.394 103.034Z" fill="#F85638"/>
<path d="M162.448 161.906L145.33 139.782C145.306 139.758 145.274 139.745 145.24 139.745C145.206 139.745 145.174 139.758 145.15 139.782L131.816 150.104C130.253 151.314 129.234 153.096 128.984 155.058C128.734 157.019 129.273 159 130.483 160.564L138.638 171.093C139.237 171.868 139.982 172.517 140.832 173.004C141.682 173.49 142.62 173.805 143.591 173.928C144.563 174.052 145.549 173.983 146.494 173.725C147.439 173.468 148.324 173.026 149.098 172.426L162.431 162.104C162.446 162.093 162.459 162.079 162.469 162.062C162.478 162.046 162.484 162.028 162.486 162.009C162.488 161.99 162.485 161.971 162.478 161.953C162.472 161.935 162.462 161.919 162.448 161.906Z" fill="#3A0F6B" stroke="#F85638" stroke-width="3.44078" stroke-miterlimit="10"/>
<defs>
<radialGradient id="paint0_radial_132_9177" cx="0" cy="0" r="1" gradientUnits="userSpaceOnUse" gradientTransform="translate(206.137 217.26) scale(368.301 368.301)">
<stop stop-color="#4256FD" stop-opacity="0"/>
<stop offset="0.1" stop-color="#3B36CB" stop-opacity="0.38"/>
<stop offset="0.23" stop-color="#320F8F" stop-opacity="0.82"/>
<stop offset="0.29" stop-color="#2F0078"/>
<stop offset="0.34" stop-color="#320279"/>
<stop offset="0.38" stop-color="#3D0A7A"/>
<stop offset="0.41" stop-color="#4E167D"/>
<stop offset="0.45" stop-color="#662880"/>
<stop offset="0.48" stop-color="#863E85"/>
<stop offset="0.51" stop-color="#AC5A8B"/>
<stop offset="0.55" stop-color="#DF7E93"/>
</radialGradient>
<radialGradient id="paint1_radial_132_9177" cx="0" cy="0" r="1" gradientUnits="userSpaceOnUse" gradientTransform="translate(117.727 111.783) scale(164.607 164.607)">
<stop offset="0.42" stop-color="#390C66" stop-opacity="0.03"/>
<stop offset="0.49" stop-color="#340D61" stop-opacity="0.38"/>
<stop offset="0.57" stop-color="#310E5E" stop-opacity="0.65"/>
<stop offset="0.65" stop-color="#2E0F5B" stop-opacity="0.85"/>
<stop offset="0.74" stop-color="#2C0F59" stop-opacity="0.96"/>
<stop offset="0.84" stop-color="#2C0F59"/>
<stop offset="0.87" stop-color="#2F1059"/>
<stop offset="0.89" stop-color="#3A1558"/>
<stop offset="0.91" stop-color="#4C1D56"/>
<stop offset="0.93" stop-color="#652854"/>
<stop offset="0.95" stop-color="#863650"/>
<stop offset="0.97" stop-color="#AE474D"/>
<stop offset="0.99" stop-color="#DC5B48"/>
<stop offset="1" stop-color="#FE6A45"/>
</radialGradient>
</defs>
</svg>
