<svg width="954" height="440" viewBox="0 0 954 440" fill="none" xmlns="http://www.w3.org/2000/svg">
<path d="M193.149 58.6202V202H148.615V58.6202H193.149ZM102.125 58.6202V202H57.8076V58.6202H102.125ZM172.946 113.148V146.386H79.3145V113.148H172.946ZM286.154 56.4478C301.072 56.4478 313.817 59.4168 324.389 65.3547C335.106 71.1478 343.289 79.5479 348.937 90.5548C354.731 101.562 357.627 114.813 357.627 130.31C357.627 145.807 354.731 159.058 348.937 170.065C343.289 181.072 335.106 189.545 324.389 195.483C313.817 201.276 301.072 204.172 286.154 204.172C271.382 204.172 258.565 201.276 247.703 195.483C236.985 189.545 228.73 181.072 222.937 170.065C217.144 159.058 214.247 145.807 214.247 130.31C214.247 114.813 217.144 101.562 222.937 90.5548C228.73 79.5479 236.985 71.1478 247.703 65.3547C258.565 59.4168 271.382 56.4478 286.154 56.4478ZM286.154 90.3376C280.217 90.3376 275.292 91.8582 271.382 94.8996C267.616 97.7962 264.72 102.141 262.692 107.934C260.81 113.727 259.868 121.186 259.868 130.31C259.868 139.289 260.81 146.748 262.692 152.686C264.72 158.479 267.616 162.896 271.382 165.938C275.292 168.834 280.217 170.283 286.154 170.283C291.948 170.283 296.799 168.834 300.71 165.938C304.62 162.896 307.517 158.479 309.399 152.686C311.282 146.748 312.224 139.289 312.224 130.31C312.224 121.186 311.282 113.727 309.399 107.934C307.517 102.141 304.62 97.7962 300.71 94.8996C296.799 91.8582 291.948 90.3376 286.154 90.3376ZM402.992 202L361.933 58.6202H409.726L429.93 166.807L452.523 58.6202H491.626L515.306 166.155L535.075 58.6202H581.13L540.071 202H492.278L478.375 140.738L472.509 104.893H471.857L465.992 140.738L452.088 202H402.992ZM693.176 58.6202V202H648.859V58.6202H693.176ZM847.238 58.6202V91.8582H801.617V202H757.3V91.8582H711.245V58.6202H847.238Z" fill="#C880FB" fill-opacity="0.32"/>
<path d="M41.4627 387L0.4039 243.62H48.1972L68.4007 351.807L90.9939 243.62H130.097L153.777 351.155L173.546 243.62H219.601L178.542 387H130.749L116.846 325.738L110.98 289.893H110.328L104.463 325.738L90.5594 387H41.4627ZM295.677 241.448C310.594 241.448 323.339 244.417 333.911 250.355C344.629 256.148 352.811 264.548 358.46 275.555C364.253 286.562 367.149 299.813 367.149 315.31C367.149 330.807 364.253 344.058 358.46 355.065C352.811 366.072 344.629 374.545 333.911 380.483C323.339 386.276 310.594 389.172 295.677 389.172C280.904 389.172 268.087 386.276 257.225 380.483C246.508 374.545 238.252 366.072 232.459 355.065C226.666 344.058 223.77 330.807 223.77 315.31C223.77 299.813 226.666 286.562 232.459 275.555C238.252 264.548 246.508 256.148 257.225 250.355C268.087 244.417 280.904 241.448 295.677 241.448ZM295.677 275.338C289.739 275.338 284.815 276.858 280.904 279.9C277.139 282.796 274.242 287.141 272.215 292.934C270.332 298.727 269.39 306.186 269.39 315.31C269.39 324.289 270.332 331.748 272.215 337.686C274.242 343.479 277.139 347.896 280.904 350.938C284.815 353.834 289.739 355.283 295.677 355.283C301.47 355.283 306.322 353.834 310.232 350.938C314.142 347.896 317.039 343.479 318.922 337.686C320.804 331.748 321.746 324.289 321.746 315.31C321.746 306.186 320.804 298.727 318.922 292.934C317.039 287.141 314.142 282.796 310.232 279.9C306.322 276.858 301.47 275.338 295.677 275.338ZM461.953 243.62C479.767 243.62 493.526 247.748 503.229 256.003C513.078 264.113 518.002 274.975 518.002 288.589C518.002 303.796 513.223 315.31 503.664 323.131C494.105 330.952 480.347 334.862 462.388 334.862L458.043 337.252H431.974V387H388.526V243.62H461.953ZM454.784 307.055C461.012 307.055 465.647 305.896 468.688 303.579C471.874 301.117 473.467 297.134 473.467 291.631C473.467 286.127 471.874 282.144 468.688 279.682C465.647 277.22 461.012 275.989 454.784 275.989H431.974V307.055H454.784ZM481.071 316.396L526.257 387H477.812L442.836 324.217L481.071 316.396ZM676.424 243.62L607.558 329.865L605.386 321.393L572.582 363.755L563.024 330.952L628.413 243.62H676.424ZM584.531 243.62V387H540.213V243.62H584.531ZM623.417 289.024L679.9 387H629.717L590.613 313.572L623.417 289.024ZM748.667 241.448C762.281 241.448 774.374 243.331 784.947 247.096C795.519 250.717 804.788 256.293 812.754 263.824L793.419 292.282C786.902 286.779 779.95 282.507 772.564 279.465C765.322 276.279 757.284 274.686 748.45 274.686C743.96 274.686 740.34 275.12 737.588 275.989C734.836 276.858 732.809 278.089 731.505 279.682C730.346 281.131 729.767 282.796 729.767 284.679C729.767 286.996 731.143 288.879 733.895 290.327C736.791 291.776 740.774 293.079 745.843 294.238L767.567 299.234C782.05 302.565 792.84 307.489 799.936 314.007C807.033 320.379 810.581 329.141 810.581 340.293C810.581 351.155 807.829 360.207 802.326 367.448C796.967 374.69 789.581 380.121 780.167 383.741C770.754 387.362 760.109 389.172 748.233 389.172C738.819 389.172 729.622 388.231 720.643 386.348C711.808 384.466 703.698 381.786 696.312 378.31C688.926 374.69 682.553 370.417 677.195 365.493L696.312 336.165C700.222 339.931 705.002 343.334 710.65 346.376C716.298 349.272 722.309 351.59 728.681 353.327C735.053 355.065 741.209 355.934 747.147 355.934C751.347 355.934 754.75 355.572 757.357 354.848C760.109 353.979 762.064 352.821 763.222 351.372C764.381 349.924 764.96 348.186 764.96 346.158C764.96 343.696 764.019 341.741 762.136 340.293C760.253 338.7 756.705 337.324 751.491 336.165L727.595 330.734C719.774 328.996 712.533 326.607 705.871 323.565C699.208 320.524 693.85 316.324 689.795 310.965C685.884 305.462 683.929 298.293 683.929 289.458C683.929 280.044 686.464 271.717 691.533 264.475C696.602 257.234 703.988 251.586 713.691 247.531C723.395 243.475 735.053 241.448 748.667 241.448ZM886.064 241.448C897.361 241.448 907.426 242.968 916.261 246.01C925.096 248.906 932.047 253.469 937.116 259.696C942.33 265.779 944.937 273.455 944.937 282.724C944.937 291.848 943.054 299.234 939.289 304.882C935.523 310.531 930.527 314.731 924.299 317.483C918.071 320.234 911.12 322.045 903.444 322.914L900.402 340.076H862.819L863.037 306.838C871.726 306.258 878.533 305.172 883.457 303.579C888.526 301.986 892.075 299.958 894.102 297.496C896.275 294.889 897.361 291.993 897.361 288.807C897.361 286.055 896.854 283.738 895.84 281.855C894.826 279.972 893.306 278.596 891.278 277.727C889.251 276.713 886.571 276.207 883.24 276.207C878.171 276.207 874.188 277.8 871.292 280.986C868.54 284.172 866.73 288.951 865.861 295.324L823.064 281.855C824.947 274.324 828.278 267.517 833.057 261.434C837.837 255.206 844.499 250.355 853.044 246.879C861.733 243.258 872.74 241.448 886.064 241.448ZM882.371 349.417C889.757 349.417 895.478 351.155 899.533 354.631C903.733 358.107 905.833 362.886 905.833 368.969C905.833 375.197 903.733 380.048 899.533 383.524C895.478 387 889.757 388.738 882.371 388.738C875.13 388.738 869.482 387 865.426 383.524C861.371 380.048 859.344 375.197 859.344 368.969C859.344 362.886 861.371 358.107 865.426 354.631C869.482 351.155 875.13 349.417 882.371 349.417Z" fill="#C880FB" fill-opacity="0.32"/>
</svg>
