<svg width="280" height="279" viewBox="0 0 280 279" fill="none" xmlns="http://www.w3.org/2000/svg">
<path d="M214.326 245.466C193.34 259.983 168.521 267.952 143.006 268.365C117.491 268.777 92.427 261.615 70.9826 247.783C49.5382 233.952 32.6767 214.072 22.5299 190.658C12.3831 167.244 9.4068 141.347 13.9773 116.242C18.5479 91.1363 30.4599 67.9498 48.2074 49.614C65.9549 31.2783 88.7407 18.6167 113.684 13.2301C138.627 7.84364 164.607 9.97414 188.339 19.3523C212.072 28.7304 232.49 44.935 247.014 65.9171C256.659 79.8519 263.465 95.5504 267.042 112.116C270.619 128.681 270.898 145.789 267.863 162.462C264.827 179.136 258.537 195.048 249.351 209.29C240.165 223.531 228.264 235.824 214.326 245.466Z" fill="url(#paint0_radial_132_9145)"/>
<path d="M214.326 245.466C193.34 259.983 168.521 267.952 143.006 268.365C117.491 268.777 92.427 261.615 70.9826 247.783C49.5382 233.952 32.6767 214.072 22.5299 190.658C12.3831 167.244 9.4068 141.347 13.9773 116.242C18.5479 91.1363 30.4599 67.9498 48.2074 49.614C65.9549 31.2783 88.7407 18.6167 113.684 13.2301C138.627 7.84364 164.607 9.97414 188.339 19.3523C212.072 28.7304 232.49 44.935 247.014 65.9171C256.659 79.8519 263.465 95.5504 267.042 112.116C270.619 128.681 270.898 145.789 267.863 162.462C264.827 179.136 258.537 195.048 249.351 209.29C240.165 223.531 228.264 235.824 214.326 245.466Z" fill="url(#paint1_radial_132_9145)"/>
<path d="M139.661 0.860195C171.738 0.891777 202.812 12.0434 227.589 32.4154C252.367 52.7874 269.315 81.1195 275.546 112.585C281.778 144.051 276.908 176.704 261.765 204.982C246.623 233.26 222.145 255.413 192.501 267.668C162.857 279.923 129.882 281.522 99.1917 272.192C68.5016 262.861 41.9956 243.179 24.1889 216.499C6.38222 189.818 -1.62356 157.789 1.53532 125.868C4.6942 93.9472 18.8224 64.1086 41.513 41.4356C54.3818 28.5248 69.6811 18.2917 86.5273 11.3274C103.373 4.36305 121.432 0.805488 139.661 0.860195ZM139.661 0C62.5276 0 0 62.4158 0 139.403C0 216.391 62.5276 278.806 139.661 278.806C216.795 278.806 279.314 216.399 279.314 139.403C279.314 62.4072 216.786 0 139.661 0Z" fill="white"/>
<path d="M170.491 182.955H105.236C103.183 182.955 101.214 182.139 99.7621 180.687C98.3103 179.235 97.4946 177.266 97.4946 175.213V135.911C97.4946 133.857 98.3103 131.888 99.7621 130.436C101.214 128.985 103.183 128.169 105.236 128.169H148.934V132.762H105.236C104.394 132.765 103.586 133.101 102.991 133.698C102.396 134.294 102.062 135.102 102.062 135.945V175.187C102.062 176.029 102.397 176.836 102.992 177.432C103.587 178.027 104.395 178.361 105.236 178.361H170.491C171.333 178.361 172.14 178.027 172.735 177.432C173.331 176.836 173.665 176.029 173.665 175.187V145.657H178.258V175.187C178.262 176.208 178.063 177.22 177.674 178.164C177.285 179.108 176.713 179.965 175.991 180.687C175.269 181.409 174.411 181.981 173.467 182.37C172.523 182.76 171.512 182.958 170.491 182.955Z" fill="#F85638"/>
<path d="M132.556 159.445C127.842 159.445 124.229 156.495 123.567 152.099C122.904 147.704 125.563 141.777 132.986 139.515C143.695 135.541 147.007 129.519 147.764 127.764C148.521 126.01 148.521 124.659 148.246 124.014C147.923 123.57 147.489 123.218 146.988 122.993C146.487 122.768 145.936 122.678 145.39 122.732C143.882 122.798 142.433 123.34 141.252 124.281C140.736 124.693 136.418 128.65 132.65 132.151C132.225 132.545 131.665 132.764 131.085 132.762H116.178C115.752 132.761 115.335 132.642 114.972 132.419C114.609 132.196 114.315 131.877 114.122 131.498C113.931 131.117 113.85 130.691 113.888 130.267C113.926 129.843 114.081 129.438 114.337 129.098C114.879 128.366 127.713 111.163 132.066 106.38L132.281 106.173C136.341 102.733 137.889 102.569 146.508 101.503C150.207 101.047 155.274 100.427 162.602 99.3091C165.845 98.8102 172.925 96.0318 179.385 92.6942C179.902 92.4302 180.501 92.3721 181.06 92.5317C181.618 92.6914 182.096 93.0568 182.396 93.5544L199.204 121.141C199.383 121.437 199.493 121.77 199.526 122.114C199.559 122.459 199.513 122.807 199.394 123.131C199.274 123.456 199.082 123.75 198.834 123.99C198.585 124.231 198.285 124.412 197.956 124.521C192.159 126.422 191.496 126.964 189.527 129.855C188.666 131.246 187.932 132.711 187.333 134.233C184.753 140.254 181.535 147.738 165.484 150.362C149.14 153.02 148.599 153.304 144.1 155.523C142.818 156.142 141.252 156.916 139.007 157.914C136.988 158.872 134.79 159.394 132.556 159.445ZM145.39 118.156C148.599 118.156 151.411 119.799 152.478 122.242C153.338 124.263 153.158 126.878 151.979 129.605C150.801 132.332 146.663 139.36 134.465 143.884C129.528 145.373 127.722 148.813 128.109 151.394C128.616 154.74 132.41 155.807 137.158 153.682C139.343 152.71 140.865 151.962 142.104 151.36C147.265 148.848 148.34 148.478 164.77 145.803C178.335 143.583 180.778 137.897 183.144 132.401C183.831 130.599 184.695 128.87 185.725 127.24C187.961 123.936 189.466 122.663 193.785 121.063L179.54 97.7091C173.08 100.883 166.714 103.292 163.256 103.817C155.867 104.943 150.766 105.537 147.033 106.036C138.827 107.042 138.233 107.111 135.326 109.554C132.255 112.995 124.806 122.749 120.702 128.134H130.104C132.823 125.622 137.794 121.038 138.465 120.547C140.454 119.019 142.883 118.175 145.39 118.139V118.156Z" fill="#F85638"/>
<path d="M199.867 128.969C199.472 128.968 199.084 128.866 198.739 128.674C198.394 128.481 198.104 128.204 197.897 127.868L175.067 90.3202C174.753 89.7985 174.658 89.1736 174.803 88.5821C174.948 87.9906 175.321 87.4806 175.841 87.1633L189.183 79.0431C189.704 78.7282 190.328 78.632 190.919 78.7754C191.511 78.9188 192.021 79.2902 192.34 79.8087L215.169 117.33C215.326 117.588 215.43 117.875 215.476 118.173C215.522 118.472 215.509 118.776 215.437 119.069C215.365 119.363 215.236 119.639 215.057 119.882C214.879 120.125 214.654 120.331 214.395 120.487L201.054 128.608C200.699 128.835 200.288 128.96 199.867 128.969ZM180.185 89.916L200.632 123.515L210.094 117.786L189.604 84.1871L180.185 89.916Z" fill="#F85638"/>
<path d="M204.365 113.692C204.556 114.155 204.606 114.664 204.507 115.155C204.409 115.645 204.167 116.096 203.812 116.449C203.457 116.802 203.006 117.042 202.515 117.139C202.023 117.235 201.515 117.183 201.053 116.99C200.591 116.797 200.197 116.472 199.92 116.055C199.643 115.638 199.497 115.148 199.499 114.647C199.501 114.147 199.651 113.658 199.931 113.243C200.211 112.828 200.607 112.505 201.071 112.316C201.69 112.063 202.385 112.065 203.002 112.323C203.62 112.581 204.11 113.074 204.365 113.692Z" fill="#F85638"/>
<path d="M175.979 169.905H101.572C100.963 169.905 100.379 169.663 99.9478 169.233C99.5171 168.802 99.2751 168.218 99.2751 167.609C99.2751 167 99.5171 166.415 99.9478 165.985C100.379 165.554 100.963 165.312 101.572 165.312H175.979C176.588 165.312 177.172 165.554 177.603 165.985C178.033 166.415 178.275 167 178.275 167.609C178.275 168.218 178.033 168.802 177.603 169.233C177.172 169.663 176.588 169.905 175.979 169.905Z" fill="#F85638"/>
<path d="M199.531 149.587C199.159 149.217 198.654 149.008 198.129 149.008C197.603 149.008 197.099 149.217 196.727 149.587L195.17 151.144L193.604 149.587C193.421 149.403 193.203 149.257 192.963 149.157C192.722 149.057 192.465 149.006 192.205 149.005C191.945 149.005 191.688 149.056 191.447 149.155C191.207 149.254 190.988 149.4 190.804 149.583C190.62 149.767 190.474 149.985 190.374 150.225C190.274 150.465 190.223 150.722 190.222 150.982C190.222 151.242 190.273 151.5 190.372 151.74C190.471 151.98 190.616 152.199 190.8 152.383L192.365 153.949L190.8 155.514C190.616 155.698 190.471 155.917 190.372 156.157C190.273 156.397 190.222 156.655 190.222 156.915C190.223 157.175 190.274 157.432 190.374 157.672C190.474 157.912 190.62 158.131 190.804 158.314C190.988 158.498 191.207 158.643 191.447 158.742C191.688 158.841 191.945 158.892 192.205 158.892C192.465 158.891 192.722 158.84 192.963 158.74C193.203 158.64 193.421 158.494 193.604 158.31L195.17 156.744L196.727 158.31C197.097 158.682 197.601 158.891 198.126 158.892C198.651 158.893 199.155 158.685 199.527 158.314C199.898 157.943 200.108 157.44 200.109 156.915C200.109 156.39 199.902 155.886 199.531 155.514L197.965 153.974L199.531 152.409C199.719 152.225 199.869 152.006 199.971 151.764C200.073 151.521 200.126 151.261 200.126 150.998C200.126 150.735 200.073 150.475 199.971 150.233C199.869 149.99 199.719 149.771 199.531 149.587Z" fill="#F85638"/>
<path d="M155.73 195.987C155.357 195.616 154.853 195.408 154.328 195.408C153.802 195.408 153.298 195.616 152.926 195.987L151.36 197.552L149.803 195.987C149.432 195.615 148.929 195.406 148.404 195.405C147.879 195.404 147.375 195.612 147.003 195.983C146.631 196.353 146.422 196.857 146.421 197.382C146.42 197.907 146.628 198.411 146.999 198.782L148.564 200.348L146.999 201.914C146.666 202.293 146.489 202.785 146.506 203.289C146.522 203.794 146.73 204.273 147.087 204.63C147.444 204.987 147.923 205.195 148.427 205.211C148.932 205.227 149.424 205.051 149.803 204.718L151.36 203.152L152.926 204.726C153.105 204.931 153.324 205.096 153.57 205.212C153.816 205.328 154.083 205.392 154.354 205.401C154.626 205.41 154.896 205.363 155.149 205.263C155.402 205.163 155.631 205.012 155.824 204.82C156.016 204.628 156.166 204.398 156.266 204.146C156.366 203.893 156.413 203.622 156.404 203.351C156.396 203.079 156.331 202.812 156.215 202.567C156.099 202.321 155.934 202.102 155.73 201.922L154.164 200.357L155.73 198.791C155.915 198.608 156.063 198.39 156.164 198.149C156.264 197.908 156.316 197.65 156.316 197.389C156.316 197.128 156.264 196.87 156.164 196.629C156.063 196.388 155.915 196.17 155.73 195.987Z" fill="#F85638"/>
<path d="M89.0301 131.79C88.847 131.606 88.6293 131.459 88.3894 131.359C88.1495 131.259 87.8922 131.208 87.6323 131.208C87.3725 131.208 87.1152 131.259 86.8753 131.359C86.6354 131.459 86.4176 131.606 86.2345 131.79L81.7787 136.246L77.3229 131.79C76.9437 131.457 76.4518 131.281 75.9473 131.297C75.4428 131.313 74.9635 131.521 74.6065 131.878C74.2496 132.235 74.0419 132.714 74.0256 133.219C74.0093 133.723 74.1856 134.215 74.5187 134.594L78.9745 139.05L74.5187 143.506C74.3351 143.69 74.1896 143.908 74.0905 144.149C73.9914 144.389 73.9405 144.647 73.9409 144.907C73.9413 145.167 73.9929 145.424 74.0928 145.664C74.1927 145.904 74.3388 146.122 74.523 146.306C74.7071 146.489 74.9256 146.635 75.166 146.734C75.4063 146.833 75.6638 146.884 75.9238 146.883C76.1838 146.883 76.4412 146.831 76.6813 146.732C76.9213 146.632 77.1393 146.486 77.3229 146.301L81.7787 141.846L86.2345 146.301C86.4181 146.486 86.6366 146.633 86.8772 146.734C87.1178 146.834 87.3759 146.886 87.6366 146.886C87.8962 146.887 88.1532 146.835 88.3926 146.735C88.6319 146.634 88.8487 146.487 89.0301 146.301C89.2145 146.118 89.3609 145.901 89.4608 145.661C89.5606 145.421 89.6121 145.163 89.6121 144.904C89.6121 144.644 89.5606 144.386 89.4608 144.147C89.3609 143.907 89.2145 143.689 89.0301 143.506L84.5743 139.05L89.0301 134.594C89.401 134.222 89.6092 133.718 89.6092 133.192C89.6092 132.666 89.401 132.162 89.0301 131.79Z" fill="#F85638"/>
<path d="M131.644 81.2801C132.229 81.2783 132.801 81.1037 133.287 80.778C133.773 80.4524 134.152 79.9904 134.377 79.4499C134.601 78.9095 134.66 78.3149 134.548 77.7407C134.435 77.1666 134.155 76.6385 133.743 76.223C133.331 75.8075 132.806 75.523 132.232 75.4054C131.659 75.2877 131.064 75.3421 130.522 75.5617C129.979 75.7813 129.514 76.1563 129.184 76.6396C128.854 77.1229 128.675 77.6929 128.668 78.278C128.665 78.671 128.739 79.0608 128.887 79.4249C129.035 79.789 129.254 80.1201 129.531 80.3992C129.807 80.6783 130.137 80.8999 130.499 81.0511C130.862 81.2022 131.251 81.2801 131.644 81.2801Z" fill="#F85638"/>
<path d="M118.243 115.137L106.776 103.671C104.256 101.15 102.84 97.7306 102.84 94.1656C102.84 90.6007 104.256 87.1817 106.776 84.6605L118.243 73.1941C118.613 72.8222 118.821 72.3183 118.82 71.7932C118.819 71.2681 118.61 70.7649 118.238 70.3941C117.866 70.0234 117.362 69.8156 116.837 69.8164C116.312 69.8172 115.809 70.0266 115.438 70.3984L103.972 81.8648C101.45 84.383 98.031 85.7974 94.4667 85.7974C90.9025 85.7974 87.484 84.383 84.9616 81.8648L73.4952 70.3984C73.1196 70.0522 72.6247 69.8647 72.114 69.8751C71.6033 69.8855 71.1165 70.093 70.7553 70.4542C70.3941 70.8154 70.1866 71.3022 70.1763 71.8129C70.1659 72.3236 70.3534 72.8185 70.6995 73.1941L82.166 84.6605C84.6821 87.184 86.095 90.6021 86.095 94.1656C86.095 97.7292 84.6821 101.147 82.166 103.671L70.6995 115.137C70.4221 115.413 70.2329 115.766 70.1557 116.149C70.0786 116.533 70.1171 116.931 70.2662 117.293C70.4154 117.655 70.6687 117.965 70.9939 118.183C71.3191 118.401 71.7016 118.517 72.0931 118.518C72.6177 118.516 73.1208 118.309 73.4952 117.941L84.9616 106.475C86.2094 105.226 87.6912 104.235 89.3221 103.559C90.9531 102.883 92.7013 102.535 94.4667 102.535C96.2322 102.535 97.9804 102.883 99.6114 103.559C101.242 104.235 102.724 105.226 103.972 106.475L115.438 117.941C115.618 118.146 115.837 118.311 116.083 118.427C116.328 118.543 116.595 118.607 116.867 118.616C117.139 118.625 117.409 118.578 117.662 118.478C117.915 118.378 118.144 118.227 118.336 118.035C118.528 117.843 118.679 117.613 118.779 117.361C118.879 117.108 118.926 116.838 118.917 116.566C118.908 116.294 118.844 116.027 118.728 115.782C118.612 115.536 118.447 115.317 118.243 115.137ZM99.6795 99.3698C96.2844 98.3147 92.6491 98.3147 89.254 99.3698C90.312 95.981 90.312 92.3502 89.254 88.9615C92.6473 90.028 96.2862 90.028 99.6795 88.9615C98.6301 92.3516 98.6301 95.9797 99.6795 99.3698Z" fill="#F85638"/>
<defs>
<radialGradient id="paint0_radial_132_9145" cx="0" cy="0" r="1" gradientUnits="userSpaceOnUse" gradientTransform="translate(207.393 217.26) scale(368.301 368.301)">
<stop stop-color="#4256FD" stop-opacity="0"/>
<stop offset="0.1" stop-color="#3B36CB" stop-opacity="0.38"/>
<stop offset="0.23" stop-color="#320F8F" stop-opacity="0.82"/>
<stop offset="0.29" stop-color="#2F0078"/>
<stop offset="0.34" stop-color="#320279"/>
<stop offset="0.38" stop-color="#3D0A7A"/>
<stop offset="0.41" stop-color="#4E167D"/>
<stop offset="0.45" stop-color="#662880"/>
<stop offset="0.48" stop-color="#863E85"/>
<stop offset="0.51" stop-color="#AC5A8B"/>
<stop offset="0.55" stop-color="#DF7E93"/>
</radialGradient>
<radialGradient id="paint1_radial_132_9145" cx="0" cy="0" r="1" gradientUnits="userSpaceOnUse" gradientTransform="translate(118.982 111.783) scale(164.607 164.607)">
<stop offset="0.42" stop-color="#390C66" stop-opacity="0.03"/>
<stop offset="0.49" stop-color="#340D61" stop-opacity="0.38"/>
<stop offset="0.57" stop-color="#310E5E" stop-opacity="0.65"/>
<stop offset="0.65" stop-color="#2E0F5B" stop-opacity="0.85"/>
<stop offset="0.74" stop-color="#2C0F59" stop-opacity="0.96"/>
<stop offset="0.84" stop-color="#2C0F59"/>
<stop offset="0.87" stop-color="#2F1059"/>
<stop offset="0.89" stop-color="#3A1558"/>
<stop offset="0.91" stop-color="#4C1D56"/>
<stop offset="0.93" stop-color="#652854"/>
<stop offset="0.95" stop-color="#863650"/>
<stop offset="0.97" stop-color="#AE474D"/>
<stop offset="0.99" stop-color="#DC5B48"/>
<stop offset="1" stop-color="#FE6A45"/>
</radialGradient>
</defs>
</svg>
