<svg width="280" height="279" viewBox="0 0 280 279" fill="none" xmlns="http://www.w3.org/2000/svg">
<path d="M213.062 246.204C192.076 260.722 167.256 268.691 141.741 269.103C116.227 269.516 91.1625 262.353 69.7181 248.522C48.2737 234.69 31.4121 214.811 21.2654 191.397C11.1186 167.983 8.14227 142.086 12.7128 116.98C17.2833 91.875 29.1954 68.6886 46.9429 50.3528C64.6904 32.017 87.4762 19.3554 112.419 13.9689C137.362 8.58241 163.343 10.7129 187.075 20.091C210.807 29.4692 231.226 45.6737 245.749 66.6558C255.394 80.5907 262.2 96.2891 265.777 112.855C269.355 129.42 269.634 146.528 266.598 163.201C263.563 179.874 257.273 195.786 248.087 210.028C238.901 224.27 226.999 236.563 213.062 246.204Z" fill="url(#paint0_radial_132_9162)"/>
<path d="M213.062 246.204C192.076 260.722 167.256 268.691 141.741 269.103C116.227 269.516 91.1625 262.353 69.7181 248.522C48.2737 234.69 31.4121 214.811 21.2654 191.397C11.1186 167.983 8.14227 142.086 12.7128 116.98C17.2833 91.875 29.1954 68.6886 46.9429 50.3528C64.6904 32.017 87.4762 19.3554 112.419 13.9689C137.362 8.58241 163.343 10.7129 187.075 20.091C210.807 29.4692 231.226 45.6737 245.749 66.6558C255.394 80.5907 262.2 96.2891 265.777 112.855C269.355 129.42 269.634 146.528 266.598 163.201C263.563 179.874 257.273 195.786 248.087 210.028C238.901 224.27 226.999 236.563 213.062 246.204Z" fill="url(#paint1_radial_132_9162)"/>
<path d="M139.653 0.860195C171.734 0.882175 202.816 12.0262 227.602 32.3939C252.389 52.7616 269.347 81.0929 275.589 112.561C281.83 144.03 276.968 176.689 261.831 204.975C246.694 233.261 222.218 255.424 192.573 267.688C162.928 279.952 129.949 281.559 99.252 272.235C68.5554 262.911 42.0409 243.233 24.2255 216.553C6.41008 189.872 -1.60415 157.841 1.54807 125.915C4.70029 93.9883 18.824 64.1424 41.513 41.4614C54.3792 28.5478 69.6763 18.311 86.5208 11.3423C103.365 4.37357 121.424 0.810955 139.653 0.860195ZM139.653 0C62.5276 0 0 62.433 0 139.429C0 216.425 62.5276 278.832 139.653 278.832C216.778 278.832 279.314 216.416 279.314 139.429C279.314 62.4416 216.786 0 139.653 0Z" fill="white"/>
<path d="M139.653 0.860195C171.734 0.882175 202.816 12.0262 227.602 32.3939C252.389 52.7616 269.347 81.0929 275.589 112.561C281.83 144.03 276.968 176.689 261.831 204.975C246.694 233.261 222.218 255.424 192.573 267.688C162.928 279.952 129.949 281.559 99.252 272.235C68.5554 262.911 42.0409 243.233 24.2255 216.553C6.41008 189.872 -1.60415 157.841 1.54807 125.915C4.70029 93.9883 18.824 64.1424 41.513 41.4614C54.3792 28.5478 69.6763 18.311 86.5208 11.3423C103.365 4.37357 121.424 0.810955 139.653 0.860195ZM139.653 0C62.5276 0 0 62.433 0 139.429C0 216.425 62.5276 278.832 139.653 278.832C216.778 278.832 279.314 216.416 279.314 139.429C279.314 62.4416 216.786 0 139.653 0Z" fill="white"/>
<path d="M170.276 159.291C168.441 159.287 166.651 159.859 165.157 160.925L151.73 170.318C151.545 170.449 151.388 170.616 151.267 170.807C151.147 170.999 151.065 171.213 151.028 171.436C150.99 171.659 150.996 171.888 151.046 172.109C151.097 172.329 151.19 172.538 151.321 172.723C151.452 172.907 151.618 173.064 151.81 173.185C152.002 173.305 152.215 173.387 152.439 173.425C152.662 173.463 152.89 173.456 153.111 173.406C153.332 173.356 153.541 173.262 153.725 173.131L167.162 163.729C168.069 163.078 169.159 162.729 170.276 162.732C171.063 162.73 171.841 162.901 172.556 163.232C173.271 163.563 173.905 164.046 174.413 164.647C174.922 165.249 175.293 165.954 175.501 166.713C175.709 167.473 175.749 168.269 175.617 169.045C175.501 169.747 175.247 170.419 174.869 171.021C174.491 171.624 173.997 172.145 173.415 172.555L137.399 198C136.981 198.294 136.523 198.529 136.04 198.696C135.487 198.889 134.905 198.988 134.319 198.989C134.139 198.989 133.95 198.989 133.777 198.989H133.683L100.195 190.473L99.989 190.421C99.5421 190.353 99.0906 190.318 98.6385 190.318C96.7878 190.307 94.9811 190.882 93.4773 191.961L91.0344 193.681L76.9616 173.897L92.5311 162.783C94.8289 161.14 97.6796 160.463 100.471 160.899H100.565L138.767 171.987C140.117 172.377 141.264 173.278 141.962 174.498C142.66 175.718 142.856 177.162 142.508 178.525C142.33 179.199 142.018 179.83 141.589 180.38C141.16 180.93 140.624 181.387 140.014 181.725C139.199 182.19 138.277 182.436 137.339 182.439C136.857 182.435 136.377 182.372 135.911 182.249H135.833L116.126 177.458C115.998 177.441 115.868 177.441 115.739 177.458C115.283 177.406 114.824 177.537 114.465 177.822C114.105 178.108 113.873 178.524 113.821 178.981C113.768 179.437 113.899 179.895 114.185 180.255C114.47 180.615 114.887 180.846 115.343 180.899L135.042 185.682C135.78 185.877 136.541 185.975 137.304 185.974C138.836 185.974 140.341 185.576 141.674 184.821C142.682 184.256 143.567 183.494 144.277 182.581C144.986 181.668 145.505 180.622 145.803 179.505C146.384 177.267 146.068 174.891 144.923 172.882C143.777 170.874 141.892 169.392 139.67 168.753L101.469 157.665L101.167 157.588C99.3103 157.268 97.4081 157.32 95.5712 157.74C93.7343 158.161 91.9993 158.943 90.4666 160.039L74.9057 171.144L73.1251 168.641C72.9661 168.415 72.7548 168.23 72.5092 168.103C72.2636 167.976 71.991 167.909 71.7144 167.91C71.3568 167.91 71.008 168.021 70.7166 168.228L64.3253 172.753H64.2737C63.9691 172.965 63.7414 173.27 63.6244 173.622C63.5073 173.974 63.5074 174.355 63.6245 174.707C63.7415 175.059 63.9694 175.364 64.274 175.576C64.5786 175.788 64.9436 175.896 65.3145 175.884C65.7085 175.886 66.0911 175.752 66.3984 175.505L71.3101 172.013L90.9656 199.703L86.4237 202.937C86.3118 202.999 86.2078 203.074 86.1141 203.161C85.9367 203.304 85.7893 203.481 85.6804 203.682C85.5714 203.882 85.503 204.102 85.4791 204.329C85.4551 204.556 85.4761 204.785 85.5407 205.004C85.6054 205.222 85.7125 205.426 85.856 205.604C85.9995 205.781 86.1764 205.928 86.3769 206.037C86.5773 206.146 86.7972 206.215 87.024 206.239C87.2509 206.263 87.4802 206.242 87.699 206.177C87.9177 206.112 88.1216 206.005 88.2989 205.862L94.3719 201.561C94.558 201.43 94.7164 201.264 94.838 201.072C94.9595 200.881 95.0419 200.666 95.0803 200.443C95.1187 200.219 95.1123 199.989 95.0616 199.768C95.0109 199.546 94.9168 199.337 94.7848 199.152L92.9698 196.572L95.4214 194.851C96.329 194.2 97.4183 193.851 98.5353 193.853C98.7799 193.853 99.0242 193.871 99.2664 193.905H99.3439L132.891 202.447H132.952H133.089C133.446 202.488 133.805 202.508 134.165 202.507C136.014 202.518 137.82 201.946 139.326 200.873L175.342 175.428C176.877 174.339 178.026 172.789 178.621 171.003C179.216 169.217 179.226 167.288 178.651 165.495C178.076 163.703 176.945 162.14 175.422 161.034C173.899 159.928 172.063 159.335 170.181 159.342L170.276 159.291Z" fill="#F85638"/>
<path d="M106.157 149.596C106.313 149.846 106.531 150.052 106.791 150.194C107.05 150.336 107.341 150.408 107.636 150.405C107.931 150.408 108.223 150.336 108.482 150.194C108.741 150.052 108.959 149.846 109.116 149.596L125.58 123.498C125.758 123.235 125.859 122.929 125.874 122.612C125.888 122.295 125.815 121.981 125.662 121.703C125.509 121.425 125.282 121.195 125.006 121.038C124.731 120.881 124.417 120.804 124.1 120.814H115.817C116.212 115.22 118.51 109.93 122.329 105.823C126.147 101.716 131.257 99.0395 136.807 98.2387C142.358 97.4379 148.015 98.5609 152.839 101.421C157.663 104.281 161.362 108.706 163.323 113.96C165.284 119.214 165.387 124.981 163.616 130.302C161.844 135.623 158.306 140.177 153.587 143.208C148.869 146.239 143.255 147.564 137.68 146.962C132.104 146.361 126.902 143.869 122.939 139.902C122.776 139.74 122.583 139.611 122.371 139.524C122.159 139.436 121.931 139.391 121.702 139.392C121.472 139.392 121.245 139.438 121.033 139.526C120.821 139.614 120.628 139.743 120.466 139.906C120.304 140.069 120.175 140.262 120.088 140.474C120 140.686 119.956 140.914 119.956 141.143C119.956 141.373 120.002 141.6 120.09 141.812C120.178 142.024 120.308 142.217 120.47 142.379C125.003 146.913 130.953 149.756 137.328 150.434C143.703 151.113 150.118 149.586 155.503 146.108C160.889 142.63 164.92 137.411 166.924 131.321C168.928 125.232 168.784 118.639 166.517 112.643C164.249 106.646 159.995 101.608 154.463 98.3678C148.931 95.1278 142.455 93.8819 136.116 94.8376C129.777 95.7933 123.956 98.8929 119.625 103.62C115.294 108.347 112.715 114.415 112.316 120.814H107.628C107.163 120.814 106.718 120.998 106.39 121.327C106.062 121.655 105.877 122.1 105.877 122.564C105.877 123.029 106.062 123.474 106.39 123.802C106.718 124.13 107.163 124.315 107.628 124.315H120.918L107.636 145.372L94.3118 124.315H99.86C100.316 124.315 100.754 124.134 101.077 123.811C101.399 123.488 101.58 123.051 101.58 122.595C101.504 117.471 102.447 112.384 104.355 107.628C106.263 102.873 109.097 98.544 112.693 94.8939C116.289 91.2438 120.575 88.3452 125.301 86.3667C130.028 84.3882 135.101 83.3694 140.225 83.3694C145.349 83.3694 150.421 84.3882 155.148 86.3667C159.874 88.3452 164.16 91.2438 167.756 94.8939C171.352 98.544 174.187 102.873 176.095 107.628C178.002 112.384 178.945 117.471 178.869 122.595C178.869 123.059 179.053 123.504 179.382 123.832C179.71 124.161 180.155 124.345 180.619 124.345C181.084 124.345 181.529 124.161 181.857 123.832C182.186 123.504 182.37 123.059 182.37 122.595C182.324 111.595 177.981 101.049 170.266 93.2087C162.552 85.368 152.078 80.8535 141.081 80.6289C130.084 80.4044 119.435 84.4876 111.407 92.0069C103.379 99.5262 98.6085 109.886 98.1138 120.874H91.1204C90.8081 120.876 90.5018 120.96 90.2327 121.119C89.9637 121.277 89.7416 121.505 89.5893 121.777C89.4346 122.051 89.3576 122.361 89.3667 122.675C89.3758 122.989 89.4706 123.294 89.6409 123.558L106.157 149.596Z" fill="#F85638"/>
<path d="M180.684 127.902C180.227 127.902 179.79 128.083 179.467 128.406C179.145 128.728 178.963 129.166 178.963 129.622V130.844C178.963 131.308 179.148 131.753 179.476 132.082C179.804 132.41 180.25 132.594 180.714 132.594C181.178 132.594 181.623 132.41 181.952 132.082C182.28 131.753 182.464 131.308 182.464 130.844V129.622C182.465 129.391 182.418 129.162 182.328 128.95C182.238 128.737 182.106 128.545 181.939 128.384C181.773 128.223 181.576 128.098 181.361 128.015C181.145 127.932 180.915 127.894 180.684 127.902Z" fill="#F85638"/>
<path d="M180.684 137.193C180.227 137.193 179.79 137.374 179.467 137.696C179.145 138.019 178.963 138.457 178.963 138.913V140.212C178.963 140.676 179.148 141.121 179.476 141.45C179.804 141.778 180.25 141.962 180.714 141.962C181.178 141.962 181.623 141.778 181.952 141.45C182.28 141.121 182.464 140.676 182.464 140.212V138.99C182.475 138.753 182.437 138.516 182.351 138.294C182.266 138.072 182.135 137.87 181.968 137.701C181.801 137.532 181.6 137.4 181.379 137.312C181.158 137.225 180.921 137.184 180.684 137.193Z" fill="#F85638"/>
<path d="M153.563 131.61L153.493 131.688L153.545 131.627L153.563 131.61Z" fill="#F85638"/>
<path d="M128.074 129.632L128.135 129.562L128.083 129.615L128.074 129.632Z" fill="#F85638"/>
<path d="M117.339 94.1394C114.96 90.0175 113.708 85.3422 113.709 80.5833C113.71 75.8243 114.963 71.1493 117.343 67.0282C119.723 62.907 123.145 59.4848 127.267 57.1055C131.388 54.7262 136.063 53.4736 140.822 53.4736C145.581 53.4736 150.257 54.7262 154.378 57.1055C158.5 59.4848 161.922 62.907 164.302 67.0282C166.682 71.1493 167.935 75.8243 167.936 80.5833C167.936 85.3422 166.685 90.0175 164.306 94.1394L140.822 134.809L117.339 94.1394ZM140.822 61.9337C137.147 61.932 133.554 63.0202 130.497 65.0608C127.441 67.1014 125.058 70.0026 123.65 73.3976C122.243 76.7925 121.874 80.5286 122.59 84.1334C123.306 87.7382 125.074 91.0497 127.673 93.649C130.271 96.2484 133.581 98.0188 137.186 98.7364C140.79 99.4541 144.527 99.0866 147.922 97.6806C151.318 96.2745 154.22 93.8931 156.262 90.8374C158.304 87.7817 159.394 84.1891 159.394 80.5139C159.39 75.589 157.432 70.867 153.95 67.3837C150.468 63.9005 145.747 61.9405 140.822 61.9337Z" fill="#421076"/>
<path d="M140.823 55.9126C136.495 55.9151 132.244 57.0557 128.496 59.2199C124.748 61.3842 121.635 64.496 119.469 68.2432C117.304 71.9904 116.162 76.2411 116.158 80.5691C116.154 84.897 117.288 89.1499 119.447 92.901L140.823 129.889L162.19 92.901C164.348 89.1505 165.483 84.8984 165.479 80.5712C165.475 76.244 164.334 71.9938 162.17 68.2469C160.005 64.5 156.893 61.388 153.147 59.2231C149.4 57.0583 145.15 55.9166 140.823 55.9126ZM140.823 101.503C136.666 101.505 132.602 100.274 129.145 97.9655C125.688 95.6575 122.993 92.376 121.402 88.5363C119.81 84.6965 119.392 80.4709 120.202 76.3939C121.012 72.3169 123.013 68.5717 125.952 65.6319C128.89 62.6921 132.635 60.6898 136.711 59.8782C140.788 59.0667 145.014 59.4823 148.854 61.0726C152.694 62.6629 155.977 65.3564 158.286 68.8124C160.596 72.2684 161.829 76.3317 161.829 80.4884C161.829 86.0603 159.616 91.4041 155.677 95.3449C151.738 99.2856 146.395 101.501 140.823 101.503Z" fill="#F85638"/>
<path d="M140.822 59.4736C136.666 59.4719 132.602 60.703 129.145 63.011C125.688 65.3191 122.993 68.6006 121.401 72.4403C119.809 76.2801 119.392 80.5057 120.202 84.5827C121.012 88.6597 123.013 92.4049 125.951 95.3447C128.89 98.2845 132.634 100.287 136.711 101.098C140.788 101.91 145.013 101.494 148.854 99.904C152.694 98.3137 155.977 95.6202 158.286 92.1642C160.596 88.7082 161.828 84.6449 161.828 80.4882C161.828 74.9163 159.615 69.5725 155.676 65.6317C151.737 61.691 146.394 59.4759 140.822 59.4736ZM153.45 84.1096C153.451 84.1646 153.441 84.2192 153.421 84.2703C153.401 84.3214 153.371 84.3679 153.332 84.4072C153.294 84.4464 153.248 84.4776 153.197 84.4989C153.147 84.5202 153.092 84.5311 153.037 84.5311H145.003V92.5653C145.003 92.6771 144.959 92.7843 144.879 92.8634C144.8 92.9424 144.693 92.9868 144.581 92.9868H137.055C136.999 92.9868 136.945 92.9759 136.893 92.9548C136.842 92.9336 136.796 92.9025 136.757 92.8634C136.718 92.8242 136.686 92.7778 136.665 92.7266C136.644 92.6755 136.633 92.6207 136.633 92.5653V84.5311H128.608C128.496 84.5311 128.389 84.4867 128.31 84.4077C128.231 84.3286 128.186 84.2214 128.186 84.1096V76.5571C128.186 76.4453 128.231 76.3381 128.31 76.2591C128.389 76.18 128.496 76.1356 128.608 76.1356H136.633V68.1358C136.633 68.0804 136.644 68.0256 136.665 67.9745C136.686 67.9234 136.718 67.8769 136.757 67.8378C136.796 67.7986 136.842 67.7676 136.893 67.7464C136.945 67.7252 136.999 67.7143 137.055 67.7143H144.581C144.693 67.7143 144.8 67.7587 144.879 67.8378C144.959 67.9168 145.003 68.024 145.003 68.1358V76.1614H153.037C153.092 76.1614 153.147 76.1724 153.197 76.1937C153.248 76.2149 153.294 76.2461 153.332 76.2854C153.371 76.3246 153.401 76.3712 153.421 76.4223C153.441 76.4734 153.451 76.528 153.45 76.5829V84.1096Z" fill="#400C7B"/>
<path d="M153.45 76.5567V84.0834C153.451 84.1383 153.441 84.1929 153.421 84.244C153.401 84.2951 153.371 84.3417 153.332 84.3809C153.294 84.4202 153.248 84.4514 153.197 84.4726C153.147 84.4939 153.092 84.5049 153.037 84.5049H145.003V92.5391C145.003 92.6509 144.959 92.7581 144.88 92.8371C144.8 92.9162 144.693 92.9606 144.581 92.9606H137.055C136.999 92.9606 136.945 92.9497 136.893 92.9285C136.842 92.9073 136.796 92.8763 136.757 92.8371C136.718 92.798 136.687 92.7515 136.665 92.7004C136.644 92.6493 136.633 92.5944 136.633 92.5391V84.5307H128.608C128.496 84.5307 128.389 84.4863 128.31 84.4072C128.231 84.3282 128.186 84.221 128.186 84.1092V76.5567C128.186 76.4449 128.231 76.3377 128.31 76.2586C128.389 76.1796 128.496 76.1352 128.608 76.1352H136.633V68.1354C136.633 68.08 136.644 68.0252 136.665 67.9741C136.687 67.9229 136.718 67.8765 136.757 67.8373C136.796 67.7982 136.842 67.7671 136.893 67.746C136.945 67.7248 136.999 67.7139 137.055 67.7139H144.581C144.693 67.7139 144.8 67.7583 144.88 67.8373C144.959 67.9164 145.003 68.0236 145.003 68.1354V76.161H153.037C153.144 76.1609 153.246 76.202 153.323 76.2758C153.4 76.3495 153.446 76.4502 153.45 76.5567Z" fill="#F85638"/>
<defs>
<radialGradient id="paint0_radial_132_9162" cx="0" cy="0" r="1" gradientUnits="userSpaceOnUse" gradientTransform="translate(206.129 217.999) scale(368.301 368.301)">
<stop stop-color="#4256FD" stop-opacity="0"/>
<stop offset="0.1" stop-color="#3B36CB" stop-opacity="0.38"/>
<stop offset="0.23" stop-color="#320F8F" stop-opacity="0.82"/>
<stop offset="0.29" stop-color="#2F0078"/>
<stop offset="0.34" stop-color="#320279"/>
<stop offset="0.38" stop-color="#3D0A7A"/>
<stop offset="0.41" stop-color="#4E167D"/>
<stop offset="0.45" stop-color="#662880"/>
<stop offset="0.48" stop-color="#863E85"/>
<stop offset="0.51" stop-color="#AC5A8B"/>
<stop offset="0.55" stop-color="#DF7E93"/>
</radialGradient>
<radialGradient id="paint1_radial_132_9162" cx="0" cy="0" r="1" gradientUnits="userSpaceOnUse" gradientTransform="translate(117.718 112.521) scale(164.607 164.607)">
<stop offset="0.42" stop-color="#390C66" stop-opacity="0.03"/>
<stop offset="0.49" stop-color="#340D61" stop-opacity="0.38"/>
<stop offset="0.57" stop-color="#310E5E" stop-opacity="0.65"/>
<stop offset="0.65" stop-color="#2E0F5B" stop-opacity="0.85"/>
<stop offset="0.74" stop-color="#2C0F59" stop-opacity="0.96"/>
<stop offset="0.84" stop-color="#2C0F59"/>
<stop offset="0.87" stop-color="#2F1059"/>
<stop offset="0.89" stop-color="#3A1558"/>
<stop offset="0.91" stop-color="#4C1D56"/>
<stop offset="0.93" stop-color="#652854"/>
<stop offset="0.95" stop-color="#863650"/>
<stop offset="0.97" stop-color="#AE474D"/>
<stop offset="0.99" stop-color="#DC5B48"/>
<stop offset="1" stop-color="#FE6A45"/>
</radialGradient>
</defs>
</svg>
