<svg width="76" height="80" viewBox="0 0 76 80" fill="none" xmlns="http://www.w3.org/2000/svg">
<path fill-rule="evenodd" clip-rule="evenodd" d="M22.183 53.345H22.9437V56.345H22.9608C23.0654 56.1216 23.2407 55.9389 23.4596 55.8252C23.7112 55.6894 23.9937 55.6213 24.2795 55.6278C24.4676 55.6272 24.6545 55.6572 24.833 55.7166C25.0059 55.7732 25.1645 55.8668 25.2975 55.991C25.4369 56.1252 25.5451 56.2883 25.6147 56.4687C25.6982 56.6886 25.7384 56.9226 25.7332 57.1577V59.7353H24.9718V57.3663C24.9756 57.2038 24.9498 57.0419 24.8955 56.8886C24.8523 56.768 24.7831 56.6583 24.6928 56.5675C24.6104 56.4868 24.5107 56.426 24.4013 56.3898C24.2909 56.3533 24.1753 56.3348 24.0591 56.3352C23.9092 56.3339 23.7602 56.3597 23.6195 56.4115C23.4839 56.4626 23.3623 56.5451 23.2648 56.6523C23.1569 56.7734 23.0761 56.9161 23.0279 57.0709C22.968 57.2651 22.9395 57.4677 22.9437 57.671V59.7327H22.183V53.345ZM29.0267 56.3871H27.9377V58.204C27.9377 58.3163 27.9405 58.4276 27.9462 58.5377C27.9508 58.6392 27.9731 58.7392 28.012 58.8331C28.0469 58.9183 28.1057 58.9916 28.1811 59.0444C28.2817 59.1042 28.398 59.1322 28.5148 59.1246C28.6083 59.1242 28.7017 59.1157 28.7938 59.099C28.8862 59.0835 28.9753 59.0521 29.057 59.0062V59.6991C28.9477 59.756 28.8288 59.792 28.7063 59.8051C28.5958 59.8219 28.4843 59.8318 28.3726 59.8347C28.1394 59.8464 27.9067 59.8046 27.6922 59.7123C27.5458 59.6431 27.4226 59.5329 27.3375 59.3951C27.2605 59.2621 27.2144 59.1134 27.2026 58.9601C27.1886 58.7996 27.1815 58.6377 27.1815 58.4745V56.3871H26.2984V55.7291H27.1776V54.6051H27.9383V55.7291H29.0267V56.3871ZM32.1538 56.3871H31.0667V58.204C31.0667 58.3163 31.0695 58.4276 31.0752 58.5377C31.0799 58.6392 31.1021 58.7392 31.141 58.8331C31.176 58.9183 31.2347 58.9916 31.3102 59.0444C31.4107 59.1042 31.527 59.1322 31.6438 59.1246C31.7374 59.1242 31.8307 59.1157 31.9228 59.099C32.0153 59.0835 32.1043 59.0521 32.186 59.0062V59.6991C32.0768 59.756 31.9578 59.792 31.8353 59.8051C31.7248 59.8219 31.6134 59.8318 31.5017 59.8347C31.2685 59.8464 31.0357 59.8046 30.8212 59.7123C30.6748 59.6431 30.5516 59.5329 30.4665 59.3951C30.3895 59.2621 30.3434 59.1134 30.3316 58.9601C30.3176 58.7996 30.3106 58.6377 30.3106 58.4745V56.3871H29.4255V55.7291H30.3047V54.6051H31.0667V55.7291H32.1571L32.1538 56.3871ZM33.1343 55.7291H33.8963V56.3036H33.9134C34.0651 56.0849 34.2741 55.9124 34.5175 55.8048C34.7646 55.6885 35.0341 55.6278 35.3072 55.6271C35.5955 55.6228 35.8817 55.6774 36.1482 55.7877C36.3917 55.8897 36.6106 56.0425 36.7904 56.2358C36.9699 56.4307 37.1092 56.659 37.2004 56.9077C37.2974 57.1714 37.346 57.4505 37.3438 57.7315C37.3465 58.0154 37.2979 58.2974 37.2004 58.564C37.1099 58.8119 36.9705 59.039 36.7904 59.2319C36.6095 59.4228 36.3908 59.5739 36.1482 59.6754C35.8817 59.7857 35.5955 59.8403 35.3072 59.836C35.0265 59.8374 34.7491 59.7754 34.4958 59.6544C34.2589 59.5477 34.0568 59.3765 33.9128 59.1602H33.8963V62.1181H33.1349L33.1343 55.7291ZM35.2131 56.3378C35.0246 56.3351 34.8376 56.3712 34.6636 56.4437C34.507 56.5096 34.366 56.6075 34.2497 56.7313C34.1329 56.8584 34.0434 57.008 33.9865 57.1709C33.8625 57.5353 33.8625 57.9304 33.9865 58.2948C34.0434 58.4578 34.1329 58.6073 34.2497 58.7344C34.366 58.8582 34.507 58.9562 34.6636 59.022C35.0162 59.1627 35.4093 59.1627 35.7619 59.022C35.9185 58.9562 36.0595 58.8582 36.1758 58.7344C36.2926 58.6073 36.3821 58.4578 36.439 58.2948C36.563 57.9304 36.563 57.5353 36.439 57.1709C36.3821 57.008 36.2926 56.8584 36.1758 56.7313C36.0595 56.6075 35.9185 56.5096 35.7619 56.4437C35.588 56.3707 35.401 56.3342 35.2124 56.3365L35.2131 56.3378ZM40.4275 56.7326C40.3351 56.6181 40.2219 56.5221 40.0938 56.4497C39.9448 56.3697 39.7773 56.3304 39.6082 56.3358C39.4445 56.3316 39.2826 56.3709 39.139 56.4497C39.078 56.481 39.0271 56.529 38.9922 56.588C38.9573 56.647 38.9397 56.7147 38.9416 56.7833C38.9394 56.8365 38.9484 56.8896 38.968 56.9392C38.9876 56.9887 39.0174 57.0336 39.0554 57.0709C39.1341 57.146 39.2257 57.2062 39.3259 57.2485C39.4331 57.2944 39.545 57.3283 39.6595 57.3499L39.9636 57.4091C40.1202 57.4464 40.2741 57.4943 40.4242 57.5526C40.5598 57.6041 40.6855 57.6784 40.796 57.7723C40.9004 57.8631 40.9839 57.9753 41.0408 58.1014C41.1039 58.2509 41.1342 58.4123 41.1296 58.5745C41.1355 58.777 41.0859 58.9772 40.9862 59.1536C40.8937 59.3117 40.7666 59.4467 40.6144 59.5484C40.4559 59.6527 40.2797 59.7272 40.0945 59.7682C39.9018 59.8124 39.7046 59.8345 39.5069 59.834C39.209 59.8402 38.9128 59.789 38.6343 59.6833C38.3621 59.5645 38.1291 59.3711 37.9624 59.1253L38.5369 58.6522C38.6621 58.777 38.8009 58.8874 38.9508 58.9812C39.1193 59.0812 39.313 59.131 39.5088 59.1246C39.6067 59.1243 39.7044 59.1144 39.8004 59.095C39.8924 59.0781 39.9812 59.0468 40.0636 59.0022C40.1365 58.9628 40.2001 58.908 40.2498 58.8417C40.2977 58.777 40.3229 58.6984 40.3215 58.6179C40.3232 58.5667 40.3147 58.5157 40.2965 58.4678C40.2783 58.4199 40.2508 58.3761 40.2156 58.3389C40.1438 58.2646 40.0576 58.2057 39.9622 58.1659C39.8613 58.1229 39.7567 58.089 39.6497 58.0645C39.54 58.0391 39.4428 58.0171 39.3581 57.9987C39.1949 57.9592 39.0396 57.9145 38.8936 57.8638C38.7542 57.8169 38.6229 57.7485 38.5047 57.6611C38.3915 57.5758 38.299 57.4661 38.2342 57.34C38.1621 57.19 38.1273 57.0247 38.1329 56.8583C38.1286 56.6683 38.174 56.4805 38.2645 56.3134C38.3498 56.1609 38.4683 56.0296 38.6113 55.9291C38.7602 55.8252 38.9261 55.7479 39.1015 55.7008C39.2817 55.6504 39.4678 55.6247 39.6549 55.6245C39.9214 55.6237 40.1855 55.6754 40.4321 55.7765C40.6793 55.877 40.8871 56.055 41.0243 56.2838L40.4275 56.7326ZM42.6497 56.7918C42.5194 56.7925 42.3929 56.7479 42.2919 56.6656C42.1908 56.5834 42.1214 56.4686 42.0955 56.3409C42.0697 56.2132 42.0889 56.0805 42.15 55.9654C42.2112 55.8503 42.3103 55.76 42.4306 55.7099C42.5509 55.6597 42.6848 55.6529 42.8096 55.6906C42.9343 55.7282 43.0421 55.808 43.1146 55.9163C43.187 56.0246 43.2197 56.1547 43.2069 56.2844C43.1941 56.414 43.1368 56.5353 43.0446 56.6273C42.9935 56.6808 42.932 56.7231 42.8638 56.7516C42.7956 56.7802 42.7223 56.7943 42.6484 56.7932L42.6497 56.7918ZM42.0917 59.2266C42.0911 59.0963 42.1357 58.9699 42.2179 58.8688C42.3002 58.7677 42.4149 58.6983 42.5426 58.6725C42.6703 58.6466 42.8031 58.6659 42.9182 58.727C43.0333 58.7881 43.1236 58.8872 43.1737 59.0075C43.2238 59.1278 43.2306 59.2617 43.193 59.3865C43.1553 59.5112 43.0755 59.619 42.9672 59.6915C42.8589 59.764 42.7289 59.7966 42.5992 59.7838C42.4695 59.7711 42.3483 59.7137 42.2562 59.6215C42.2034 59.5704 42.1617 59.5089 42.1336 59.441C42.1055 59.3731 42.0917 59.3001 42.093 59.2266H42.0917ZM44.4159 60.1058L43.8237 59.886L46.5309 53.3785L47.114 53.5983L44.4159 60.1058ZM47.7062 60.1058L47.114 59.886L49.8179 53.3792L50.4009 53.599L47.7062 60.1058ZM51.8131 59.7847C51.6828 59.7853 51.5563 59.7407 51.4552 59.6585C51.3542 59.5762 51.2848 59.4614 51.2589 59.3337C51.2331 59.206 51.2523 59.0733 51.3134 58.9582C51.3745 58.8431 51.4737 58.7528 51.594 58.7027C51.7142 58.6526 51.8482 58.6458 51.9729 58.6834C52.0977 58.7211 52.2055 58.8008 52.278 58.9091C52.3504 59.0174 52.3831 59.1475 52.3703 59.2772C52.3575 59.4069 52.3001 59.5281 52.2079 59.6202C52.1567 59.6734 52.095 59.7156 52.0267 59.7439C51.9584 59.7722 51.885 59.7861 51.8111 59.7847H51.8131ZM54.6269 59.7847C54.4966 59.7853 54.3701 59.7407 54.2691 59.6585C54.168 59.5762 54.0986 59.4614 54.0728 59.3337C54.0469 59.206 54.0662 59.0733 54.1273 58.9582C54.1884 58.8431 54.2875 58.7528 54.4078 58.7027C54.5281 58.6526 54.662 58.6458 54.7868 58.6834C54.9115 58.7211 55.0193 58.8008 55.0918 58.9091C55.1643 59.0174 55.1969 59.1475 55.1841 59.2772C55.1713 59.4069 55.114 59.5281 55.0218 59.6202C54.9705 59.6734 54.9088 59.7156 54.8405 59.7439C54.7723 59.7722 54.6989 59.7861 54.625 59.7847H54.6269ZM57.4408 59.7847C57.3105 59.7853 57.184 59.7407 57.0829 59.6585C56.9818 59.5762 56.9125 59.4614 56.8866 59.3337C56.8607 59.206 56.88 59.0733 56.9411 58.9582C57.0022 58.8431 57.1013 58.7528 57.2216 58.7027C57.3419 58.6526 57.4758 58.6458 57.6006 58.6834C57.7253 58.7211 57.8331 58.8008 57.9056 58.9091C57.9781 59.0174 58.0107 59.1475 57.9979 59.2772C57.9852 59.4069 57.9278 59.5281 57.8356 59.6202C57.7844 59.6734 57.7229 59.7154 57.6547 59.7437C57.5865 59.772 57.5132 59.786 57.4394 59.7847H57.4408Z" fill="white"/>
<path d="M1.0563 50.5655V52.0685L2.35792 52.82L3.65955 52.0685V50.5655L2.35792 49.8113L1.0563 50.5655ZM4.71572 49.9554V52.6778L2.35792 54.0387L0.00012207 52.6752V49.9528L2.35792 48.5913L4.71572 49.9554Z" fill="#6664BF"/>
<path d="M25.8805 1.97416V3.47386L27.1821 4.22535L28.4838 3.47386V1.97416L27.1821 1.22003L25.8805 1.97416ZM29.5399 1.36414V4.08387L27.1821 5.44538L24.8243 4.08387V1.36151L27.1821 0L29.5399 1.36414Z" fill="#584C4E"/>
<path d="M13.148 79.096C13.6931 79.096 14.135 78.6541 14.135 78.1089C14.135 77.5638 13.6931 77.1218 13.148 77.1218C12.6028 77.1218 12.1609 77.5638 12.1609 78.1089C12.1609 78.6541 12.6028 79.096 13.148 79.096Z" fill="#584C4E"/>
<path d="M4.59328 65.9348C5.13843 65.9348 5.58036 65.4929 5.58036 64.9478C5.58036 64.4026 5.13843 63.9607 4.59328 63.9607C4.04813 63.9607 3.6062 64.4026 3.6062 64.9478C3.6062 65.4929 4.04813 65.9348 4.59328 65.9348Z" fill="#7967C8"/>
<path d="M63.818 8.0264C64.3632 8.0264 64.8051 7.58447 64.8051 7.03932C64.8051 6.49418 64.3632 6.05225 63.818 6.05225C63.2729 6.05225 62.8309 6.49418 62.8309 7.03932C62.8309 7.58447 63.2729 8.0264 63.818 8.0264Z" fill="#584C4E"/>
<path d="M2.2901 17.897C3.01697 17.897 3.60621 17.4551 3.60621 16.9099C3.60621 16.3648 3.01697 15.9229 2.2901 15.9229C1.56324 15.9229 0.973999 16.3648 0.973999 16.9099C0.973999 17.4551 1.56324 17.897 2.2901 17.897Z" fill="#F38260"/>
<path d="M12.1608 2.1038C12.8877 2.1038 13.4769 1.66187 13.4769 1.11672C13.4769 0.571569 12.8877 0.129639 12.1608 0.129639C11.434 0.129639 10.8447 0.571569 10.8447 1.11672C10.8447 1.66187 11.434 2.1038 12.1608 2.1038Z" fill="#584C4E"/>
<path d="M19.5421 8.45071C18.4215 8.45071 17.3468 8.89587 16.5544 9.68828C15.762 10.4807 15.3168 11.5554 15.3168 12.6761V70.7748C15.3168 71.3297 15.4261 71.8792 15.6384 72.3918C15.8508 72.9044 16.162 73.3702 16.5544 73.7626C16.9467 74.155 17.4125 74.4662 17.9252 74.6785C18.4378 74.8909 18.9873 75.0002 19.5421 75.0002H52.2888C52.8437 75.0002 53.3931 74.8909 53.9058 74.6785C54.4184 74.4662 54.8842 74.155 55.2766 73.7626C55.6689 73.3702 55.9802 72.9044 56.1925 72.3918C56.4049 71.8792 56.5142 71.3297 56.5142 70.7748V12.6761C56.5142 11.5554 56.069 10.4807 55.2766 9.68828C54.4842 8.89587 53.4094 8.45071 52.2888 8.45071H19.5421ZM19.5421 7.39453H52.2888C53.6895 7.39453 55.0329 7.95098 56.0234 8.94145C57.0139 9.93193 57.5703 11.2753 57.5703 12.6761V70.7748C57.5703 72.1756 57.0139 73.519 56.0234 74.5094C55.0329 75.4999 53.6895 76.0564 52.2888 76.0564H19.5421C18.1414 76.0564 16.798 75.4999 15.8075 74.5094C14.8171 73.519 14.2606 72.1756 14.2606 70.7748V12.6761C14.2606 11.2753 14.8171 9.93193 15.8075 8.94145C16.798 7.95098 18.1414 7.39453 19.5421 7.39453Z" fill="#584C4E"/>
<path d="M49.0116 12.6326H22.6896C20.8724 12.6326 19.3993 14.1057 19.3993 15.9228V61.9865C19.3993 63.8036 20.8724 65.2767 22.6896 65.2767H49.0116C50.8288 65.2767 52.3019 63.8036 52.3019 61.9865V15.9228C52.3019 14.1057 50.8288 12.6326 49.0116 12.6326Z" fill="#E1D9FF"/>
<path d="M22.1829 13.7322C21.7626 13.7322 21.3596 13.8991 21.0624 14.1963C20.7652 14.4935 20.5983 14.8965 20.5983 15.3168V62.8518C20.5983 63.2721 20.7652 63.6752 21.0624 63.9723C21.3596 64.2695 21.7626 64.4364 22.1829 64.4364H49.648C50.0683 64.4364 50.4713 64.2695 50.7685 63.9723C51.0656 63.6752 51.2326 63.2721 51.2326 62.8518V15.3168C51.2326 14.8965 51.0656 14.4935 50.7685 14.1963C50.4713 13.8991 50.0683 13.7322 49.648 13.7322H22.1829ZM22.1829 12.676H49.648C50.3484 12.676 51.0201 12.9542 51.5153 13.4495C52.0105 13.9447 52.2888 14.6164 52.2888 15.3168V62.8518C52.2888 63.5522 52.0105 64.2239 51.5153 64.7191C51.0201 65.2144 50.3484 65.4926 49.648 65.4926H22.1829C21.4825 65.4926 20.8108 65.2144 20.3156 64.7191C19.8203 64.2239 19.5421 63.5522 19.5421 62.8518V15.3168C19.5421 14.6164 19.8203 13.9447 20.3156 13.4495C20.8108 12.9542 21.4825 12.676 22.1829 12.676Z" fill="#584C4E"/>
<path d="M35.9158 73.4162C35.289 73.4162 34.6762 73.2304 34.1551 72.8821C33.6339 72.5339 33.2277 72.0389 32.9878 71.4599C32.748 70.8808 32.6852 70.2435 32.8075 69.6288C32.9298 69.014 33.2316 68.4493 33.6748 68.0061C34.118 67.5629 34.6827 67.2611 35.2975 67.1388C35.9122 67.0165 36.5495 67.0793 37.1286 67.3191C37.7076 67.559 38.2026 67.9652 38.5508 68.4864C38.8991 69.0075 39.0849 69.6203 39.0849 70.2471C39.0849 71.0876 38.751 71.8937 38.1567 72.488C37.5624 73.0823 36.7563 73.4162 35.9158 73.4162ZM35.9158 72.3601C36.3337 72.3601 36.7422 72.2361 37.0897 72.004C37.4372 71.7718 37.708 71.4418 37.8679 71.0557C38.0279 70.6696 38.0697 70.2447 37.9882 69.8348C37.9066 69.425 37.7054 69.0485 37.4099 68.7529C37.1144 68.4574 36.7379 68.2562 36.328 68.1747C35.9181 68.0931 35.4933 68.135 35.1072 68.2949C34.7211 68.4548 34.391 68.7257 34.1589 69.0731C33.9267 69.4206 33.8028 69.8292 33.8028 70.2471C33.8029 70.8074 34.0256 71.3446 34.4219 71.7408C34.8181 72.1369 35.3555 72.3601 35.9158 72.3601Z" fill="#584C4E"/>
<path fill-rule="evenodd" clip-rule="evenodd" d="M5.14071 15.8822L29.1912 15.8822C30.382 15.862 31.532 16.3154 32.3886 17.1427C33.2452 17.9701 33.7383 19.1037 33.7594 20.2945L33.7594 34.4577C33.7383 35.6485 33.2452 36.7821 32.3886 37.6095C31.532 38.4368 30.382 38.8902 29.1912 38.87L10.3775 38.87C9.18727 38.8669 8.04111 39.32 7.17475 40.1361L0.57251 46.4047L0.57251 20.2945C0.59362 19.1037 1.08666 17.9701 1.94327 17.1427C2.79988 16.3154 3.94995 15.862 5.14071 15.8822Z" fill="#9998FF"/>
<path d="M6.78201 39.8497C7.74159 38.9462 9.01088 38.4446 10.3289 38.4481L29.2716 38.4481C30.3501 38.4668 31.3918 38.0564 32.1679 37.3073C32.9439 36.5581 33.3907 35.5315 33.4101 34.4531L33.4101 20.2016C33.3907 19.1232 32.9439 18.0965 32.1679 17.3474C31.3918 16.5983 30.3501 16.1879 29.2716 16.2066L5.05923 16.2066C3.98087 16.1881 2.93929 16.5985 2.16339 17.3476C1.3875 18.0968 0.940773 19.1233 0.921395 20.2016L0.921395 45.4142L6.78201 39.8497ZM5.05923 15.3169L29.2716 15.3169C30.5901 15.2942 31.8637 15.796 32.8124 16.7119C33.761 17.6279 34.3072 18.8831 34.3307 20.2016L34.3307 34.4531C34.3067 35.7712 33.7603 37.0259 32.8117 37.9415C31.8631 38.857 30.5898 39.3585 29.2716 39.3358L10.3315 39.3358C9.25322 39.3328 8.21472 39.743 7.42953 40.4821L0.00012207 47.5351L0.00012207 20.2016C0.0236524 18.8831 0.569782 17.6279 1.51846 16.7119C2.46713 15.796 3.74071 15.2942 5.05923 15.3169Z" fill="#584C4E"/>
<path fill-rule="evenodd" clip-rule="evenodd" d="M63.5219 37.5371H39.4714C38.2806 37.5169 37.1306 37.9703 36.274 38.7976C35.4174 39.625 34.9243 40.7586 34.9032 41.9494V56.1126C34.9243 57.3034 35.4174 58.437 36.274 59.2644C37.1306 60.0917 38.2806 60.5451 39.4714 60.5249H58.2851C59.4753 60.5218 60.6215 60.9748 61.4879 61.791L68.0901 68.0596V41.9494C68.069 40.7586 67.5759 39.625 66.7193 38.7976C65.8627 37.9703 64.7126 37.5169 63.5219 37.5371Z" fill="#6363BD"/>
<path d="M61.8807 61.5048C60.9211 60.6012 59.6518 60.0996 58.3338 60.1031H39.3911C38.3127 60.1218 37.2709 59.7115 36.4949 58.9623C35.7188 58.2132 35.272 57.1866 35.2526 56.1081V41.8567C35.272 40.7782 35.7188 39.7516 36.4949 39.0024C37.2709 38.2533 38.3127 37.843 39.3911 37.8616H63.6035C64.6818 37.8431 65.7234 38.2536 66.4993 39.0027C67.2752 39.7518 67.7219 40.7783 67.7413 41.8567V67.0693L61.8807 61.5048ZM63.6035 36.972L39.3911 36.972C38.0726 36.9492 36.799 37.451 35.8503 38.367C34.9017 39.283 34.3555 40.5382 34.332 41.8567V56.1081C34.3555 57.4266 34.9017 58.6818 35.8503 59.5978C36.799 60.5138 38.0726 61.0155 39.3911 60.9928H58.3312C59.4095 60.9898 60.448 61.4 61.2332 62.1392L68.6626 69.1902V41.8567C68.6391 40.5382 68.0929 39.283 67.1443 38.367C66.1956 37.451 64.922 36.9492 63.6035 36.972Z" fill="#584C4E"/>
<path fill-rule="evenodd" clip-rule="evenodd" d="M9.49715 24.8237V26.6005L11.2081 26.0313L11.5299 27.0526L9.81565 27.6033L10.8988 29.0886L10.0262 29.7262L8.91806 28.2285L7.84083 29.6828L6.98076 29.0392L8.08234 27.6033L6.3385 27.0085L6.66753 25.9997L8.39426 26.5998V24.8237H9.49715ZM15.365 24.8237V26.6005L17.0759 26.0313L17.3977 27.0526L15.6835 27.6033L16.7667 29.0886L15.8941 29.7262L14.7859 28.2285L13.7087 29.6828L12.8486 29.0392L13.9502 27.6033L12.211 27.0111L12.54 26.0023L14.2667 26.6024V24.8237H15.365ZM21.2329 24.8237V26.6005L22.9438 26.0313L23.2656 27.0526L21.5514 27.6033L22.6345 29.0886L21.7619 29.7262L20.6538 28.2285L19.5765 29.6828L18.7099 29.0386L19.8115 27.6027L18.0722 27.0104L18.4013 26.0016L20.128 26.6018V24.8237H21.2329ZM27.1007 24.8237V26.6005L28.8116 26.0313L29.1334 27.0526L27.4192 27.6033L28.5024 29.0886L27.6298 29.7262L26.5216 28.2285L25.4444 29.6828L24.5843 29.0392L25.6859 27.6033L23.9467 27.0111L24.2757 26.0023L26.0024 26.6024V24.8237H27.1007Z" fill="white"/>
<path d="M45.6386 48.1715C45.6386 47.6743 45.2355 47.2712 44.7384 47.2712C44.2412 47.2712 43.8381 47.6743 43.8381 48.1715V51.3005C43.8381 51.7977 44.2412 52.2007 44.7384 52.2007C45.2355 52.2007 45.6386 51.7977 45.6386 51.3005V48.1715Z" fill="white"/>
<path d="M57.042 47.5548C57.042 47.0576 56.639 46.6545 56.1418 46.6545C55.6446 46.6545 55.2416 47.0576 55.2416 47.5548V51.9163C55.2416 52.4135 55.6446 52.8165 56.1418 52.8165C56.639 52.8165 57.042 52.4135 57.042 51.9163V47.5548Z" fill="white"/>
<path d="M49.6395 45.3997C49.6395 44.8749 49.214 44.4495 48.6892 44.4495C48.1644 44.4495 47.739 44.8749 47.739 45.3997V53.8122C47.739 54.337 48.1644 54.7625 48.6892 54.7625C49.214 54.7625 49.6395 54.337 49.6395 53.8122V45.3997Z" fill="white"/>
<path d="M53.4404 47.1507C53.4404 46.6259 53.0149 46.2004 52.4901 46.2004C51.9653 46.2004 51.5399 46.6259 51.5399 47.1507V55.5632C51.5399 56.088 51.9653 56.5134 52.4901 56.5134C53.0149 56.5134 53.4404 56.088 53.4404 55.5632V47.1507Z" fill="white"/>
<path d="M53.4404 42.6753C53.4404 42.1505 53.0149 41.7251 52.4901 41.7251C51.9653 41.7251 51.5399 42.1505 51.5399 42.6753V44.0829C51.5399 44.6077 51.9653 45.0331 52.4901 45.0331C53.0149 45.0331 53.4404 44.6077 53.4404 44.0829V42.6753Z" fill="white"/>
<path d="M75.0001 18.4858H67.6056" stroke="#584C4E" stroke-width="2" stroke-linecap="round"/>
<path d="M64.9647 18.4858H63.3801" stroke="#584C4E" stroke-width="2" stroke-linecap="round"/>
<path d="M71.3032 21.1267H63.9087" stroke="#584C4E" stroke-width="2" stroke-linecap="round"/>
<path d="M62.3241 21.1267H59.6833" stroke="#584C4E" stroke-width="2" stroke-linecap="round"/>
</svg>
